<svg viewBox="0 0 424.06890869140625 431.1878967285156" xmlns="http://www.w3.org/2000/svg" width="424.069" height="431.188"><path fill="none" pointer-events="none" d="M0 0h424.069v431.188H0z"/><path class="st1" d="M153.5 345.747l136.8-285.6 97.8 56.8c-32.1-71.9-104.3-122-188.2-122-113.8 0-206 92.2-206 206s92.2 206 206 206c16.8 0 33.2-2 48.9-5.8l-95.3-55.4z" fill="none"/><path class="st9" d="M206.5 135.747l83.4-75.4s-104-16.5-83.4 75.4z" fill="#589137"/><path class="st10" d="M289.9 60.347l-83.4 75.4s80 29.3 83.4-75.4z" fill="#50aa5b"/><path class="st9" d="M209 132.347v-48c0-8-12-8-12 0v48c0 6 12 6 12 0 0 0 0 6 0 0z" fill="#589137"/><path class="st16" d="M228.4 125.047c-9.2 0-18.1 2.1-26.4 5.8-8.3-3.8-17.2-5.8-26.4-5.8-45.9 0-95.2 27.1-95.2 94 0 71.7 49.4 131 95.2 131 9.2 0 18.1-2.1 26.4-5.8 8.3 3.8 17.2 5.8 26.4 5.8 45.9 0 95.2-59.4 95.2-131 0-66.9-49.3-94-95.2-94z" fill="#94d154"/><path d="M156.1 200.646a26.3 26.3 0 0 1-26.3 26.3 26.3 26.3 0 0 1-26.3-26.3 26.3 26.3 0 0 1 26.3-26.3 26.3 26.3 0 0 1 26.3 26.3z" class="st17" fill="#c7e57f"/></svg>