<?xml version="1.0" encoding="utf-8"?>
<svg id="master-artboard" viewBox="0 0 424.06890869140625 431.1878967285156" version="1.1" xmlns="http://www.w3.org/2000/svg" x="0px" y="0px" style="enable-background:new 0 0 1400 980;" width="424.06890869140625px" height="431.1878967285156px"><rect id="ee-background" x="0" y="0" width="424.06890869140625" height="431.1878967285156" style="fill: white; fill-opacity: 0; pointer-events: none;"/>



<path class="st1" d="M1117.5,405.4l136.8-285.6l97.8,56.8c-32.1-71.9-104.3-122-188.2-122c-113.8,0-206,92.2-206,206&#10;&#9;&#9;&#9;c0,113.8,92.2,206,206,206c16.8,0,33.2-2,48.9-5.8L1117.5,405.4z" style="fill: none;" transform="matrix(1, 0, 0, 1, -964.0003700256348, -59.65349578857422)"/>






<g transform="matrix(1, 0, 0, 1, -964.0003700256348, -59.65349578857422)">
		<path class="st9" d="M1170.5,195.4l83.4-75.4C1253.9,120,1149.9,103.5,1170.5,195.4z" style="fill: rgb(88, 145, 55);"/>
		<path class="st10" d="M1253.9,120l-83.4,75.4C1170.5,195.4,1250.5,224.7,1253.9,120z" style="fill: rgb(80, 170, 91);"/>
	</g><path class="st9" d="M1173,192c0,0,0-32,0-48c0-8-12-8-12,0c0,16,0,31,0,48C1161,198,1173,198,1173,192&#10;&#9;&#9;&#9;C1173,192,1173,198,1173,192z" style="fill: rgb(88, 145, 55);" transform="matrix(1, 0, 0, 1, -964.0003700256348, -59.65349578857422)"/><path class="st16" d="M1192.4,184.7c-9.2,0-18.1,2.1-26.4,5.8c-8.3-3.8-17.2-5.8-26.4-5.8c-45.9,0-95.2,27.1-95.2,94&#10;&#9;&#9;c0,71.7,49.4,131,95.2,131c9.2,0,18.1-2.1,26.4-5.8c8.3,3.8,17.2,5.8,26.4,5.8c45.9,0,95.2-59.4,95.2-131&#10;&#9;&#9;C1287.6,211.8,1238.3,184.7,1192.4,184.7z" style="fill: rgb(148, 209, 84);" transform="matrix(1, 0, 0, 1, -964.0003700256348, -59.65349578857422)"/><path d="M 1120.100048 260.299988 A 26.299999 26.299999 0 0 1 1093.800049 286.599987 A 26.299999 26.299999 0 0 1 1067.50005 260.299988 A 26.299999 26.299999 0 0 1 1093.800049 233.999989 A 26.299999 26.299999 0 0 1 1120.100048 260.299988 Z" class="st17" style="fill: rgb(199, 229, 127);" transform="matrix(1, 0, 0, 1, -964.0003700256348, -59.65349578857422)"/>


</svg>