<?xml version="1.0" encoding="utf-8"?>
<!-- Generator: Adobe Illustrator 18.1.0, SVG Export Plug-In . SVG Version: 6.00 Build 0)  -->
<svg version="1.1" id="Layer_1" xmlns="http://www.w3.org/2000/svg" xmlns:xlink="http://www.w3.org/1999/xlink" x="0px" y="0px"
	 viewBox="0 0 750 508.8" enable-background="new 0 0 750 508.8" xml:space="preserve">
<g>
	<path fill="#603813" d="M445,432.7c-0.3,0-0.5,0-0.8,0C444.5,432.7,444.8,432.7,445,432.7C445.6,432.7,445.6,432.7,445,432.7z"/>
	<path fill="#464646" d="M328.4,0.2c0,0-6.6,23.4-21.5,55c-6.2,13.3-16.2,29.9-27.8,39.7c0,0,0,0,0,0c-7.4,12.5-25.6,17.5-39.5,16.5
		c-6.3-0.4-33.5,3.8-37.6,0.8c5.9,4.3,29.5,4.9,37.3,3.1c-1.4,0.4-2.9,0.5-4.4,0.9c-2.3,0.6-4.4,1.5-6.5,2.6l2.8-0.5
		c-8.2,2.5-19.3-2.2-27.9-2.2h-0.1c-6.2,0-26,1.6-31.3-0.8c9.4,4.2,20.9,4.3,31.3,4.3c7.4,0,14.6,0.5,21.9,0.7
		c-3.7-0.1-9.2,4.1-13.6,4.3c-4.1,0.2-7.9-2-12-2.1c8.8,6.1,15.4,7.1,25.3,2c6.1-3.1,11.3-7.8,17.9-9.8c7-2.2,14.6-1.4,21.6-4.2
		c-8.9,8.2-22.5,21.4-33.9,25.7c-11.8,4.5-28.4-3.4-39.8-6.7c-12.1-3.5-32.8-15.7-43.8-4.7c7.1-7.1,32.2,4.7,39.5,7.1
		c-6.6,0.2-13,0.9-19.3,3.3c-0.6,0.2-1.4,0.6-2.4,1.2c0.1-0.6-0.1-1.2-0.9-1.5c-3.6-1.5-6.5-2.8-10.5-2.9c-4.3-0.1-9.1,1.4-13.4,2.2
		c-2.8,0.6-5.5,1.3-8.3,2c-0.6,0.4-1.2,0.7-2.1,0.8c-6.8,1.4-13.4,3.4-20,5.5c0.2,0.4,0.5,0.7,0.9,1c0.4-0.2,0.7-0.4,1.1-0.5
		c2.7-0.9,5.4-1.6,8.2-1.7c5.1-0.8,10.5-0.9,15.4-2.2c9-2.5,18-4.7,26.8-1c-8.7,5-23.7,14.7-27.8,13c8.7,3.5,21.9-6.5,29.1-10.1
		c18.5-9.3,38.5-2.9,57.5-1.7c-2.3,1-4.6,1.9-6.9,2.7c-12,5.7-24.5,10.1-37.4,8.2c-1.8,0.3-3.5,0.6-5.3,0.9c0,0-0.1,0-0.1,0
		c-7.6,1.4-70.1,9.6-72.8,1.6c0,0.1,0.1,0.3,0.1,0.4c7.9,1.6,15.5,3,22,3.8c7.6,0.9,14.4-1.3,21.8-1.7c5.6-0.3,11.2,1.5,16.8,0.5
		c5.3-0.9,9.1-2.5,14.9-2.2c6.8,0.3,10.2,1.4,16.6-0.3c5-1.3,10.3-1.7,15.1-3.6c8-3,16.1-6.2,24.3-8.5c4.9-1.4,10-2.4,14.7-4.2
		c-2.4,1.7-4.9,3.3-7.6,4.5c-16.8,7.7-34.3,15.2-52,20.8c-10.9,3.4-23.7,6.6-36,7.8c-6.1,0.6-12,0.7-17.6,0.1
		c-15-1.5-30.2-1.1-45.3-2.8c-1.6-0.2-3.2-0.4-4.8-0.6c-0.5,0.1-1,0.2-1.5,0.3c20.1,3.9,44.9,7.3,60.7,7.1
		c29.1-0.5,61.3-10.9,89.2-23.9c-1.2,4-3.4,7.6-6.3,10.7c-0.4-0.4-1-0.7-1.6-0.5c-10.1,1.8-19.9,6.1-28.5,11.6
		c-4.9,3.2-28.2,9.1-33.8,6.7c8.5,3.7,24.9,1.6,33-2.1c4.1-1.9,7.6-4.9,11.8-6.7c5-2.1,10-4.2,15.3-5.4c-0.2,0.2-0.4,0.4-0.7,0.5
		c-4.6,3.5-7.9,7.6-11.1,11.6c3.9-4.9,9.5-6,14.3-9.7c2.1-1.6,4.1-3.6,5.8-5.7c3.3-4.4,3.6-11,7.8-14.7c3.3-2.9,10.9-4.7,15-6.9
		c4.2-2.3,27.4-16.3,47-27.6c-0.1,0.3-0.3,0.6-0.5,0.9c-7.1,12-16.7,16.5-28.6,20.8c-3.1,1.1-6.1,2.9-8.6,5c-3.2,2.7-5.3,5.3-7,9
		c-1.6,3.3-4.4,11-7.7,12.8c4.6-2.5,8.6-6.2,10.8-11c2-4.5,5.1-7.5,9.1-10.2c4.3-2.9,10.2-4.1,15.2-5.4c-1.5,3.4-3.5,6.7-6.6,9.4
		c7.7-6.6,13.3-14.3,20.6-21.4c5.5-5.4,8.7-11.9,14.7-16.4c1.2-0.9,16.9-7.7,16.9-8.4c-3,34.3-38.3,40.7-61.2,58.7
		c-21.1,16.6-47.7,24-77.6,28.1c-20.5,2.8-42.1,2.4-62.7,1.2c-25.3-1.5-60.6-14.2-82.7,3.2c-11.7,9.2-26.7,22.5-29.3,37.8
		c0.6-3.5,5.5-7.8,7.4-10.7c3.5-5.4,6.4-9.2,11.6-13.3c2.1-1.7,10.3-6.5,10.4-9.3c-0.2,5.4-1.2,10.5-0.1,15.9
		c0.7,3.2,2.3,6.1,4.1,8.9c-12.6,11.8-28.3,27.7-44,24.8c18.8,3.8,35-12.1,46.9-20.8c0.3,0.5,0.7,0.9,1,1.4c-0.2,0.3-0.4,0.7-0.5,1
		c-2.3,4.5-5.1,8.8-7.6,13.2c-4.7,8.4-8.1,17.2-8.9,26.8c-5.1-1.1-10.1-2-15.3-2.6c4.8,0.7,9.9,1.9,15.3,3.4c0,0.3-0.1,0.7-0.1,1
		c-0.1,1.4-0.1,2.8-0.1,4.2c-0.5,0-1,0.3-1.4,0.8c-2.8,4.8-6.1,9.3-9,14c-3.3,5.2-4.5,10.4-4.9,16.5c-0.5,7.6-0.1,15-1.5,22.6
		C13.6,334,9.1,337.7,0,341.7c15.2,2,18.4-13.1,20-25.4c1.1-8.8-1.4-18.4,2.9-26.6c2.7-5.2,6.3-9.9,9.5-14.9
		c0.6,7.9,2.1,15.9,3.2,23.6c0.2,1.2,0.4,2.5,0.5,3.7c-4.2,4.6-8.8,12.3-7.8,18.8c-1.2-7.4,8.9-10.1,9.4-16.1
		c-0.1,3.7-0.3,7.4-0.2,11.1c0.1,6.6-1.2,13.3-3.5,19.5c4.9-11.3,13.2-11.7,22.4-2.7c10,9.9,21,24.7,16.9,39.9
		c3.7-13.9,3-22.4-7.2-34.7c-3.4-4.1-7.3-7.7-11-11.5c-0.9-0.9-1.9-1.9-2.8-2.8c5-1.4,9.9-3,14.7-4.7c4.5-1.6,8.9-3.7,13.1-5.9
		c-0.4,2.6,0.2,6.4-1.1,9.5c3.1-4.7,5.7-9.9,8.8-14.7c10-7.3,17.6-16.2,25.6-24.9c2.3,11.1,1.2,67-31.5,63.2
		c23.4,3.1,31.7-16.6,34.6-30.3c3.8-18,0.9-35.2,13.1-50.8c2.5,3.1,4.6,6.5,5.5,10.5c2.1,8.9,0.2,17.6-1.6,26.1
		c9.1-9.9,7.7-26,0.2-37c-0.6-0.8-1.1-1.6-1.7-2.4c1.9-2,4-4,6.5-6c7.6-6,17.6-8.2,25.6-13.6c3.8,8,3.8,16.6,3.1,25.4
		c-19.5-0.4-21.2,6.2-25.9,20.3c4.3-12.9,13.5-15.3,25.6-15.8c-1.4,15-7.8,41-16.3,52.9c-1.4,1.9-3,3.7-4.2,5.2
		c-3.8,4.7-8,9.1-12.4,13.3c-4.3,4.2-8.5,8.2-12.4,12.5c-2.3,0.6-4.7,1-7.1,1.5c2.4-0.4,4.7-0.9,7-1.3c-3.2,3.5-6.2,7.3-8.9,11.4
		c-4.9,7.5-8.7,16.5-9.8,25.5c-0.9,7.3,3.5,13.2,6,19.7c1.6-7.8-3.6-15.6-1.7-24.2c0.9-4.2,2.9-8.5,4.7-12.3
		c3.7-8,9.2-15.1,15.4-21.4c5.3-1.3,10.3-2.8,14.9-4.4c-2.2,8.9-4,16.1,2.4,23.1c-4.9-5.3,0.5-18.9,1.9-24.7
		c10.3-3.9,19.5-8.5,29-13.2c0.2,0.2,0.4,0.4,0.6,0.6c-0.4,1-0.9,2-1.1,3c-0.6,2.1-0.8,4.4-1.1,6.5c-0.3,2.3-0.5,4.6-0.7,6.8
		c-0.1,0.2-0.2,0.5-0.2,0.8c-0.5,9-10.2,11.3-15.5,17.1c-5.8,6.2-9,15.8-12.4,23.5c-3.5,7.8-7.2,16.5-7.9,25
		c-0.9,10.4,2.3,11.6,7.4,19.5c-4-9.2-5.2-15.3-2.8-25.3c2.2-9.4,6.7-18.4,10.9-27c1.7-3.6,3.3-7.1,5.4-10.5
		c2.6-4.2,6.5-6.6,10.5-9.3c1.8-1.2,3.3-2.5,4.5-3.9c-2.4,2.9,0.1,17-1.7,21.7c-2,5-5.8,9.5-9,13.4c11.8-5.3,15.2-17,14.7-29.1
		c-0.3-6.1-1-12.1-0.1-18.2c0.5-3.4,0.8-6.7,1.5-10.1c0.1-0.4,0.2-0.9,0.3-1.3c0.8,0.9,1.7,1.8,2.5,2.7c3.3,3.8,6.6,7.6,9.5,11.7
		c-0.8,4-1.2,8.2-1.5,12.6c-0.9,16.1-14.1,30.6-24.3,44.6c11.5-15.7,25.1-26.4,29.2-44.4c0.4-1.9,0.8-3.8,1.1-5.8
		c0.3,0.6,0.7,1.2,1,1.8c2.1,4.1,3.2,8.2,4,12.8c1.5,8.9,0.1,16.5-3.2,24.7c11.9-12.9,7.9-31.4-1-45c1.5-10.8,3.4-21.6,14-30.1
		c9.3-7.5,29.7-9.1,42-13.9c-1.2,24.6-23.2,28.9-42,46.4c8.1-7.8,22.8-10,31.8-16.9c10.9-8.4,14.4-21.1,15.4-32.1
		c0.8-9.5-1-18.9-5.2-28c-10.2-22.1-15.5-39.1,8.8-53.3c-1.5,3.3-1.8,7.8-2.1,10.6c-0.1,1.4-0.2,2.8-0.2,4.2
		c-0.3,0.3-0.6,0.7-0.6,1.3c0,5-0.6,9.2-2.9,13.7c-2.7,5.1-6.4,11.9-1.4,16.9c-0.1-6.6,2.9-12,5.7-17.7c0.1-0.3,0.3-0.6,0.4-0.9
		c0.6,3.8,3.5,17.9,1.5,20.9c5.7-8.3,2-19.2,1-28.2c-1.5-12.6-0.4-22.3,11.8-27.2c8.5-3.4,17.6-5.3,26.8-6.9c-1.6,3.5-2.9,7-4,10.5
		c-1.6,5.2-3.5,10.4-5.4,15.5c-3.3,1.8-6.6,3.6-9.6,6.2c-4.5,3.9-8.4,9.5-10.6,15c-2.8,6.8-3.8,13.9-4.5,21.1
		c-1.3,12.3,3.4,24,4.1,36.1c0.7,11.5-4.8,18-11.9,26.6c-2.6,3.2-5.5,6.2-8.5,9.1c-6.1,5.9-13.8,9.4-21.3,13.1
		c-6.1,3-11,7.8-14.8,13.4c-4.4,6.5-7.8,14.2-11.2,21.3c-4,8.4-7.7,15.5-5.3,24.9c-1.6-6.5,9.3-25.3,12.1-30.6
		c3.1-6.1,6.2-12.6,10.6-17.8c1.4,2.8,2,5.9,2.6,9c0.6,3.3,1.6,6.6,2.4,9.8c-9.4,5.1-17,11.1-17.7,20.1c0.8-7.1,8.6-12.5,18.5-17.1
		c0.1,0.3,0.1,0.5,0.2,0.8c2,8.3,6.4,14.2,2.1,22.2c-3.4,6.4-11.1,9.8-15,15.9c-6.7,10.3-8.5,22-3.9,33.5c0.6-12.8,1-23.1,8.8-34.5
		c3.5-5.2,11.6-8.5,14-14.4c0.3,1.3,0.7,2.6,1,4c2.3,9.6,4.1,20.5-0.3,29.8c-3.6,7.5-10.5,13.2-8.5,22.2c3.6-5.3,6.1-11.6,9.8-17.4
		c2-3.1,3.4-6.4,4.2-9.9c2-8.1-0.1-17.7-1.9-25.7c-2.1-9.4-5-18.6-7.3-28c13.2-5.8,29-10.5,36.5-16.5c1-0.8,1.9-1.6,2.9-2.4
		c6.1,10.1-8.5,21.2-15.4,29.3c-6.7,7.9-10.3,18.9-4.2,25.9c-7-10.7,15.5-30.4,21.4-37.7c2.5-3.1,4-5.9,5-8.8
		c-0.2,5.4-0.5,10.8-1.3,16.2c-1.6,10.5-4.3,20.9-7.1,31.1c-0.6,0-1.2,0.2-1.5,0.9c-0.9,1.7-2.2,3.1-3.7,4.4
		c-6.2-1.1-10.3-3.3-12.8-6.2c1.9,2.9,5.8,5.1,12.8,6.2c-3.5,3.1-8.2,5.3-11.6,7.9c-4.1,3-7.7,7.4-10.7,11.4
		c-8.7,11.6-18.1,30.8-9.6,44.7c2.3-17.5,2.6-31,14.7-45.5c3.8-4.6,8-8.2,13.1-11.3c2.4-1.5,5.1-3.4,7.4-5.5
		c-3.3,11-9.7,21.6-11.2,33c-1.5,11.5,4.9,21.2,8.5,31.7c1-9.4-5.4-18-5.3-27.7c0-6.5,2.8-13.2,5.4-19c4.4-9.6,7-20,9.6-30.2
		c2.7-10.5,5.2-21,6.5-31.8c0.6-5.6,0.6-11.2,0.8-16.8c0.1-2.4-0.3-4.7-0.7-7.1c0.2-0.9,0.4-1.8,0.7-2.8c1.7-6.5,6.5-12.1,8.1-18.6
		c0.6-2.4,1-4.9,1.3-7.3c0.9,1.6,1.9,3.1,3,4.5c9.3,12.9,7.7,17.2-1.7,29.4c-3.8,5-5.6,11.8-6.8,17.9c1.1-5.3,5.7-10.9,8.8-15.1
		c-1.5,8.1-4.5,16.8-5.1,25.1c-5.9,5.6-10.5,11.7-11.7,18.6c-0.1,0.4-0.1,0.7-0.1,1.1c2.6-5.2,6.8-9.9,11.6-14.2c0,1.1,0,2.2,0,3.3
		c0,12.1,7.9,23,7.6,34c0.2-9.3-1.8-15.7-3.2-24.9c-0.8-5.2-0.9-10.3-0.7-15.5c10.7-8.7,23.6-16.5,31.5-26.5
		c-1.6,3.5-3.3,7-4.3,10.3c-3.1,10.9-9,20.4-12.8,31c-7.7,21.4,6.8,44.8,9.8,65.7c7.2-12.6-6.4-30-7.5-43.4c-0.4-4.6-0.3-9.3-0.1-14
		c0.3-7,3.6-12.6,6.7-18.7c4.4-8.8,6.9-18.4,10.7-27.4c1.8-4.4,4-9.4,4.5-14.4c3.6-7.5,4.8-15.4,1.9-23.2c-2-5.5-5.9-10.2-10.4-14.8
		c0.5-1.1,1.1-2.3,1.6-3.4c0.9-1.7,1.6-3.6,2.2-5.5c0.2,0.1,0.4,0.3,0.5,0.4c3.4,2.4,6.8,4.7,10.2,7.2c0.1,0.4,0.2,0.7,0.4,1.1
		c2.8,7.8,5.9,13,5.9,21.6c0-6.5,1.6-12.2-1-18.7c4.4,3,8.6,6.7,12.6,10.2c-0.8,1-1.6,2-2.4,2.9c-11.9,14.7-23.5,28.4-28.9,46.9
		c-3.2,11.1-3.6,22.7-1.4,33.8c0,2.5,0.6,5,1.8,7.2c1.2,4.1,2.8,8.1,4.6,11.9c4,8.4,9.2,16.2,14.8,23.5c7.5,9.7,15.7,18.4,22.8,28.4
		c-11.3-16.1-24.4-34.2-33.7-51.9c-1-1.9-1.9-3.9-2.7-5.8c2.3,1.5,5.2,2.8,8.8,3.8c-24.2-7-5-41.5,4.4-50.4
		c2.8,9.7,9.4,15.6,15.4,24.6c2,3,9.7,16.5,8,19.6c7-12.2-6.5-22-12.3-33c-3-5.7-3.3-10.1-2.1-14c0.3,0.3,0.6,0.6,0.8,0.9
		c8.1,9.2,17.5,17.1,25.7,26.3c0,0,0,0.1,0,0.1c-0.6,3.8-1.4,7.5-2.4,11.3c-3.3,12.6-6,25.7-15.8,34.8c12.1-5.1,15.1-18,18.1-29.5
		c0.8-3.1,1.6-6.2,2.4-9.3c2.3,6.1,5.8,11.8,11.8,17.3c-4.4-3.9-7.1-10.8-9-18.5c6.8,9.3,11.5,20.2,14.6,31.2
		c1.8,6.4,3.1,12.5,3.5,19.1c0.4,6.9-1.9,13.1-2.3,19.9c-0.1,2.3,3.4,2.3,3.5,0c0.3-6.1,2.4-11.7,2.3-17.8
		c-0.1-6.2-0.9-12.4-2.6-18.4c-3.2-11.6-7.6-22.7-14.1-32.9c-1.9-2.9-3.9-5.6-6.2-8.2c0.5-2.9,0.8-5.9,0.9-8.9
		c0.1-4,0.2-8.1,0.1-12.2c0.8,1.3,1.6,2.5,2.5,3.6c4.2,5.2,8.4,10.5,14,15c10.1,8.2,22.9,12.4,37.4,12.9
		c-1.5,17.4-0.4,45.2,20.7,47.4c-18.5-2.7-21.5-47.3-17.1-47.4c1.7,0,3.4-0.1,5.1-0.2c-1.7,0-3.4,0-5.1-0.1
		c0.5-4.4,1.4-8.7,2.7-12.9c1.2,0.3,2.3,0.7,3.4,1c1.2,2,2.3,4,3.7,5.8c5.9,7.3,13.7,12.9,20.8,18.9c6.5,5.5,13,11.1,19.1,17.1
		c-0.2,0.3-0.4,0.7-0.6,1c-4.2,7.1-10.2,17.3-10.7,25.7c-0.4,6.7,4,13,4,19.8c1-12.8-4.5-21.8,4.6-32.8c2-2.4,3.9-4.9,5.8-7.4
		c0.9-0.1,1.3-0.8,1.4-1.5c3.1,3.2,6.4,6.2,9.4,9.6c5,5.8,7.4,14.8,9.8,22.5c2.3-13-5.6-23.7-14.4-32.3c-0.9-0.9-1.9-1.8-2.8-2.8
		c4.8-6.4,8.8-12.5,9.7-20.4c1,3.7,2.3,7.3,3.9,10.7c1.5,3.3,3.4,6.5,4.2,10.1c1.6,7,3.8,14.3,6.8,20.9c0.5-10-2-20.1-6.3-29.1
		c-3.1-6.4-5.5-13.2-6.4-20.3c3.9-5.7,7.7-11.5,11.2-17.4c0.8-1.3,1.5-2.6,2.3-4c2.7,9,10.8,17.1,18.7,24.3c0.1-0.1,0.2-0.1,0.3-0.2
		c-8.7-9.5-15.5-22.4-14.3-33.3c2.9-6.2,5.4-12.9,6.1-19.5c3.5-8.8,6.9-17.5,5.8-27.9c-0.1-1-0.3-2.7-0.5-4.7
		c2.5,2.1,5.6,3.9,7.7,5.2c3.3,2.1,6.4,4.4,9.2,7c0,8.1-0.4,16.2-0.9,24.3c-0.8,12.1-4,24.1-17.2,27.1c19.9,6.1,20.5-23.3,21.2-35.4
		c0.2-4.1,0.3-8.2,0.3-12.3c3.8,5.7,3.3,13.4,3.3,20c0,2.3,3.5,2.3,3.5,0c0-9.9-0.5-18.2-6.9-25.3c-0.1-6.4-0.3-12.9-0.3-19.4
		c2.7,2.9,5.2,5.8,7.2,8.8c0,4.3,0.2,8.6,0.6,13c1.1,11.4,5.6,21.9,8.5,32.8c2.7,10.3,7.1,14.6,14.7,21.4
		c-4.1-7.3-9.2-14.2-11.3-22.3c-2.9-10.8-6.8-22-8.1-33.1c-1.8-15.7-0.4-32.2,1-47.9c0.6-0.3,1.3-0.5,1.9-0.8
		c1.9,2.2,3.3,5.5,4.3,7.4c5.2,9.6-3.4,11.6-2.9,21.4c1.8-3.4,3.7-6.7,5.9-9.8l-0.1-0.3c0.6,0.3,1.3,0.3,1.9,0
		c0.4,1.1,0.7,2.2,1.1,3.3c2.9,9,5,18.3,8.2,27.3c3.8,10.7,8.5,21.1,15.4,30.1c5.8,7.6,19.8,17.9,22.2,26.8
		c-2.7-10.1-9.3-15.6-15.6-22.9c-6.4-7.4-10.2-16.6-14.4-25.4c6.3-7.1,14.8-11.8,19.8-19.9c3.7-6.1,6.6-13.5,7.9-21.2
		c0.5,2.4,1.3,4.6,1.9,7c1.3,5.4,1.5,10.8,1,16.3c-1.4,14.5-15.5,21.9-16.2,37.2c4.3-7.5,9.3-14.4,13.9-21.7
		c3.5-5.5,5.4-11.1,6-17.6c0.3-3.6,0-7.4-0.6-10.9c-1.3-7.4-4.7-14.2-6-21.4c-1.2-7.3-1.2-13.1-6.4-19.4c8.4,10.3,26.4,19.2,30.9,32
		c2.3,6.4,1.9,13.7,2.6,20.4c1.5,14.1,12.8,13.9,21.7,21.9c-7.9-9.8-16.8-9.3-18.4-23.9c-0.6-5.5-0.7-10.8-1.9-16.2
		c-0.9-4-2.7-8.6-5.5-12c10.7,6,32.8,18.8,24.3,29.3c11-12.8-6.5-24-19-30.9c-15.8-8.6-28.9-18.7-39.7-30.8c-3-3.3-5.6-6.7-8.3-10.1
		c5.6,0.7,12.5,3.2,17.3,5.8c6,3.2,10.5,9.9,15.7,14.3c17,14.3,37.7,15.5,49.7,35.1c-8.2-15.2-23.4-19.8-35.2-30.5
		c13.4-1.8,28.9-3.4,41.1,3.8c8.6,5.1,8.9,12.4,11.1,21.7c-1.6-6.7,1.7-13.5-2.5-18.7c-4.1-5.2-16.2-9.3-22.4-10.9
		c-16.3-4.1-31,5.2-44.9-8.2c-4.5-4.3-7.9-8.6-13.6-11.3c-5.1-2.3-11.7-4.5-17.2-5c-0.7-0.1-1.2,0.2-1.5,0.7
		c-6-7.5-12.5-14.6-22.6-20.1c18.1-1.5,28.9-6.5,40.4,9c2.6,3.5,6.2,6.2,9.6,8.9c3.5,2.8,7.1,5.5,10.6,8.2c5.1,3.8,7.5,7.4,7.7,13.8
		c-0.1-3.6,4.4-4.2,1.2-10.4c-2.2-4.3-8.4-7.4-12.2-10.3c0,0,0,0,0,0c-2.4-1.8-4.8-3.6-7.1-5.5c7.2,0.4,13.9,1.9,20.5,5.4
		c7.4,4.1,10.7,12.8,17.1,18c-1-5.1-3.4-10.1-6.8-14c-2.9-3.3-6.3-5.8-10.1-7.9c-7.6-4.2-16.2-5.1-24.7-5.2c-1.8-1.8-3.5-3.7-5-5.9
		c-1.6-2.3-2.7-5.3-4.6-7.2c17.1-1.5,30.7-1.8,45.4,8.9c16.1,11.7,21.1,26.9,45.9,31.1c-32.8-6.7-27-33.3-52.5-42.7
		c-7.8-2.9-16.6-4.1-25.5-4.4c5.9,0.2,18.7-11.1,25.1-13c11.3-3.4,15.8-1.9,26.3,1.8c14.8,5.2,27.2,14.2,39.4,22.1l-12.1-9.1
		c-10.7-13.4-25.2-18.4-45-21.1c5.3-2.5,11.4-6.6,17.4-7.9c0,0,0,0,0.1,0c24.3-5.3,44.7,1.9,68.2,5.2c-27.2-5.3-48.1-15.5-76.5-5.8
		c-20.5,7-37.4,18.3-55.9,27.6c-0.2,0.1-0.3,0.2-0.5,0.3c-0.5,0-1.1,0-1.6,0.1c5.1-3.8,9.4-8.6,11.7-14.6c1.8-4.9,0.7-9.5,5.3-12.6
		c6.2-4.1,15.2-1.8,22.2-2.2c6.1-0.4,10.7-2.6,16.6-3.6c-2.7,0.4-42,1.8-41.8,2.9c-0.3-2,0.1-3.7,1-5.6c3.9-8.4,15-6.5,22.2-7.4
		c-8.6-5.7-22.5-3.2-26.1,7.5c-1,2.9-1.3,5.9-1.4,8.9c0,0-0.1,0.1-0.2,0.1c-0.3,0.3-0.2,0.7,0.1,0.9c0,0.7,0,1.3-0.1,2c0,0,0,0,0,0
		c-0.3,0.3-0.2,0.6,0,0.8c0,0.7,0,1.5-0.1,2.2c-0.7,15.7-16.4,21.1-29.1,21.6c-10.7,0.4-22.2,0.9-33.8,0.9c-2-4-4.4-7.9-7.3-11.5
		c-6.2-7.9-14.3-14.4-20.8-22.1c-6.4-7.6-12-16-16.9-24.7c2.7,0.3,6.7,1.4,12.4,3.4c0,0,0.1,0,0.1,0c8.7,3,19,4,25.4,11.4
		c0.9,1.1,0.2,3.1,0.5,4.4c0.4,1.8,1.3,3.7,1.5,5.5c0.3,3.1,0.1,6.3,0.1,9.4c0,6.5-0.1,14.9,7.5,16.9c-2.5-4.4-3.7-7.8-3.9-13.1
		c-0.1-3.2-0.1-6.5-0.1-9.7c0-2.4-0.1-4.4-0.9-6.7c-0.3-1.1-0.5-2.1-0.5-3.1c0.3,4.3,5.6,15.6,8.2,19c4.1,5.3,11.2,5.5,16.6,9.1
		c-1.7-6.7-7.9-5.5-12.1-9.4c-4.7-4.3-5.4-12.3-8.2-17.8c-1.4-2.7-3.1-5.2-5.1-7.3c16.7,4.9,43.3,14.7,44.7,30.2
		c-1.2-39.1-68.4-29.5-89.6-55c-5.5-6.6-12.5-23.3-24.6-24.7c9.4,1.1,22.5,0.6,31.2,4.1c8.8,3.6,6.7,9.2,12.1,17c0,0,0,0,0,0
		c4.4,6.3,7.8,13.8,13.9,18.4c-5.2-4-11.5-18.9-14.4-25.7c1.6,1.3,3.2,2.5,4.6,3.5c6.2,4.7,13.5,7.1,20.9,9c0.4,0.1,0.7,0.2,1.1,0.3
		c-0.4,0.6-0.5,1.4,0.2,2.1c13.5,12.6,35.5,15.3,44.8,31.7c0.5-9.7-8.4-14.1-15.5-17.7c-8.3-4.2-18-8.5-24.2-15.7
		c-0.1-0.1-0.2-0.2-0.3-0.4c6.6,1.4,13.8,4.9,20.3,7.3c4.1,1.5,8.1,3.4,12,5.4c8.3,4.3,11.7,9.4,13.9,18.3
		c2.8-13.1-2.3-16.3-13.8-22.2c-6.8-3.5-14-6.1-21.2-8.2c-8-2.4-16.3-3.9-24.2-6.5c-3.9-1.3-7.5-3.2-10.9-5.4
		c-2.8-1.8-8.5-5.7-9.9-9.4c9.3,1.8,18.5,3.9,27.3,6.6c45.2,13.7,79.4,36.4,133.8,28.9c-27.6,3.8-69.2-11.5-94.9-20.9
		c9.4,3.4,18.6-6.7,21.9-14.3c-12.2,4.7-13.6,13.8-28.9,9.8c-10.1-2.6-18.2-10.6-29.3-9.2c21.2-2.8,37.1-15.7,58.9-10.1
		c-9.8-9.2-21.1-6.5-32.9-1.3c-9.7,4.3-20.6,8-31.3,8.3c-0.5,0-1,0.2-1.2,0.5c-4.3-1.7-8.2-3.3-11.5-4.4
		c-15.8-5.5-31.9-10.8-49.1-13.8c-1.2-0.2-2.4-0.4-3.6-0.7c7-0.8,29.3-9.7,34.9-1.4c-8.8-13-30.8-5.2-43.1-5.8
		c-10.4-0.5-21.9-1.4-31.6-5.3c-11.4-4.5-21.3-12.2-29.9-22.2c4.6,2.1,9.3,3.8,14.3,4.9c4.4,0.9,8.8,1.4,13.3,1.7
		c0.1,0.3,0.2,0.5,0.5,0.8c5.7,5.4,11.3,8.6,19,10c9.2,1.7,18.7,1.6,27.9,3.1c9.8,1.6,20.7,3.7,29.3,8.9c8.2,4.9,13,12.6,19.1,19.4
		c-2.5-2.8-6.3-10.6-8.1-14.1c-1.3-2.5-3.9-4.5-6.1-6.2c-7.4-5.4-15.7-7.5-24.5-9.6c-0.3-0.1-0.5-0.1-0.8-0.2
		c4.7-0.3,9.4-0.8,14.2-1.7c4.8-0.9,9.5-1.9,14.4-2.1c10-0.3,20.3,2.5,27.5,9.7c-11.8-11.8-18.5-15.3-36.5-12.3
		c-8.2,1.4-16.9,4.4-24.7,5.4c-7.4,1-14.5-2.3-21.9-2.9c-9.5-0.7-16.9-2.3-24.1-8c10.8,0.4,20.2,0.8,30.7,3c-4.8-1-9.2-5-14.5-6.1
		c-8.1-1.6-17.3-0.5-25.6-1.2c-6.3-0.6-12.1-1.9-18-4.2c-3-1.2-6-2.6-8.9-4c-0.1-0.1-0.8-0.4-1.6-0.9C378.3,51,367.7,0,367.7,0
		 M563.3,262.9c0.4,1.2,0.7,2.5,1.1,3.7c-1.7-1.6-3.6-3.1-5.5-4.4C560.4,262.5,561.9,262.7,563.3,262.9z M434,144.7
		c12.1,3.2,24.7,5.5,37.4,7.4c8.3,3.8,15.9,8.3,22,13.8c8.7,7.7,11.2,15.7,12.1,25.4c1.1,12.5,6.4,36.4,27.1,40.6
		c-13.5-2.9-15-15.6-17.3-23.7c-2.3-8.1-4.8-13.7-2.1-15.4c4.6,8.3,9.8,16.1,15.6,23.6c6.8,8.6,15,15.7,22.2,23.9
		c2.8,3.2,5.1,6.6,7.1,10.3c-35.2-0.3-70.9-5.5-88.1-29.8c-1.6-2.3-3-4.5-4.3-6.7c1.3,1.1,2.5,2.1,3.9,3.1c5.2,3.7,10.9,6.2,17,8
		c10.1,3,20.3-0.9,27.9,7.3c-3.5-11.6-12.9-7.7-22.2-9.5c-3.2-0.6-6.3-1.6-9.3-2.7c0.2-0.3,0.4-0.6,0.4-1.1v-0.4
		c11.6-5,16.7-3.8,26.1,4.7c-6.4-5.8-10.7-10.1-17.2-10.3c-3.2-0.1-6.9,0.7-11.6,2.9c-0.5,0.2-0.9,1-0.9,1.5v1.4
		c-7.2-3.3-12.6-8.9-18.8-13.6c-4.9-9.5-9.2-18.9-18.7-28.5c-0.3-0.3-0.6-0.6-0.9-0.9c4.8,0.3,9.7,0.7,14.5,1.1
		c1.4,0.1,2.9,0.3,4.3,0.5c0,0.9,0.5,1.9,1.7,1.9c-0.4,0,2.2,4.7,3,5.6c2.4,2.9,5.3,5.4,8.4,7.6c9.7,6.7,21.4,10.9,31.3,17.2
		c-5.4-10.1-17.1-13-26.4-18.3c-5.5-3.1-10.2-7.6-13.1-13.1c0.8,1.5,14.9,5.9,17.4,7.6c5.3,3.6,9.4,8.5,14.9,11.8
		c-8.2-12.9-19.8-21.1-35-23.5c-6.3-1-12.7-1.1-19-1.7c-2-0.2-4-0.3-5.9-0.4c-29.4-28.7-51.5-40.1-54.1-84.4c0,0,0,0,0-0.1
		C394.4,115.5,404.1,136.7,434,144.7z M421.6,220.6c3.5,5,5.1,10.5,6.4,16c-0.3,0.2-0.5,0.5-0.6,0.9c-2.3,7-3.8,13.4-4.3,20
		c-0.9,2.6-1.9,5.3-2.9,7.9c-3.8-8.4-8.6-16-13.6-23.8C414.6,235.6,426.8,228.1,421.6,220.6z M445.3,281.9c-1.2-1.1-2.4-2.1-3.7-3.1
		c-3.6-2.5-7.1-5.1-10-8.4c-2.1-2.4-3.2-5.4-5.1-7.9c0-0.1-0.1-0.1-0.1-0.2c0-1-0.1-2-0.1-3c1.5-4.4,2.9-8.9,3.9-13.4
		c1.4,5.8,3.2,11.4,7.1,16.7c2.4,3.2,5.1,6.2,8.1,9.1C445.2,275.2,445.2,278.5,445.3,281.9z M472,307.7c-1.3-1.5-2.7-3-4-4.4
		c5.9,2.4,11.6,5,17.1,8.3c8,4.8,14.6,11.6,20.7,18.6c5.7,6.5,10,13.9,11.6,22.5c0.1,0.3,0.1,0.7,0.2,1c-4.4-5.1-9.7-9-15.2-12.8
		c-6.8-4.5-13.6-9.1-20.5-13.4c-4.1-2.6-8.4-5.3-11.8-8.8c-6.7-6.9-15.6-12.6-18.8-21.8c-0.6-1.8-1.1-3.5-1.4-5.4
		c0.9,0.9,1.7,1.8,2.6,2.7c2.3,2.5,5.3,4.1,7.9,6.3c3,2.4,5.5,5.5,8,8.3c7.4,8.3,17.5,10.9,25.9,18.3
		C486.9,320.7,478.3,314.9,472,307.7z M457.2,317.1c1.4,2.4,2.8,4.9,4.1,7.3c-9.4-3.9-19-7.7-27.3-12.7c-0.7-0.5-1.5-0.9-2.2-1.4
		c-0.2-4.1-0.7-8.3-1.5-12.4c-0.4-2-0.8-7.8-1.6-9.2c4.2,7.2,11.1,13.8,12.5,22.5c-0.9-5.9-0.7-11.3-4.5-16.2
		c-4.3-5.5-7.2-10.3-8.6-17.3c-0.6-2.9-1-5.8-1.3-8.7c2.4,3.4,4.5,6.7,8.3,9.5c3.9,2.9,7.3,5.8,10.6,9c0.1,1.4,0.3,2.8,0.5,4.2
		C447.7,300.8,452.5,309.2,457.2,317.1z M378.5,317.8c-1,2.2-2.6,4.4-4.2,6.4c-0.8-3.6-0.4-7.3-1-10.9c-0.5-3.1-1.5-6.5-3.3-9.3
		c0.8,0.4,1.5,0.7,2.3,1.1c1.6,3.6,3.3,7.1,5.1,10.5C377.7,316.4,378.1,317.1,378.5,317.8z M377.4,308.1c0.3,0.2,0.5,0.4,0.8,0.5
		c0.8,1.2,1.2,2.5,1.3,3.8C378.8,311,378.1,309.5,377.4,308.1z M370.1,321c0,2.1,0.5,4.4,1.1,6.6c-0.9,0.9-1.7,1.7-2.4,2.5
		c-1.4,1.4-2.7,2.8-4,4.2c-0.7-2.1-1.5-4.2-2.5-6.3c-5.4-11-13.1-21.2-22.1-30.9c-2-2.1-3.8-4-5.6-5.8c3.7,1.3,7.6,2.6,11.4,3.9
		c6.4,2.2,15,3.5,19.7,8.7C369.6,308.5,370.1,315.3,370.1,321z M359.2,348.9c-0.4-0.4-0.8-0.8-1.3-1.2c0.3-0.3,0.6-0.6,0.8-1
		C358.9,347.4,359,348.1,359.2,348.9z M352.8,291.2c-0.4-0.2-0.9-0.3-1.3-0.4c5.6-1.2,9.9-4.3,12.9-8.3c1.2,5,2.8,9.9,4.6,14.7
		C363.7,295,358.2,293.1,352.8,291.2z M356.5,245.9c2.3-0.1,4.6-0.1,6.8-0.1c-1.1,5.7-1.7,11.4-1.6,17.3c0.1,4.6,0.6,9.2,1.4,13.7
		c-15.2,17.2-25.7,6-31.1-11.1c-2-6.3-2.6-12.9-1.5-19.4c1-6.2,4.7-10,8.5-14.7c1.5-1.8,2.5-3.8,3.3-5.8c3.6,5.5,9,9.8,13.9,14.1
		c-1.7-8.7-12.2-13.8-12.4-22.9c0,0,0,0,0,0c-0.1-3.7,0.5-7.1,1.5-10.5c0.1-0.1,0.3-0.2,0.4-0.4c0.1,0.2,0.1,0.4,0.3,0.6
		c3.8,5.2,8.6,9.5,13.5,13.7c2.5,2.1,4.6,4.4,6.8,6.7c0.5,0.6,1,1.2,1.4,1.8c-4.7,15-5.2,11.9-18.8,15.9
		c-8.2,2.4-13.7,6.6-14.4,15.1C335.4,250.4,342.7,246.3,356.5,245.9z M366.4,221.9c-5.3-6.1-12.4-10.4-17.3-17
		c-0.3-0.4-0.6-0.6-1-0.7c0.8-0.6,1.5-1.2,2.3-1.9c4.8-3.8,9.2-8.2,13.8-12.3c3.9,3.4,8.6,6.1,13,8.7c0.1,0.1,0.3,0.2,0.4,0.2
		c-0.7,2.3-1.5,4.5-2.2,6.8c-5.3-3.7-11.8-6.3-20.4-5.8c8.7-0.4,15.1,2.6,20,7c-2,6-4.1,11.9-6,17.9
		C368.1,223.8,367.2,222.9,366.4,221.9z M380.8,189.1c-2.5,2.8-8.3,3-13.6-1.2c-0.1-0.1-0.2-0.2-0.3-0.3c1-0.9,2-1.7,3.1-2.6
		c2.8-2.2,5.6-4.4,8.6-6.2C382.6,183.2,382.7,186.9,380.8,189.1z M386.3,216.1c-2.4-2.8-5-5.6-7.9-8.1c0.8-2.4,1.5-4.7,2.3-7.1
		C381.9,206.2,383.8,211.2,386.3,216.1z M370,234.8c1.4,1.5,1.9,3.1,2.6,5c0.2-2.2-1.4-10.6-1-11.6c1.2-3.4,2.4-6.7,3.5-10.1
		c0.9-2.8,1.8-5.6,2.7-8.4c2.5,2.9,4.6,6.3,6.3,9.6c3,5.9,6.6,11.8,13.4,15c0.4,0.6,0.9,1.3,1.3,1.9c-0.5,0.2-1,0.4-1.5,0.6
		c-7.9,3.1-17.8,3-26.5,3c-1,0-1.9,0-2.8,0C368.7,239.4,369.3,235.8,370,234.8z M402.2,245.3c0.5-0.5,1.1-1,1.7-1.6
		c5.2,7.5,10.1,15.1,13.4,23.2c0.4,1,0.8,1.9,1.2,2.9c-0.6,1.6-1.3,3.1-1.9,4.7c-2.1,5.1-4.2,10-6,14.9c-3.2-4.2-6-8.5-8.6-12.6
		C394.6,265.4,392.4,255.5,402.2,245.3z M410,304.4c0.2,0.4,0.4,0.8,0.7,1.2c1.7,3.2,3.4,6.3,5,9.5c0.7,5.3,1.2,10.7,0.6,16
		c-1.6-3.5-3.1-7.1-4.5-10.7C409.8,315,409.4,309.7,410,304.4z M412.8,292.1c2-6.1,4.8-12.1,7.4-17.9c3.8,10.7,6.6,21.9,7.8,33.2
		C422.1,303,417.1,297.7,412.8,292.1z M422.1,269.8c0.3-0.8,0.7-1.6,1-2.3c0.1,1.5,0.3,3.1,0.5,4.7c0.1,0.9,0.2,1.8,0.4,2.8
		c-0.1-0.4-0.3-0.8-0.4-1.2C423.1,272.4,422.6,271.1,422.1,269.8z M419.2,335.1c0.8-3.1,1-6.4,0.9-9.8c2,6,3,12,2.1,18.3
		c-1.1-2.4-2.3-4.8-3.4-7.2C418.9,336.1,419,335.6,419.2,335.1z M422,310.8c-0.6-1.3-1.3-2.6-1.9-3.8c1.4,2.7,4.4,5.3,8.3,7.8
		c0,3.7-0.4,7.4-0.9,11.1C426.3,320.7,424.4,315.7,422,310.8z M406.7,230c-3.3,0.6-6.2-0.2-8.9-2c-4.9-7.5-9.7-15.4-12.5-23.8
		c0.7,0.5,1.4,1,2.1,1.5c6.7,4.8,12,12.5,17.8,18.4c-3-7.1-6.3-11.4-11.1-17.3c-2.2-2.7-5.4-4.6-8.2-6.5c-0.7-0.5-1.3-0.9-2-1.4
		c-0.4-1.7-0.6-3.5-0.8-5.3c0.3-0.8,0.5-1.5,0.8-2.3c0.6-1.7,1.3-3.5,2.1-5.3c3.1,2.7,6.4,5.4,10.2,8.1
		C402.5,198.9,426.4,226.3,406.7,230z M391.3,173.9c1-2.6,1.9-5.2,2.5-7.8c2.1,1.8,4.3,3.4,6.7,4.9c1.9,3.1,4,6,5.7,8.9
		c2.4,4,5,7.7,7.6,11.5C406.4,185.5,398.3,180,391.3,173.9z M386.7,158.3c1.2,1.8,2.6,3.4,4.1,4.9c-0.4,2.3-1.2,4.6-2,6.8
		c-0.5-0.5-1.2-0.7-1.8-0.4c-2.5-2.6-4.8-5.4-6.6-8.3c-12.1-19.1-3.9-39.5-10.4-57.4C376.4,120.9,376.3,143.2,386.7,158.3z
		 M359.5,116.2c-0.5,26.9,3.5,44.2,16.6,59.9c-3.1,1.9-5.9,4.2-8.7,6.5c-1.1,0.9-2.1,1.7-3.2,2.6c-3.9-4.2-6-9.3-7.6-15.1
		c-1.6-5.8-3.2-12.4-3.9-18.8C355.8,140.6,358.1,129.1,359.5,116.2z M352.4,167.2c0.1,0.6,0.3,1.3,0.4,1.9
		c1.5,6.8,3.9,12.8,8.4,18.1c0.1,0.1,0.2,0.2,0.3,0.3c-4.7,4.2-9.3,8.5-14.1,12.5c0.8-1.9,1.6-3.8,2.4-5.7c2.3-5.5,3-11.8,3.3-17.8
		C353.4,173.3,353,170.3,352.4,167.2z M349.6,178.7c-0.5,9.4-4.6,17-7.5,25.7c-4.9,4-9.6,8.1-13.5,13c6.7-17.9,13.9-34.1,19.8-51.7
		C349.1,169.9,349.8,174.2,349.6,178.7z M278.8,169.5c0.1,2.6,0,5.1-0.6,7.6c-1.1,4.6-6.2,8.5-9.5,11.7
		c-11.4,11.2-25.7,18.7-37.1,29.9c-10.8,10.6-15,26.4-9.4,40.5c2.4,6.1-22.3,9.5-26,10c-0.4-1.2-0.7-2.4-0.9-3.6
		c-1.2-8.8,4.1-17.3,8.7-24.5c3.4-5.4,3.6-12.9,7.7-17.7c4.5-5.3,12.6-9.3,18-14c9.6-8.3,18.7-17.2,28.5-25.3
		C264.9,178.7,271.8,174,278.8,169.5z M193.5,269.6c-4.3,0.1-9.1-0.1-14.7-0.6c0-7.2,6.2-10.7,11.6-14.3c1-0.6,2.1-1.3,3.3-1.9
		C191.9,258.4,192.9,263.9,193.5,269.6z M187.7,252c-1.6,1.3-16.5,16.3-9,17c-0.9-0.1-1.9-0.2-2.8-0.2c-1.6-0.1-3.2-0.3-4.6-0.4
		c1.5,0.1-0.2-18.7-0.4-20.4c-1-8.3,0.9-7.6,8.5-10.2c4.2-1.5,26-6.9,27.2-11.3C203.4,238.3,196.7,244.6,187.7,252z M154,191.4
		c9.5-0.1,19.3-0.3,29.2-1.5c3.6-0.4,7.5-1.1,10.8-1.2c-5.6,10.3-11.6,14.5-22.4,18.7c-5.6,2.2-11.2,6.8-16.8,9.6
		c12.3-6.2,23-9,34.3-17.5c-1.2,0.9-1.9,2.6-2.2,4.4l1.3-2.1c-1.4,3.2-2,6.7-0.6,9.8c1-1.7,1.5-3.6,1.9-5.5
		c1.7-7.4,4.8-13.1,8.6-19.5c-1.5,7.2,6,20.1,1.4,25.7c9.5-11.6-7.7-18.7,5.9-26.1c8.6-4.7,24-5.3,33.7-7.1
		c-7.2,1.4-21.4,22-27,26.5c-10.2,8.2-22.1,15.7-37.5,18.2c-8.3,1.3-21.1,0.9-33.8-1.3c-1.8-0.1-3.6-0.4-5.3-1
		c-6.1-1.3-12.1-3-17.4-5c0.1-0.2,0.1-0.3,0.2-0.5c0.6,0.4,1.4,0.4,2.1-0.2c6.1-5.4,14.6-7.8,21.4-12.4c0.1,2.5,0,5-0.5,7.4
		c-0.6,2.8-3.3,5.7-5.3,7.5c1.8-1.6,5-0.8,7.4-4.2c2.9-4.1,0.1-9.1,2.2-13.2C147.9,196.9,153.2,197,154,191.4z M150.2,191.6
		c-1.5,5.6-11.4,9.9-16.1,12.4c-5.4,3-13.3,9.5-18.7,9.7c-6.4,0.2-14.7-7.3-16.5-12.9c2,6.3,7.5,11.8,14.9,16.2
		c-1.5,2.1-3.8,3.8-5.4,5.5c-5.5,6.1-10.7,4.5-17.8,7.3c-4.4,1.7-8.5,3.7-12.7,6c-3.7,2-7.3,4.3-10.6,6.9c-0.5,0-0.9,0-1.4,0
		c-1.6-4.9-4.2-9.2-7.3-13.5c-2.1-3-6.7-5.7-8.3-8.5c-2.4-4.4,2-5.8,5.4-8c3-1.9,5.7-4.3,8.8-5.9c3.5-1.8,7.5-3.4,10.9-5
		c4.1-1.9,7.8-5.2,12.2-6.6c8.4-2.7,17.9-4.6,26.5-6.3C126.5,186.6,138.2,190.8,150.2,191.6z M110.9,239.3c0.8,1.6,1.6,3.3,2.6,4.9
		c-5.9-0.1-11.8-0.3-17.6-0.5c1.6-5.2,5.4-9.4,9.2-13.1c1-1,2.3-2.1,3.6-3.2C108.5,231.6,108.9,235,110.9,239.3z M90.8,273.2
		c0,0.1,0,0.1,0,0.2c-1.3,0-2.7,0.1-4.2,0c-11.8-0.2-23-2.5-34.1-5c1.1-3.2,2.5-6.3,4.4-9.4c2-3.3,4.5-6.2,7.3-8.9
		c0.3,3.2-0.3,8.5,0.2,13c0,0.5,0,1,0,1.4c0,0.6,0.2,1,0.5,1.2c0.8,3,2.5,5.2,5.8,5.7c-5.6-0.8-2.7-20.7-3.4-24.1
		c1.6-1.3,3.3-2.6,5.1-3.8c6.5,0.6,13,1.6,19.3,2.5c-1,4.5-1.3,9.2-1.4,13.8C90.1,264.5,89.7,268.6,90.8,273.2z M48.3,214.8
		c-0.4-0.5-0.7-1.1-1-1.7c-7-11.8-3.6-25.4,9.1-28.8c7.5-2,16.3-2.2,24-1.4c5.7,0.6,18.1,6.5,23.3,4.9
		c-17.2,5.4-31.1,10.5-45.9,19.3C55,208.9,51.8,211.6,48.3,214.8z M41.7,244.2c2.2-4.8,5-9.3,7.6-13.9c0.9-1.4,1.6-3,2.4-4.5
		c3.6,4.8,7.2,9.6,9.9,15c0.3,0.7,0.6,1.4,0.9,2c-2.1,0-4.2,0-6.2,0.1c0,0-0.1,0-0.1,0c2.1-0.1,4.3,0,6.4,0c0.4,1,0.7,2.1,1,3.2
		c-2.8,2.5-5.4,5.2-7.7,8.2c-3.1,4-5.3,8.5-7,13.3c-4.2-1-8.4-2-12.6-2.9C36.8,257.8,38.5,251,41.7,244.2z M36.8,280.9
		c-0.7-5.2-0.9-10.2-0.6-15.1c3.9,1.2,8,2.5,12.1,3.8c-1.1,3.5-1.9,7.1-2.4,10.7c-0.8,5-1.2,9.9-3.6,14.4c-0.7,1.4-1.7,2.6-2.7,3.8
		C38.7,292.7,37.6,286.8,36.8,280.9z M40.8,326.5c0.9-3,0.6-6.5,0.5-9.8c0.5,0.5,1,1,1.6,1.6c2,1.9,3.9,4,5.8,6.1
		C46.1,325.2,43.5,325.9,40.8,326.5z M90.6,292.9c-1,3.8-2.4,7.4-4.3,10.9c-10.2,8.1-21.7,15-34.3,19.5c-1.4-1.4-2.8-2.8-4.1-4.3
		c-1.9-2.1-6.3-5.8-6-8.9c0.1-0.9-0.5-1.5-1.2-1.6c-0.2-1.8-0.4-3.7-0.6-5.5c1.5-1.6,3-3.2,4.2-5c2.4-3.5,3.4-7.4,4.1-11.5
		c0.9-5.5,1.8-10.6,3.3-15.7c13.5,4.3,27.3,8.4,40,8.5C92.2,283.8,91.9,288.2,90.6,292.9z M73.4,242.9c2.7-1.8,5.5-3.4,8.2-4.9
		c4-2.2,8.1-4.2,12.6-5c1.3-0.2,3.3-0.5,4.9-1.1c-0.5,0.6-1.1,1.2-1.6,1.8c-2.5,3-4.1,6.4-5.2,10C86,243.3,79.7,243.1,73.4,242.9z
		 M92.5,298.7c0.8-2.2,1.4-4.5,2-6.7c1.2-4.4,1-8.6,0.6-12.8c9.8-0.5,18.7-3.7,26.1-11.4C113.7,277.6,104,288.7,92.5,298.7z
		 M94.3,273.2c-0.5-3.8-1-7.6-0.7-11.5c0.4-5.2,0.6-10.1,1.5-15.2c0.4,0.1,0.8,0.1,1.1,0.2c6.8,0.9,13.6,1.7,20.2,2
		c1.9,2.7,4,5.3,6,7.8c0.5,0.5,0.9,1.1,1.4,1.6C116.2,264.9,110,271.8,94.3,273.2z M126.7,255.7c-1.9-2.2-3.8-4.4-5.4-6.9
		c8,0.1,16-0.7,23.8-2.9C136.7,248.3,131.3,251.9,126.7,255.7z M132.7,243.8c-4.9,0.3-9.7,0.4-14.6,0.4c-1.5-2.2-3-4.3-4.3-6.7
		c-2.4-4.4-1.9-8.3-1.4-13c0-0.2,0-0.3,0-0.5c1.7-1.6,3.4-3.4,4.5-5.2c21.7,11.3,56.7,14.7,76.5,5.1
		C172.3,234.3,159.8,242.1,132.7,243.8z M169.5,281.6c0.4-2.8,0.9-5.8,1.3-8.9c5.1-0.1,10.7,0,16.5-0.3c2.2-0.1,4.3-0.2,6.5-0.4
		c0.2,1.9,0.2,3.8,0.1,5.7c0.9-1.9,1.4-3.9,1.9-5.9c7.5-0.6,14.8-1.6,21.8-3.9c-12.1,13-40,16.9-51.7,29.3
		C167.4,292.2,168.6,287,169.5,281.6z M146.4,337.1c-0.7,2.1-2.3,7-3.8,12.6c-4.8,2-9.7,3.9-14.9,5.4c0.5-0.5,1.1-1.1,1.6-1.6
		c5.9-5.8,11.9-11.2,17.4-17.4C146.7,336.4,146.5,336.7,146.4,337.1z M147.1,347.7c1.8-7.3,4.3-14.2,7.2-21.1c1.3-2,2.3-4.2,2.8-6.4
		c1.2-2.7,2.3-5.4,3.4-8c0.5,1.8,1,3.6,1.8,5.4c1.5,3.2,3.1,6.3,5.1,9.2c1.7,2.6,3.8,4.9,5.9,7.1
		C164.8,338.6,156.2,343.5,147.1,347.7z M191.8,349.3c-0.1-0.1-0.1-0.2-0.2-0.3c-3.6-4.6-7.5-8.8-11.4-13.1c0.2-0.7,0.4-1.4,0.5-2.2
		c8.3-4.1,17.1-8.2,27.2-12C199.1,330.8,194.4,339.6,191.8,349.3z M247.8,303.3c-5.6,7.1-24.8,7.4-34.2,10.7
		c-11.9,4.1-22.4,9.9-32.8,15.7c-1.4,0.8-2.8,1.6-4.3,2.4c-1-1.1-2-2.2-3-3.3c-3-3.4-5.4-7.3-7.4-11.4c-1.6-3.3-2.2-6.9-3.6-10.2
		c0.7-2,1.5-3.9,2.1-5.9c10.3-6.6,44.4-19.5,49.2-22.7c7.9-5.2,13.4-11.4,18.2-17.9c-0.5,14.4-7.4,27.1-17,37.7
		c-6.5,7.2-22.7,23.8-32.6,27.2c12.7-3.9,29.5-17.9,37.7-27.7c8.2-9.8,13.9-20.9,15.2-33.3c1.9,4.6,4.6,9.1,7,13.8
		C245.6,284.6,252.7,297.2,247.8,303.3z M283.3,208.4c-2.3,3.2-5.6,4.4-13.3,7.6c-15.2,6.3-26.7,14.9-34.4,26.2
		c-4.7,6.8-8.5,12.3-12.6,16.5c0.7-8.2-1.6-19.2,2.5-26c3.6-5.9,10.2-13.2,15.7-17.4c12.4-9.4,26.3-18.8,36.4-30.4
		c7.8-8.9,3.1-16.4,14-23.3c8.2-5.2,16.4-10.2,24-16.3c16.3-13.2,26.9-30.1,29.7-51.1c-0.1,13.6-2,33.1-9.6,44.8
		c-6.1,9.3-16.5,11.5-26.4,14.9c-4.9,1.7-9,6-12.6,9.6c-7,7-5.7,13.2-9.4,21.1c2.4-5,5.9-10.1,8.9-14.9c3.7-5.8,10.1-12.1,17.1-13.1
		c-4.4,4.7-7.7,10.8-10.2,16.8c7.1-9,15.1-17.2,25-23.2c1.6-1,3.6-2,5.5-3.2c-3.2,8.6-6.5,19.4-11.7,27c-5.3,7.7-8.2,5.9-17.3,8.1
		c-6.5,1.6-12.6,4.7-18.1,8.3c-5.1,3.3-10.1,6.8-14.9,10.5c-8.2,6.3-19.8,11.1-27.1,18c4.7-4.5,18.3-5.9,24.8-11.4
		c5-4.3,10.1-8.2,15.6-11.9c2.4-1.6,4.7-3.1,7.1-4.4c-1.5,2.3-3.2,4.6-4.2,7.3C285.9,203.5,284.8,206.3,283.3,208.4z M289.7,208.7
		c0.2-0.8,0.3-1.5,0.4-2.3c0.4-3.5,0.6-6.8,2.5-9.9c1.6-2.6,3.4-5.1,4.7-7.8c6-2.7,12.3-4.4,19.4-4.6c-0.9,1.8-1.8,3.5-2.8,5.1
		C307.7,200.8,300.2,204.8,289.7,208.7z M279,355.4c-4,10.9-14,20.7-25.9,28.1c-7.1,4.4-16,8-24.1,12c-1.4-6.6-2.5-14.1-5.8-19.8
		c4.8-4.4,10.9-6.8,16.6-9.8c6.2-3.2,11.2-7.2,16.1-12.2c4.9-4.9,9.1-10.5,13.1-16.2c0.3-0.4,0.5-0.8,0.7-1.2
		c-0.3,1.1-0.5,2.2-0.8,3.3c-2,7-5.1,14.1-8.9,20.4c-5.8,9.4-12.5,18.2-19.1,27.1c10.4-4.3,17.6-17.9,23.2-27
		c4-6.5,6.7-14.3,8.9-21.6c2.1-7.4,2.2-14.8,1.2-22.4c-0.4-3.2-0.7-6.3-1-9.5c-0.1-0.7-0.3-1.2-0.6-1.8c0-0.1,0-0.2,0-0.4
		c-0.2-2-0.6-3.7-1.2-5.6c-1.3-3.6-1.1-7.1-1.1-10.9c0-6.9,0.9-13.7,2.6-20.3c1.8-6.8,5.6-12.7,10.4-17.8c1.9-2,4.2-3.6,6.5-5
		c-5.9,16-11.7,32-11.4,48.5C278.6,315.5,287.1,333.2,279,355.4z M289.9,340.9c-0.2-0.6-0.4-1.3-0.5-2c-1.2-6.2,0.7-15.1,1.5-21.4
		c-0.6,5,13.5,15.4,22.8,24.4c-0.3,0.6-0.6,1.2-0.9,1.8c-3,6.1-6.6,11.9-10,17.7c-0.9-2.1-1.9-4-3-5.9
		C296.9,350.6,291.8,346.3,289.9,340.9z M301.6,370c0.9,5.7-0.1,11.3-2.9,16.6c-0.9,1.8-3.9,6.9-6.1,8.8c-0.1,0-0.1,0-0.2,0.1
		C294.3,386.5,297.6,378,301.6,370z M321.3,351.9c3.9,12.9-2.4,30.3-14.5,40.4c-5.2,4.3-10.4,8.5-15.7,12.6
		c0.4-5.4,5.7-9.6,8.8-13.7c3.8-4.9,5.6-11.1,5.6-17.2c0-2.9-0.5-5.8-1.4-8.7c2.8-5,6-9.6,8.8-14.6c1.2-2,2.2-4.1,3.2-6.2
		C318.8,347.2,320.7,349.8,321.3,351.9z M317.8,333.1c-3.9-3.8-8.1-7.5-11.7-11.3c-5.3-5.7-9.2-11.7-11-18.2
		c2.5,2.9,5.9,5.3,8.4,7.5c5.6,4.8,11.5,9.2,17.5,13.5C320.1,327.4,319,330.3,317.8,333.1z M322,320.9c-1.6-1.1-3.1-2.1-4.7-3.2
		c-4.5-3.2-8.8-7-13-10.6c-9.3-7.9-14.7-15.1-5.8-26.4c1.4-1.7,11.6,7.2,22.9,18.2c0,0.2,0,0.4,0.1,0.6
		C324.1,306.7,323.8,313.9,322,320.9z M321.6,279.1c-2.3-11.5-3.2-23.2-1.2-35c2.5-14.4,10.3-24.5,20.2-33.5c-0.4,2.6-0.5,5.4-0.3,8
		c-0.5,8.7-6.7,12.3-10.6,19.2c-2.9,5.2-3.4,11.8-3.2,17.6c0.3,6.6,2.5,13.2,5.2,19.1c2.2,4.8,4.1,10.6,9.2,12.7
		c-5.1,0.1-10.4-1.2-15.3-4.6C324.1,281.5,322.7,280.3,321.6,279.1z M325.4,323.2c1-4.1,1.6-8.3,1.6-12.6c1.9,5.9,4,11.8,6,17.7
		C330.4,326.6,327.9,324.9,325.4,323.2z M341.4,334.4c-1.2-0.9-2.4-1.8-3.5-2.6c-0.6-1.9-1.3-3.8-1.9-5.7
		c-2.1-6.4-4.3-12.7-6.4-19.1c12,12.2,23.2,24.6,24.6,27.5c1.5,2.9,2.6,5.6,3.5,8.3c-0.7,0.9-1.5,1.8-2.2,2.7
		C350.7,341.5,345.9,337.8,341.4,334.4z M336.5,399c-4.7,6-10.6,14.1-13.8,22.2c-0.4-11.3,1.9-22.8,6.7-33.7c2-4.5,4.5-8.7,7.2-12.7
		c0.7,5,4,10,7.5,14.4C341.7,392.3,339.1,395.5,336.5,399z M346.4,386.1c-3.3-4.2-6.7-9.3-6.5-14.1c0-0.6-0.2-1-0.5-1.3
		c2.1-2.9,4.4-5.7,6.6-8.5c3.1-3.8,6.2-7.7,9.3-11.5c1.5,1.4,3,2.8,4.4,4.2C359.7,366,354.4,375.4,346.4,386.1z M361.9,403.4
		c-3.5-3.5-6.9-7.1-10.1-10.8c3.4-6.1,9.8-11.6,14-20.2c3.1,11.9,6.1,23.9,8.2,35.9c0.5,2.8,0.9,5.6,1.4,8.4
		C371,412.2,366.3,407.8,361.9,403.4z M371.9,373.4c-0.5-1.7-0.9-3.5-1.2-5.3c3.4,5.8,5.2,12.2,6.2,18.8
		C374.8,382.4,373.1,377.8,371.9,373.4z M377,394.3c0.2,0.3,0.4,0.6,0.6,0.9c0.2,2.7,0.2,5.4,0.3,8.1
		C377.6,399.8,377.3,396.8,377,394.3z M440.7,410.4c-0.1,0.5-0.1,1.1,0,1.6c-0.8,2.1-1.5,4.2-2.1,6.4c-4.7-1.3-9.3-2.8-13.8-4.4
		c4.8,1.7,9.3,3.3,13.7,4.6c-0.7,2.2-1.3,4.4-1.8,6.7c-0.5,2.3-0.9,4.7-1.1,7c-26.5-2.5-43.9-18.8-54.3-36.6
		c-0.6-9.2-2.2-18.2-6.1-26.6c-1.6-3.3-3.6-6.4-5.9-9.4c-0.9-7.2-1.6-14.5-3.4-21.5c2-2.2,4.1-4.4,6.4-6.2
		c1.7,4.3,2.8,10.2,1.3,14.9c2.7-8.5,4.3-9.4,1.7-18.4c2-2.2,3.8-4.5,5.2-6.9c1.4,2.4,2.8,4.8,4.3,7.1c-4.1,15.6-19.4,32.9,1.5,43.3
		c-13.9-7.2-4-22.9,2.3-36.7c1.3,6.7,7.4,11.9,8.6,18.1c1.3,6.8-3.4,11.7-4.2,18.2c-0.8,6.4,0.2,12.3,1.9,18.4
		c1.4,4.7,3.5,9,6.5,12.9c5.5,7,14.4,14.1,20.9,20.5c-4.9-10.6-9.4-13.6-17.2-21.7c-4.6-4.8-6.6-11.4-8-17.6
		c-1.7-7.6-0.5-14.6,2.3-21.7c0.5-1.3,0.9-3.1,0.8-4.6c0.2,4.1,3.9,7,3.3,11.9c-0.5,4.2-2.1,7.3-1.1,11.9c-0.8-3.7,3.1-6.8,4.1-9.8
		c1.5-4.6-0.5-9.5-2.3-13.7c-2.4-5.7-6.3-10.2-9.1-15.3c3.5,2.6,8.8-0.5,12.8,1.6c-7.2-3.7-11.2-3.7-16.2-10.6c-0.2-1-0.3-2-0.3-3.1
		c0-0.5-0.2-0.9-0.5-1.2c1.4-4,2.1-7.6,1.2-10.6c6.8,3.8,19.3,11.9,16.9,19.4c5-15.5-16.5-30.3-33-37.8c-0.9-0.4-1.8-0.8-2.8-1.2
		c-0.2-0.6-0.5-1.1-0.7-1.7c-2.5-6.4-4.4-13-5.7-19.6c2.5-5.7,2.6-12.1,0.4-17.2c1.5,3.9,0.9,8.1-1.3,12c-0.7-5.1-1-10.3-0.8-15.4
		c0.8,1,1.5,2.2,2.1,3.4c-0.5-1.2-1.2-2.4-2.1-3.5c0.1-3.7,0.5-7.5,1.2-11.2c3.7,0,7.3,0,10.9-0.1c-4.8,6.6-6.7,16.4-6.7,23.8
		c0,5.2,1.8,8.2,4.7,12.4c7.2,10.5,13.3,16,23.3,23.9c-10.9-8.6-15.9-18.3-23.2-30.3c-2.7-4.5-1.2-12.5,0.2-17.1
		c1.2-3.8,3.6-9.7,6.7-13c0.9-0.1,1.8-0.1,2.6-0.2c2.2-0.2,4.3-0.5,6.3-0.8c-8.2,7.8-6.9,17.4-1.8,26.5c5.5,9.9,12.1,19.4,17.9,29.2
		c-1.6,8.1-1.5,16.3,2.4,25.2c1.6,3.8,3.4,7.7,5.1,11.5c-1.1,3.4-3.1,6.8-4.6,10.1c-3.8,8.1-2.2,8.7,0.8,17.1
		c-2.8-8.1,0.8-11.7,3.7-18.6c0.7-1.5,1.4-3,2-4.4c1.3,2.8,2.6,5.5,3.9,8.3c0,0.1-0.1,0.2-0.1,0.3c-2.9,8.6-12,33.1-21.4,38.6
		c9.4-5.5,16.5-13.9,21.4-22.7c-0.8,4.2-1.7,8.4-1.9,12.8c-0.7,15,11.9,18.2,18.2,27.6c-6.8-10.2-16-19.5-14.2-32.8
		c0.7-5.1,2-9.9,2.7-14.9c0.7,1.2,1.4,2.5,2.1,3.8c3.2,6.6,9.2,8.9,12.5,16.2c0.5-7.5-7.3-13.9-10.5-20.2c-0.9-1.7-1.8-3.4-2.8-5.1
		c0.4-2,0.8-4,1.1-6c0.5-2.2,0.8-4.3,0.9-6.5c0-0.2,0-0.3,0.1-0.5c0.9-7.5,2.4-14.9,2.9-22.4c0-0.2,0-0.4,0-0.6c0-0.8,8,6.9,8.5,7.7
		c2.4,3.8,4,8.1,5.7,12.3c3.8,9.1,1.5,14.2,1.2,24c-0.1,4.6,1.9,14.2-1.7,17.9c4.5-4.6,4.3-17.1,4.9-23.2c0.5-4.8,0.5-10.3-0.2-15.1
		c-0.9-5.5-3.3-10.1-6.2-14.9c-0.7-1.2-1.4-2.6-2.3-3.8c7.7,3.5,16.2,7,23.8,10.4c5.4,9.8,4.8,14.6,1.3,25.3
		c-2.6,7.8-8.8,14.7-12.6,21.9c-2.1,4-3.8,8.1-5.5,12.3c-1.2-1.2-2.5-2.5-3.8-3.7c-5.1-4.8-11-7.6-17.3-12
		c6.4,4.6,12.9,11.9,19.9,18.9c-1,2.5-1.9,4.9-3,7.3c-1,2.2-1.9,4.5-2.8,6.8C441.2,409.2,440.8,409.7,440.7,410.4z M382.4,317.7
		c0.5-1.3,0.8-2.7,0.8-4.1c2.1,3.1,2.7,6.5,2.5,9.9c-0.6-1.1-1.1-2-1.4-2.5C383.7,319.9,383,318.8,382.4,317.7z M477.9,353
		c0.8,4.6,1,9.3,0.9,13.5c-0.2,15.4-10,27.2-2.8,41.7c-0.3-10.1,1.4-17.6,4.1-27.3c1.8-6.7,2.4-13.5,2.1-20.4c0,0,0,0,0-0.1
		c2.1,3.7,4,7.4,5.8,11.3c2.1,4.5,3.6,9.2,5,14.1c-1.5,2.2-3.3,4.4-5.4,6.7c2.1-1.7,4.1-3.3,5.9-5c1.2,4.5,2.3,9.1,3.5,13.6
		c0.6,2.4,1.1,4.8,1.5,7.1c-6.9,2-14.6,2.3-22.6,0.4c-11.8-2.8-17.9-7.9-24.2-14c2.1-5.1,3.9-10.2,6.5-15.1
		c3.4-6.5,7.9-12.3,11.2-18.9c1.5-3,4.4-9,4.7-13.9C475.3,348.8,476.6,350.9,477.9,353z M475.8,337.2c2.8,1.5,5.2,3,7.1,4.5
		c16.2,12.9,20.2,26.2,12.4,40.3c-2.6-11.2-8.3-21.5-14.5-31.5C479.9,345.7,478.3,341.1,475.8,337.2z M441.9,419.3
		c0.3-0.8,0.5-1.7,0.8-2.5c0.8,1,1.5,2.1,2.2,3.2C443.9,419.8,442.9,419.5,441.9,419.3z M444.4,412c1.8-4.8,3.8-9.5,5.9-14
		c0.1-0.1,0.1-0.2,0.2-0.4c12.8,12.2,27.8,22.4,48.6,14.4c0.1,0.8,0.1,1.6,0.2,2.4c-14.1,9.6-32,10-49.7,6.6
		C447.9,418.8,445.1,414.9,444.4,412z M490,458.7c-3.6-3.6-7.3-7.1-11.2-10.4c-6.6-5.7-13.5-11.2-20.1-16.9
		c-3.3-2.8-6.1-5.9-8.5-9.4c18.2,4.4,33.4,4.5,49.2-3.1c0,5.3-0.5,10.7-1.5,16.2c-0.7,4.2-1.7,8.4-2.9,12.6
		C492.8,451.2,491.1,454.9,490,458.7z M493.2,461.7c1.8-3.5,3.1-7.2,4.3-11c1.3-2.1,2.7-4.2,4-6.3
		C500.6,450.8,497.2,456.5,493.2,461.7z M503.7,434.3c-1,1.4-2.1,2.9-3.1,4.4c1.6-7.1,2.5-14.5,2.3-21.8c2-1.1,4.1-2.4,6.2-3.8
		c-1.2,2.1-2.4,4.3-3.3,6.6C504,424.5,503.5,429.3,503.7,434.3z M502.5,410.5c1.2-0.6,2.4-1.2,3.6-1.8c-1.1,1.1-2.3,2.2-3.4,3.1
		c0-0.3,0-0.6-0.1-0.9C502.5,410.8,502.5,410.7,502.5,410.5z M520,408.2c-2.9,6-6.3,11.7-10,17.2c-0.9,1.3-1.8,2.6-2.7,4
		c0.9-7.8,5.2-14.1,8.6-21.4c1.5-1.2,3-2.5,4.6-3.9C520.2,405.5,520,406.9,520,408.2z M518.4,396c-4.3,4.8-10,8.7-16.5,11.1
		c-1.4-7.5-3.9-14.8-5.8-22.1c10.9-11.4,12.7-22.7,1.6-37.4c-7.3-9.7-19-15.7-31.6-21.1c-2.9-5.1-5.9-10.3-8.7-15.6
		c0.1,0.1,0.3,0.1,0.4,0.1c0,0.4,0.2,0.8,0.6,1.2c5.3,4.5,9.5,9.9,15.1,14c6.6,4.8,13.7,9.2,20.6,13.6c7.2,4.7,14.4,9.3,20.3,15.6
		c1.2,1.3,2.4,2.6,3.5,4c0.4,13.7,0.7,21.1-4.9,33.5c5-11,7.9-17,8.2-29.4c2.8,3.8,5.2,7.8,6.6,11.9c0.5,1.4,0.7,2.8,0.8,4.3
		C526.6,385.4,523.1,390.8,518.4,396z M530.5,372.5c-1.9-5.2-5.8-9.7-9.3-14.1c-0.1-2.2-0.2-4.4-0.5-6.7c-1.2-8.5-6-16.1-11.3-22.7
		c-12.6-15.7-28.3-24.6-46.9-31.6c-0.3-0.1-0.6-0.1-0.8-0.1c-1.3-1.1-2.7-2.2-4.1-3.2c-3.3-2.4-6-5.5-8.7-8.5
		c-0.3-3.5-0.3-7.1-0.2-10.7c14.2,12.3,33.4,22.3,50.5,31.8c23.3,13,27.8,34,31.2,54.6C531.1,365.1,531.1,368.8,530.5,372.5z
		 M545.6,354.9c-2.7-1.7-8.7-4.9-9.6-8.6c0-0.2-0.1-0.4-0.1-0.5c0-0.1,0-0.3,0-0.4c0-0.3-0.1-0.6-0.2-0.8c-1.6-9-4.5-19.2-9.4-21.1
		c9.3,3.6,19.3,10.3,27.3,17.9c-0.2,5.7-0.1,11.4,0.2,17.2c0,0.8,0.1,1.5,0.1,2.3C551.3,358.6,548.5,356.7,545.6,354.9z
		 M564.1,352.2c-2-3.5-4.4-6.9-7.1-10.2c0.2-6.4,1.3-12.7,2.9-18.9c0.3-1,0.5-2,0.8-2.9c1.8-0.5,3.5-1.1,5.2-1.6
		C565.1,329.7,564.1,340.9,564.1,352.2z M566.1,316.9c-1.6,0.9-3.3,1.7-5.1,2.4c0.8-2.6,1.8-5.1,2.9-7.5c0.9-2.1,1.5-4.6,3-6.3
		C566.7,309.3,566.4,313.1,566.1,316.9z M567.4,297.1c0,1.3-0.1,2.6-0.2,3.9c-6.2,3.4-8.5,13.2-10.3,19.8c-2.7,0.9-5.5,1.7-8.3,2.2
		c2.7-0.5,5.5-1.1,8.2-1.8c-0.1,0.3-0.2,0.6-0.3,0.9c-1.5,5.3-2.3,10.7-2.7,16.1c-19.4-21.7-51.2-40.5-76.5-55.4
		c-15.6-9.2-24.7-19-29.8-31.6c11.8,12.2,26.9,19.8,40.3,29.4c1.7,1.2,3.5,2.4,5.3,3.5c5.7,3.5,9.3,7.4,13.3,12.8
		c-6-8.2-4.9-11.6-14.3-17.6c-4-2.6-7.7-5.6-11.5-8.4c2.1,0.1,4.2,0.2,6.3,0.1c9.5-0.2,13.2-0.2,16.6,10c0.2-16.7-9.9-13-22.4-13.7
		c-5.3-0.3-10-2-14.3-4.4c5.4-0.9,19.9-5.5,24.7-0.5c-7.6-8.1-17.4-4.2-26.9-2.7c-0.7,0.1-1.1,0.5-1.2,1c-6.7-4.7-12.4-11.2-18.2-17
		c0,0-0.1-0.1-0.1-0.1c-0.2-0.8-0.4-1.6-0.6-2.4c-3.2-14-7.7-27.3-18.7-39.2c-0.6-0.7-1.3-1.3-1.9-2c-3-5.2-6.5-10.2-9.9-15.1
		c-2.3-3.2-4.3-6.4-6.4-9.7c6.2,3.7,12.4,7.5,17.3,12.9c16.8,18.5,21.3,40.4,45.2,56.2c8.2,5.4,17.8,9.8,28.2,12.6
		c3.8,3.2,8.2,5.7,12.4,8.6c-0.2,0.4-0.2,0.9,0.1,1.4c3.8,8.1,2.3,16,3,24.6c1,11.7,11.9,15.5,22.2,17.1c-14-6.9-19.2-9-18.8-26.1
		c0.1-4.9-0.3-9.1-1.7-13.4c0.7,0.6,1.3,1.2,2,1.9c-0.5,0.5-0.7,1.3-0.4,2.1c0.9,1.9,2.5,3.1,4.4,4.1c1.2,3.2,1.4,6.5,1.7,10.1
		c0.6,7,4.8,9.4,7,15.9c-2.7-7.9-3.1-13.5-3.9-21.7c-0.1-0.9-0.3-1.7-0.5-2.6c2.1,0.7,4.1,1.3,5.8,2.1c12.4,6.4,17.5,15.5,17.7,29.2
		c8.1-15.4-5.5-27.2-18.3-33.5c-1.9-0.9-4.5-1.3-6.7-2.2c-0.7-1.3-1.4-2.6-2.3-3.8c-3.7-5.3-9.5-8.5-14.9-12
		c0.4,0.1,0.8,0.2,1.3,0.3c11.9,2.1,24.4,1.7,36.7,2.1c0.3,0.2,0.6,0.3,1.1,0.3c5.3-0.3,10.2,2.7,14.5,6.4c-0.3,0.3-0.5,0.7-0.5,1.3
		c-0.1,5.4-1.6,11.8-0.6,17.1c0.9,4.6,4.5,6.7,5.6,9.7c-1.6-4.5-2.1-9-2-13.8c0.1-3.8,0.4-7.6,0.5-11.5c0.9,0.8,1.7,1.6,2.5,2.4
		C567.2,281.1,567.6,289.3,567.4,297.1z M570.8,285.1c-0.1-2.4-0.4-4.8-0.7-7.1c2.3,3.2,3.6,6.7,2.9,11.1c-0.5,3.4-1.7,6.5-2.1,9.9
		c0,0,0,0-0.1,0C571,294.3,571,289.7,570.8,285.1z M580.9,326.1c-1.4-3.3-3.3-7.9-5.8-11.2c5.6-2.6,10.6-5.6,14.5-9.1
		c-0.4,5.4-1.8,10.3-4.9,15.3C583.6,322.8,582.1,324.4,580.9,326.1z M595.7,277.8c4.2,8,9.6,14.9,14.2,22c-1.1,0.2-2,1.4-1.2,2.6
		c4.2,6.9,1.1,16.8-2.3,23.2c-4.7,8.8-17.3,16.9-12.2,28.1c1.2-9.1,6.1-10.8,10.5-18.3c2.3-3.9,4.9-7.7,6.7-11.9
		c2.1-5,3.5-11.4,2.5-17.1c3.2,6.1,5.4,12.7,5.2,20.3c-0.3,17.4-10.4,32.5-21.6,47.5c-2.9-6.3-5.4-12.7-7.3-19.1
		c-2.5-8.4-4.5-17-7.7-25.1c1-1.6,2.4-3,3.5-4.4c1.8-2.4,3.2-5.1,4.5-7.8c2.4-5.2,2.8-10.2,2.8-15.7
		C598.9,295.2,600.6,287,595.7,277.8z M573,312.7c-0.9-0.8-1.8-1.4-2.9-1.7c0.3-3.7,0.5-6.5,1.8-9.5c2.8-6.3,5.4-10,4.8-17.4
		c-0.3-4.2-3.2-7.8-5.9-10.9c-0.6-0.7-1.2-1.3-1.8-2c-0.5-2.6-1.1-5.1-1.9-7.6c0.3,0.1,0.5,0.1,0.8,0.2
		C603.9,271.9,594.8,297.7,573,312.7z"/>
</g>
</svg>
