<?xml version="1.0" encoding="utf-8"?>
<svg id="brand-icon" viewBox="0 0 389.8736267089844 556.9210205078125" version="1.1" xmlns="http://www.w3.org/2000/svg" x="0px" y="0px" enable-background="new 0 0 1400 980" width="389.8736267089844px" height="556.9210205078125px"><rect id="ee-background" x="0" y="0" width="389.8736267089844" height="556.9210205078125" style="fill: white; fill-opacity: 0; pointer-events: none;"/>

<g transform="matrix(1, 0, 0, 1, -904.862678527832, 0)">
		<path d="M 1166.5 230.199997 A 56 56 0 0 1 1110.5 286.199997 A 56 56 0 0 1 1054.5 230.199997 A 56 56 0 0 1 1110.5 174.199997 A 56 56 0 0 1 1166.5 230.199997 Z" fill="#69BD45"/>
		<path fill="#FFFFFF" d="M1110.5,289.1c-32.4,0-58.8-26.4-58.8-58.8s26.4-58.8,58.8-58.8c32.4,0,58.8,26.4,58.8,58.8&#10;&#9;&#9;&#9;S1142.9,289.1,1110.5,289.1z M1110.5,177c-29.3,0-53.2,23.9-53.2,53.2s23.9,53.2,53.2,53.2c29.3,0,53.2-23.9,53.2-53.2&#10;&#9;&#9;&#9;S1139.8,177,1110.5,177z"/>
	</g><path d="M 1072.099998 272 A 36.599998 36.599998 0 0 1 1035.5 308.599998 A 36.599998 36.599998 0 0 1 998.900002 272 A 36.599998 36.599998 0 0 1 1035.5 235.400002 A 36.599998 36.599998 0 0 1 1072.099998 272 Z" fill="#96C93D" transform="matrix(1, 0, 0, 1, -904.862678527832, 0)"/><path fill="#FFFFFF" d="M1035.5,311.5c-21.8,0-39.5-17.7-39.5-39.5s17.7-39.5,39.5-39.5s39.5,17.7,39.5,39.5&#10;&#9;&#9;&#9;S1057.2,311.5,1035.5,311.5z M1035.5,238.2c-18.7,0-33.8,15.2-33.8,33.8c0,18.7,15.2,33.8,33.8,33.8c18.7,0,33.8-15.2,33.8-33.8&#10;&#9;&#9;&#9;C1069.3,253.4,1054.1,238.2,1035.5,238.2z" transform="matrix(1, 0, 0, 1, -904.862678527832, 0)"/><path d="M 1256.300049 244.300003 A 49 49 0 0 1 1207.300049 293.300003 A 49 49 0 0 1 1158.300049 244.300003 A 49 49 0 0 1 1207.300049 195.300003 A 49 49 0 0 1 1256.300049 244.300003 Z" fill="#96C93D" transform="matrix(1, 0, 0, 1, -904.862678527832, 0)"/><path fill="#FFFFFF" d="M1207.3,296.1c-28.6,0-51.8-23.2-51.8-51.8s23.2-51.8,51.8-51.8c28.6,0,51.8,23.2,51.8,51.8&#10;&#9;&#9;&#9;S1235.9,296.1,1207.3,296.1z M1207.3,198.1c-25.5,0-46.2,20.7-46.2,46.2s20.7,46.2,46.2,46.2c25.5,0,46.2-20.7,46.2-46.2&#10;&#9;&#9;&#9;S1232.8,198.1,1207.3,198.1z" transform="matrix(1, 0, 0, 1, -904.862678527832, 0)"/><path d="M 1207.300026 140.800003 A 76.400002 76.400002 0 0 1 1130.900024 217.200005 A 76.400002 76.400002 0 0 1 1054.500023 140.800003 A 76.400002 76.400002 0 0 1 1130.900024 64.400002 A 76.400002 76.400002 0 0 1 1207.300026 140.800003 Z" fill="#69BD45" transform="matrix(1, 0, 0, 1, -904.862678527832, 0)"/><path fill="#FFFFFF" d="M1130.9,220c-43.7,0-79.2-35.5-79.2-79.2s35.5-79.2,79.2-79.2c43.7,0,79.2,35.5,79.2,79.2&#10;&#9;&#9;&#9;S1174.6,220,1130.9,220z M1130.9,67.2c-40.6,0-73.6,33-73.6,73.6c0,40.6,33,73.6,73.6,73.6c40.6,0,73.6-33,73.6-73.6&#10;&#9;&#9;&#9;C1204.5,100.2,1171.5,67.2,1130.9,67.2z" transform="matrix(1, 0, 0, 1, -904.862678527832, 0)"/><path d="M 1239.300049 173.399994 A 49 49 0 0 1 1190.300049 222.399994 A 49 49 0 0 1 1141.300049 173.399994 A 49 49 0 0 1 1190.300049 124.399994 A 49 49 0 0 1 1239.300049 173.399994 Z" fill="#96C93D" transform="matrix(1, 0, 0, 1, -904.862678527832, 0)"/><path fill="#FFFFFF" d="M1190.3,225.2c-28.6,0-51.8-23.2-51.8-51.8s23.2-51.8,51.8-51.8c28.6,0,51.8,23.2,51.8,51.8&#10;&#9;&#9;&#9;S1218.9,225.2,1190.3,225.2z M1190.3,127.1c-25.5,0-46.2,20.7-46.2,46.2c0,25.5,20.7,46.2,46.2,46.2c25.5,0,46.2-20.7,46.2-46.2&#10;&#9;&#9;&#9;C1236.5,147.9,1215.8,127.1,1190.3,127.1z" transform="matrix(1, 0, 0, 1, -904.862678527832, 0)"/><path d="M 1091.5 153.600006 A 56 56 0 0 1 1035.5 209.600006 A 56 56 0 0 1 979.5 153.600006 A 56 56 0 0 1 1035.5 97.600006 A 56 56 0 0 1 1091.5 153.600006 Z" fill="#96C93D" transform="matrix(1, 0, 0, 1, -904.862678527832, 0)"/><path fill="#FFFFFF" d="M1035.5,212.4c-32.4,0-58.8-26.4-58.8-58.8c0-32.4,26.4-58.8,58.8-58.8c32.4,0,58.8,26.4,58.8,58.8&#10;&#9;&#9;&#9;C1094.3,186,1067.9,212.4,1035.5,212.4z M1035.5,100.4c-29.3,0-53.2,23.9-53.2,53.2s23.9,53.2,53.2,53.2&#10;&#9;&#9;&#9;c29.3,0,53.2-23.9,53.2-53.2S1064.8,100.4,1035.5,100.4z" transform="matrix(1, 0, 0, 1, -904.862678527832, 0)"/><path d="M 1062.299999 208 A 20.799999 20.799999 0 0 1 1041.5 228.799999 A 20.799999 20.799999 0 0 1 1020.700001 208 A 20.799999 20.799999 0 0 1 1041.5 187.200001 A 20.799999 20.799999 0 0 1 1062.299999 208 Z" fill="#96C93D" transform="matrix(1, 0, 0, 1, -904.862678527832, 0)"/><path fill="#FFFFFF" d="M1041.5,230.9c-12.6,0-22.8-10.2-22.8-22.8c0-12.6,10.2-22.8,22.8-22.8c12.6,0,22.8,10.2,22.8,22.8&#10;&#9;&#9;&#9;C1064.3,220.6,1054.1,230.9,1041.5,230.9z M1041.5,189.2c-10.4,0-18.9,8.5-18.9,18.9c0,10.4,8.5,18.9,18.9,18.9&#10;&#9;&#9;&#9;c10.4,0,18.9-8.5,18.9-18.9C1060.4,197.6,1051.9,189.2,1041.5,189.2z" transform="matrix(1, 0, 0, 1, -904.862678527832, 0)"/><path d="M 1061.200024 146 A 16.299999 16.299999 0 0 1 1044.900024 162.299999 A 16.299999 16.299999 0 0 1 1028.600025 146 A 16.299999 16.299999 0 0 1 1044.900024 129.700001 A 16.299999 16.299999 0 0 1 1061.200024 146 Z" fill="#96C93D" transform="matrix(1, 0, 0, 1, -904.862678527832, 0)"/><path fill="#FFFFFF" d="M1044.9,164.3c-10.1,0-18.3-8.2-18.3-18.3c0-10.1,8.2-18.3,18.3-18.3c10.1,0,18.3,8.2,18.3,18.3&#10;&#9;&#9;&#9;C1063.1,156.1,1054.9,164.3,1044.9,164.3z M1044.9,131.7c-7.9,0-14.3,6.4-14.3,14.3s6.4,14.3,14.3,14.3c7.9,0,14.3-6.4,14.3-14.3&#10;&#9;&#9;&#9;S1052.8,131.7,1044.9,131.7z" transform="matrix(1, 0, 0, 1, -904.862678527832, 0)"/><path d="M 1152.899975 129.399994 A 16.299999 16.299999 0 0 1 1136.599976 145.699993 A 16.299999 16.299999 0 0 1 1120.299976 129.399994 A 16.299999 16.299999 0 0 1 1136.599976 113.099995 A 16.299999 16.299999 0 0 1 1152.899975 129.399994 Z" fill="#96C93D" transform="matrix(1, 0, 0, 1, -904.862678527832, 0)"/><path fill="#FFFFFF" d="M1136.6,147.6c-10.1,0-18.3-8.2-18.3-18.3s8.2-18.3,18.3-18.3c10.1,0,18.3,8.2,18.3,18.3&#10;&#9;&#9;&#9;S1146.7,147.6,1136.6,147.6z M1136.6,115c-7.9,0-14.3,6.4-14.3,14.3s6.4,14.3,14.3,14.3c7.9,0,14.3-6.4,14.3-14.3&#10;&#9;&#9;&#9;S1144.5,115,1136.6,115z" transform="matrix(1, 0, 0, 1, -904.862678527832, 0)"/><path d="M 1223.600048 267.700012 A 16.299999 16.299999 0 0 1 1207.300049 284.000011 A 16.299999 16.299999 0 0 1 1191.00005 267.700012 A 16.299999 16.299999 0 0 1 1207.300049 251.400013 A 16.299999 16.299999 0 0 1 1223.600048 267.700012 Z" fill="#96C93D" transform="matrix(1, 0, 0, 1, -904.862678527832, 0)"/><path fill="#FFFFFF" d="M1207.3,286c-10.1,0-18.3-8.2-18.3-18.3c0-10.1,8.2-18.3,18.3-18.3s18.3,8.2,18.3,18.3&#10;&#9;&#9;&#9;C1225.6,277.8,1217.4,286,1207.3,286z M1207.3,253.4c-7.9,0-14.3,6.4-14.3,14.3s6.4,14.3,14.3,14.3s14.3-6.4,14.3-14.3&#10;&#9;&#9;&#9;S1215.2,253.4,1207.3,253.4z" transform="matrix(1, 0, 0, 1, -904.862678527832, 0)"/>




<path fill="#274F2A" d="M1211.7,547.9c-0.2,0.2-0.3,0.3-0.3,0.3s-0.2-0.1-0.5-0.3" transform="matrix(1, 0, 0, 1, -904.862678527832, 0)"/><path fill="#274F2A" d="M1183.2,555.6c-0.2,0.2-0.3,0.3-0.3,0.3s-0.2-0.1-0.5-0.3" transform="matrix(1, 0, 0, 1, -904.862678527832, 0)"/>
<path d="M 1238.9188232421875 92.10810089111328" style="fill: rgb(255, 255, 255); fill-opacity: 1; stroke: rgb(0, 0, 0); stroke-opacity: 1; stroke-width: 0; paint-order: fill;" transform="matrix(1, 0, 0, 1, -904.862678527832, 0)"/><path d="M 1041.5 220.899994 A 56 56 0 0 1 985.5 276.899994 A 56 56 0 0 1 929.5 220.899994 A 56 56 0 0 1 985.5 164.899994 A 56 56 0 0 1 1041.5 220.899994 Z" fill="#69BD45" transform="matrix(1, 0, 0, 1, -904.862678527832, 0)"/><path fill="#FFFFFF" d="M985.5,279.7c-32.4,0-58.8-26.4-58.8-58.8c0-32.4,26.4-58.8,58.8-58.8c32.4,0,58.8,26.4,58.8,58.8&#10;&#9;&#9;&#9;C1044.3,253.3,1017.9,279.7,985.5,279.7z M985.5,167.6c-29.3,0-53.2,23.9-53.2,53.2c0,29.3,23.9,53.2,53.2,53.2&#10;&#9;&#9;&#9;c29.3,0,53.2-23.9,53.2-53.2C1038.7,191.5,1014.8,167.6,985.5,167.6z" transform="matrix(1, 0, 0, 1, -904.862678527832, 0)"/><path fill="#5B3517" d="M1245.5,217.2c-14.3,5.3-16.8,4.4-17.7,4.7c1.3-2.4,2-11.8,2-11.8s-6.3,16.6-24.3,26.9&#10;&#9;&#9;&#9;c1.9-4.9,2-9,2.6-14.2c0-0.4-0.6-0.4-0.7-0.1c-2,5.7-3.1,9.1-7.3,16.4c-0.3,0.6-20.8,8.3-23.8,9.3c-11.6,3.6-23.2,7.1-34.8,10.8&#10;&#9;&#9;&#9;c-6.1,1.9-14.4,3.3-20.5,7c-0.3-0.9-0.5-1.9-0.8-2.8c-1.7-6.8-4.2-13.7-4.4-20.8c0-2.1,3.1-5.4,4.3-7.1c2.3-3.2,5.3-5.8,8.5-8.1&#10;&#9;&#9;&#9;c0.9-0.6,1.8-1.2,2.8-1.8c3.7-0.2,7.3-0.3,11-0.1c4.4,0.2,18.1,0.4,17.5,0.1c-3.7-2.2-12.1-2.9-16.3-3.2c-2-0.2-3.9-0.2-5.9-0.2&#10;&#9;&#9;&#9;c3.7-1.8,7.5-3.5,11.2-5.1c8.2-3.6,17.7-7.6,22.4-15.7c16.9-3.5,21.1-10.3,25.3-18.6c0,0-7.1,5.8-10.3,7.5c-9.3,5-13,4.1-13,4&#10;&#9;&#9;&#9;c0.5-2.5,4.9-16.1,3.7-22.1c0-0.2-3.5,15.6-9.2,23.1c-9.1,12.1-13.7,11.3-17.3,12.8c2.4-14-3.1-24.3-3.1-23.7&#10;&#9;&#9;&#9;c0.1,7.8,1.1,15-1.4,22.8c-0.3,1-0.7,2-1.1,3c-0.3,0.7-4.8,2-5.7,2.4c-8.3,3.6-16.5,8.3-23,14.8c-0.9,0.9-1.7,2-2.7,2.9&#10;&#9;&#9;&#9;c-0.7,0.6-1.6,1-2.1,1.8c0.3-0.6-4.3-15.3,6.2-27.2c5.8-6.6,10-15.5,10.9-24.5c0.8-8.5-0.8-16.7-3.7-24.5&#10;&#9;&#9;&#9;c0.6-5.7,11-20.5,10.9-22.7c0-0.4-11.9,14.2-12.5,16.5c-0.1,0.5-0.3,1.1-0.3,1.7c-8.1-17.4-32.8-46.6-31.8-45&#10;&#9;&#9;&#9;c5.2,8,25.4,38.6,27.3,48.1c1.2,6.4,1.5,12.6,0.7,18.8c-0.9-2.6-1.9-5-3.1-7.4c-6-12.5-17.7-18.5-16.7-17.5&#10;&#9;&#9;&#9;c8.1,8.1,14.6,16,16.4,37.7c-3.3,7.6-9,14.2-12.7,21.6c-0.9,1.9-1.9,4.2-2.7,6.6c-7.7-9.5-28.8-23.3-34.3-29.2&#10;&#9;&#9;&#9;c-12.5-13.3-16.8-32.9-17.9-34.7c-0.1-0.2,2.2,21.5,2.4,22.1c-7.7-2.3-15.6-4.3-23.4-6.2c-1.9-3.9-4-7.6-7-10.8&#10;&#9;&#9;&#9;c-0.3-0.3-0.8,0.1-0.6,0.5c1.7,3,3.1,6.2,3.8,9.5c-0.1,0-0.3-0.1-0.4-0.1c-5.4-1.2-10.7-2.7-16.2-3.3c-5.5-0.6-8.8-0.5-14.7-0.2&#10;&#9;&#9;&#9;c0.1,0.7,10.3,1.8,15.5,3.2c3,0.8,5.9,1.7,8.9,2.7c-4.3,1.8-8.9,2.7-13.4,3.9c-5.4,1.4-9.8,3.8-14.3,6.9c-0.2,0.1,0,0.5,0.2,0.3&#10;&#9;&#9;&#9;c10.3-5,22.4-3.6,32.4-9.2c0.1-0.1,0.2-0.1,0.3-0.2c0.5,0.2,22.9,7.8,31.7,10.1c0.8,1.5,1.7,2.9,2.6,4.3c2.8,4.2,6.3,7.9,9.9,11.4&#10;&#9;&#9;&#9;c-3.7-0.7-7.4-1.5-11.1-2.1c-4-0.7-20.7-3.9-25.1-5c-0.4-0.1,7.2,3.5,10.9,5.1c3.9,1.7,7.6,3.3,11.6,4.6c4.2,1.3,8.6,2.3,13,3.2&#10;&#9;&#9;&#9;c2.8,0.5,5.9,1.3,9,1.6c0.4,0.4,0.8,0.7,1.3,1.1c2,1.7,10.7,9.1,17.3,21.1c4.4,8.1,4.2,17.7,4.6,26.8c-1.4-1.5-3-2.9-4.8-4&#10;&#9;&#9;&#9;c-0.3-0.2-0.6-0.3-1-0.3c-7-4.8-14.9-8.1-23-10.8c-0.5-0.3-1.2-0.6-1.9-0.7c-3-5-7.6-9.2-12.2-12.4c-3.8-2.6-7.7-4.7-11.8-6.7&#10;&#9;&#9;&#9;c-2.1-1-4.1-2.2-6-3.4c-1.7-1.1-3.2-2.4-5.3-2.7c-0.2,0-0.3,0.2-0.3,0.4c1.1,2.8,4.8,4.7,7.1,6.5c3.6,2.6,7.1,5.5,10.6,8.2&#10;&#9;&#9;&#9;c3,2.3,5.7,4.7,8.1,7.3c-0.9-1-4.9-1.5-6.3-1.9c-2.4-0.7-17.7-2.8-22.6-4.2c-9.3-2.6-30.5-9.8-31.1-10c0-0.1-0.2-6.7-1.2-10.7&#10;&#9;&#9;&#9;c-0.8-3.2-2.5-6.8-6.7-10.5c-0.3-0.2-0.6,0-0.4,0.3c4.2,5.1,5.2,13,4.5,19.6c-6.6-3.3-15.2-11.9-14.7-10.6&#10;&#9;&#9;&#9;c1.9,4.4,11.8,13,15.8,15.3c3.9,2.3,7.9,4.2,12.1,6c1.8,0.8,3.7,1.6,5.5,2.3c1.2,0.4,5.1,2.5,6.3,2.1c-4.4,1.5-8.8,2.6-13.4,3.1&#10;&#9;&#9;&#9;c-6.9,0.8-13.9,0.5-20.8,0.2c-1.5-0.1-2.9-0.2-4.4-0.3c-2.2-1.4-4.7-2.5-6.9-4.1c-3-2.1-10.2-5.8-9.7-5.4c2.5,2.2,5.2,4.1,7.9,6.1&#10;&#9;&#9;&#9;c1.3,1,2.5,2,3.7,3.1c-4.3-0.3-8.7-0.7-13-1c-3.8-0.3-7.5-0.3-11.2-0.1c-3.3,0.2-6.9,0-10,0.9c-0.2,0.1-0.2,0.4,0.1,0.4&#10;&#9;&#9;&#9;c3.7,0.5,7.5,0,11.2,0.4c3.7,0.4,7.5,0.8,11.2,1.3c0.9,0.1,1.7,0.2,2.5,0.3c-7.6,4.8-14.2,12-16.2,14.8c-0.1,0.2,0.1,0.4,0.3,0.3&#10;&#9;&#9;&#9;c2.4-1.2,4.5-2.9,6.6-4.6c0,0.8,0,1.6,0,2.3c0,1.4-0.2,3,0.6,4.3c0.3,0.5,2-7,1.7-8.4c0.3-0.3,0.7-0.5,1-0.7&#10;&#9;&#9;&#9;c3.3-2.4,7.7-4.2,10.4-7.1c0.1-0.1,0.1-0.1,0.2-0.2c5,0.8,10.1,1.5,15.1,2.2c24,3.5,42.2-4.7,42.5-5.2c0.8,0.2,1.7,0.5,2.5,0.7&#10;&#9;&#9;&#9;c4.7,1.4,9.5,2.8,14.2,4.2c-1.6,0.5-3.3,1.1-4.9,1.7c-4.1,1.6-23,14.4-22.8,14.8c0.1,0.1,0.1,0.2,0.2,0.3c0.2,0.3,17.2-8.3,22-9.4&#10;&#9;&#9;&#9;c6.4-1.5,13-1.8,19.5-1.2c4.9,0.4,9.8,0.9,14.4,2.7c4.7,1.8,9.3,4.3,13.4,7.1c2.8,1.9,5.4,4.2,7.8,6.7c0.3,0.9,0.6,1.8,0.8,2.7&#10;&#9;&#9;&#9;c0.5,2,0.3,4.3,0.6,6.4c0.3,2.6,0.3,5.2,0.5,7.8c2,26.8,1.1,53.9-0.8,80.7c-0.2,3.3-0.6,6.5-1.8,9.6c-1.3,3.5-3.7,4.8-5.5,7.6&#10;&#9;&#9;&#9;c-0.7,1-1.4,1.9-2.2,2.8c0,0,0,0,0,0c0,0.1-0.1,0.1-0.1,0.2c0,0.5-0.1,0.9-0.4,1.4c-0.6,1.1-1.2,2-2.1,2.7c-0.3,1.6-1.1,3-2.8,3.5&#10;&#9;&#9;&#9;c-2.7,0.9-5.7,0.9-8.5,1.1c-0.4,0-0.9,0.1-1.3,0.1c-1.1-0.1-2.3-0.1-3.4-0.2c-2.6-0.2-5.2-0.6-7.8-1c-4.4-0.7-8.5-1.8-12.9-0.5&#10;&#9;&#9;&#9;c-0.1,0-0.1,0.1,0,0.1c4.7-0.6,9.6,1.2,14.2,2.1c0.6,0.1,1.2,0.2,1.8,0.3c-0.7,0.1-1.5,0.2-2.2,0.3c-3.8,0.7-7.5,1.8-11.1,2.9&#10;&#9;&#9;&#9;c-2.6,0.8-5.3,1.4-8,2c-3-1-6-2-9.1-3c-0.5-1.2-1.4-2.3-2.1-3.3c-0.9-1.2-1.8-2.4-2.9-3.4c-0.2-0.2-0.4,0.1-0.3,0.3&#10;&#9;&#9;&#9;c1,1.3,2.1,2.5,3,3.8c0.5,0.7,0.9,1.6,1.4,2.3c-0.9-0.3-1.8-0.6-2.7-0.9c-1-0.3-2-0.6-3-1c-1.3-0.4-2.2-1.4-3.3-2.2&#10;&#9;&#9;&#9;c-1.3-1-2.7-1.2-4.3-0.7c-0.3,0.1-0.2,0.5,0.1,0.4c3-0.8,3.7,1.6,5.7,2.9c1.6,1,3.4,1.6,5.2,2.2c2.9,1,5.8,2,8.8,3&#10;&#9;&#9;&#9;c-3.9,0.4-7.7,0.3-11.7-0.8c-3.6-1-7-2.5-10.7-2.9c-3.9-0.4-7.6,0.5-11.2,1.9c-0.3,0.1-0.2,0.5,0.1,0.4c4-1.3,8.3-1,12.4-0.1&#10;&#9;&#9;&#9;c2,0.5,3.9,1.2,5.8,1.9c-2.8,1.7-6,2.6-9.1,3c-0.1,0-0.1,0.2,0,0.2c3.6-0.4,6.8-1.4,10.1-2.8c1.7,0.6,3.4,1.3,5.2,1.7&#10;&#9;&#9;&#9;c5.8,1.3,11.7,0.2,17.4-1.2c-3,2.4-5.9,4.7-9.6,6.2c-0.4,0.1-0.2,0.7,0.2,0.6c3.7-0.8,6.6-2.7,9.5-5c1.2-1,2.4-2,3.7-2.8&#10;&#9;&#9;&#9;c0.5-0.1,1.1-0.3,1.6-0.4c4.1-1.1,8.1-2.3,12.3-2.8c-0.9,2.4-2.4,4.3-4.6,5.9c-0.1,0.1-0.2,0.2-0.4,0.2c-2.3-0.1-4.6-0.3-6.8-0.1&#10;&#9;&#9;&#9;c-0.1,0-0.2,0.2,0,0.2c1.8,0.4,3.8,0.5,5.7,0.6c-2,1.2-4.2,2.1-6.2,3.4c-0.2,0.1-0.1,0.5,0.2,0.5c5.9-1.9,11.7-5,13.7-11&#10;&#9;&#9;&#9;c3.8-0.4,7.6-0.4,11.3-0.9c1-0.1,1.9-0.3,2.9-0.5c-2.2,1.8-4.2,3.9-6,6.1c-3.5,4.5-6.4,9.8-11.4,12.7c1.5-3.1,2.3-6.8,1.7-10.1&#10;&#9;&#9;&#9;c-0.1-0.3-0.5-0.2-0.6,0.1c-0.2,1.8-0.2,3.6-0.6,5.5c-0.3,1.8-1,3.5-1.7,5.1c-0.4,0.2-0.9,0.4-1.3,0.5c-0.5,0.2-0.9,0.3-1.4,0.4&#10;&#9;&#9;&#9;c-1.7-0.2-3.5-0.2-5.2-0.4c-2.7-0.3-5.4-0.9-8.1-1.3c-3.7-0.6-8.2-0.8-11.6,1.2c-0.1,0,0,0.1,0.1,0.1c4.7-1.2,9-0.5,13.6,0.5&#10;&#9;&#9;&#9;c1.1,0.2,2.3,0.5,3.4,0.7c-0.4,0-0.9,0.1-1.3,0.1c-3.2,0.2-6.2,0.8-9.1,2c-5,2.1-9.7,6.8-11,12.2c-0.1,0.5,0.6,0.8,0.8,0.3&#10;&#9;&#9;&#9;c2.5-5,5.9-9.2,11-11.2c-1.3,2-1,4.8-0.3,7.3c0.8,2.8,1.7,5.3,1.6,8.3c-0.1,3-1.6,5.5-2.4,8.4c-0.1,0.2,0.2,0.3,0.4,0.2&#10;&#9;&#9;&#9;c2.4-3.3,4-7.8,3.3-11.9c0-0.2-0.1-0.5-0.2-0.7c1.2,0.7,2.3,1.4,3.4,2.2c1.5,1.1,2.8,2.3,4.2,3.4c0.2,0.2,0.4-0.2,0.3-0.3&#10;&#9;&#9;&#9;c-2-2.5-5.2-4.7-8.1-6.2c-1.1-3.6-3.6-7.9-1-11c0.4-0.1,0.8-0.2,1.2-0.3c4.6-1.1,9.4-0.6,14.1-1.2c-1.8,3.9-6,6.5-7.4,10.7&#10;&#9;&#9;&#9;c-0.1,0.2,0.2,0.2,0.3,0.1c1.2-2.9,3.7-4.9,5.9-7.1c0.9,1.9,2,3.8,3.3,5.4c0.1,0.2,0.4,0,0.4-0.2c-0.8-2-1.9-4-3.2-5.7&#10;&#9;&#9;&#9;c0.9-1,1.8-2.1,2.4-3.4c1.3-0.3,2.6-0.6,3.9-1.2c5.2-2.2,8.5-7.6,11.7-11.9c0.1-0.2,0.3-0.4,0.5-0.6c0,0.2,0,0.4-0.1,0.6&#10;&#9;&#9;&#9;c-0.3,1.8-0.7,3.6-0.8,5.4c0,0.3,0.5,0.5,0.6,0.2c0.8-1.7,1.2-3.6,1.4-5.5c0.1-0.8,0.3-1.7,0.4-2.6c2.9-3.3,6.3-6.1,10.2-8.3&#10;&#9;&#9;&#9;c0.5,0.2,0.9,0.3,1.4,0.4c-1,1.8-2.3,3.5-3.7,5.1c-1.5,1.8-4.6,5-4.4,7.6c0,0.2,0.2,0.3,0.3,0.3l0.1,0c0.1,0,0.2-0.1,0.2-0.2&#10;&#9;&#9;&#9;c0,0,0-0.1,0-0.1c0-0.3-0.3-0.3-0.4-0.1c0.2-0.6,1-1.4,1.4-2c0.6-1,1.4-2,2.2-2.9c1.3-1.5,2.7-3,4-4.5c0.6-0.7,1.1-1.4,1.6-2.2&#10;&#9;&#9;&#9;c0-0.3,0.1-0.7,0.3-1c0.2-0.3,0.5-0.6,0.7-0.9c0.8-1.9,7-8.2,8.5-4.2c1.2,3.1,2.5,6.3,0.6,9.4c0.1-0.1,0.5-0.1,0.7-0.1&#10;&#9;&#9;&#9;c-0.4,1-1.2,1.9-1.7,2.9c-0.3-0.1-0.6-0.2-0.9-0.1c-2.8,0.6-5.6,2.9-8,4.4c-2.8,1.8-5.5,3.8-8.1,5.9c-5.5,4.3-10,9.7-15.1,14.5&#10;&#9;&#9;&#9;c-0.3,0.3,0,0.9,0.4,0.8c2.6-1.1,4.7-3.1,6.9-4.9c2.7-2.2,5.3-4.5,8.1-6.7c1.2-0.9,2.4-1.8,3.6-2.7c0,0.1-0.1,0.1-0.1,0.2&#10;&#9;&#9;&#9;c-0.9,1.6-1.7,3.2-2.6,4.8c-0.5,1-2.4,3-1,3.8c0.1,0,0.2,0.1,0.3,0c0.1-0.1,0.2-0.1,0.3-0.2c0.2-0.2,0-0.5-0.2-0.4&#10;&#9;&#9;&#9;c-0.2-0.5,0-0.9,0.4-1.3c0.3-0.5,0.6-1,1-1.5c0.7-1,1.3-2,2-3c0.9-1.3,2.1-2.8,2.8-4.4c0.8-0.5,1.6-1.1,2.4-1.6&#10;&#9;&#9;&#9;c1.8-1.2,4.1-2.2,6-3.5c-0.2,0.5-0.4,1-0.6,1.5c-1,2.8-1.6,5.8-1.9,8.9c-0.3,3,0.1,6.1,0,9.1c-2.8,1.8-6.2,2.2-9.4,2.7&#10;&#9;&#9;&#9;c-1.4,0.2-3.6,0.3-3.7,2.1c0,0.2,0.4,0.3,0.4,0.1c0.6-2.1,6.1-1.4,7.8-1.6c1.7-0.2,3.2-0.7,4.7-1.4c-0.6,3.5-3,5.7-6,7.3&#10;&#9;&#9;&#9;c-2.6,0.2-5.2,1-7.9,1.4c-2.3,0.4-4.6,0.5-6.9,0.5c-1.2-2-2.6-3.9-4.1-5.7c-0.2-0.2-0.5,0.1-0.3,0.3c1.2,1.8,2.5,3.8,4,5.4&#10;&#9;&#9;&#9;c-0.7,0-1.4,0-2.2-0.1c-3.7-0.2-7.8,0.2-9,4.3c0,0.1,0.1,0.2,0.2,0.1c1.6-2.4,3.5-3.5,6.4-3.3c2.3,0.1,4.5,0.6,6.8,0.5&#10;&#9;&#9;&#9;c1.7,0,3.5-0.1,5.3-0.4c-0.5,0.2-1.1,0.4-1.6,0.7c-4.1,1.8-10,6.4-8.3,11.7c0,0.1,0.2,0.1,0.2,0c0.6-3.6,1.9-5.9,4.9-7.9&#10;&#9;&#9;&#9;c2.7-1.8,6-2.8,9-3.8c5-1.7,9.5-4.1,11.4-9.3c1.1-2.8,0.8-6,0.8-8.9c-0.1-3.1,0.2-6.1,1-9.1c1-4.1,2.9-7.8,5.5-11.1&#10;&#9;&#9;&#9;c0,0.5-0.1,0.9-0.1,1.3c-0.1,1.6,0,3.2,0.1,4.8c-3.2,2.8-2.1,8.4-4.2,12c-0.1,0.2,0.2,0.3,0.3,0.2c1.9-2.9,1.7-7.8,4.1-10.4&#10;&#9;&#9;&#9;c0.2,1.5,0.5,2.9,0.7,4.4c0.6,3.5,1.3,6.9,1.4,10.4c0.2,3.9-0.8,7.3-2.5,10.8c-0.2,0.4,0.3,0.8,0.6,0.5c3.6-4,3.7-10.1,3.2-15.3&#10;&#9;&#9;&#9;c1,1.1,2.6,2,3.6,2.6c3.4,2,2.5,7,3.3,10.3c0.1,0.3,0.6,0.3,0.7,0c0.7-2.9,0.2-6.6-1-9.4c-0.7-1.5-2.3-2.1-3.5-2.9&#10;&#9;&#9;&#9;c-1.2-0.8-2.1-2.3-3.3-2.9c-0.4-3-1.2-6.3-1.6-9.5c0.1-0.1,0.2-0.1,0.3-0.1c1-0.4,0.5-1.8-0.5-1.5c-0.2-2.6-0.2-5.1,0.4-7.5&#10;&#9;&#9;&#9;c0.7,7.2,3.9,14.6,6.6,20.5c2.3,4.9,4.7,9.9,6.3,15.1c-3.7,0.8-6.6,3.3-9,6.1c-0.2,0.2-0.3,0.4-0.5,0.6&#10;&#9;&#9;&#9;c-4.7,2.9-10.2,3.7-15.6,4.3c-2.2,0.3-4.3,0.5-6.3,1.4c-2.2,1.1-3.2,3.7-4.9,5.3c-0.1,0.1,0,0.2,0.1,0.1c2.1-1.5,3.3-3.7,5.9-4.7&#10;&#9;&#9;&#9;c2.5-1,5.6-0.7,8.2-1c3.5-0.4,7-1.1,10.2-2.4c-2,2.4-4,4.7-6.9,6.3c-3.9,2.1-8.2,3.1-11.9,5.6c-2.9,2-5.4,5.2-6.3,8.6&#10;&#9;&#9;&#9;c-0.1,0.3,0.4,0.5,0.5,0.2c1.8-4,4.4-6.9,8.4-8.8c3.5-1.7,7.5-2.6,11-4.3c1.7-0.8,3.2-2,4.5-3.3c-0.8,3-2.1,5.6-3.9,8.2&#10;&#9;&#9;&#9;c-2,3-4.1,5.7-4.9,9.2c0,0.1,0.1,0.1,0.1,0c1.1-3.2,3.6-5.6,5.6-8.2c0.2,1.9,0.7,3.9,1.6,5.6c0.1,0.2,0.4,0.1,0.4-0.1&#10;&#9;&#9;&#9;c-0.5-2-1-4.1-1.4-6.1c0.1-0.1,0.1-0.2,0.2-0.3c2.3-3.1,3.8-6.6,4.4-10.4c0,0,0-0.1,0-0.1c3.4-3.8,6.5-8.1,11.5-9.1&#10;&#9;&#9;&#9;c0.1,0.5,0.2,1,0.3,1.6c1.4,7.2-0.6,14.3-3.2,21c-0.3,0.8-0.6,1.6-1,2.5c-0.9,1-2,2-3,2.9c-2.2,2.1-4.6,3.9-7.2,5.6&#10;&#9;&#9;&#9;c-0.2-0.1-0.4-0.1-0.6,0c-3.4,1.4-6.8,2.7-10.2,3.8c-0.8-0.2-1.6-0.4-2.5-0.6c-1.5-0.3-3.4-0.5-4.3-1.9c-0.1-0.2-0.4-0.1-0.4,0.1&#10;&#9;&#9;&#9;c0.4,1.1,1.3,1.5,2.3,1.8c1.1,0.3,2.3,0.7,3.4,0.9c-1.4,0.4-2.9,0.9-4.3,1.2c-2.9,0.8-7,2.6-6.1,6.4c0,0.2,0.4,0.2,0.3,0&#10;&#9;&#9;&#9;c-0.3-4.9,7.6-5.3,11-6.3c1.4-0.4,2.9-0.9,4.3-1.4c-2.5,1.6-4.7,3.5-5.5,6.5c0,0.2,0.2,0.3,0.3,0.1c1.4-3.1,4-4.5,6.8-6&#10;&#9;&#9;&#9;c2.8-1.5,5.5-2.9,8.1-4.7c2-1.5,4-3.1,5.8-4.8c-1.6,4.1-3.2,8.2-4.1,12.6c-0.7,3.4-0.9,6.7-0.5,9.9c-1.7,1.6-3.7,2.7-5.7,3.8&#10;&#9;&#9;&#9;c0,0-0.1,0-0.1,0c-3.4,1.1-6.5,2.8-9.4,5c-1.8,1.4-3.3,3-5.2,4.3c-0.8,0.5-2.2,0.6-2.5,1.6c0,0.1,0,0.2,0.1,0.2&#10;&#9;&#9;&#9;c0.2,0.2,0.2,0.1,0.4,0.1c0,0,0.1-0.1,0.1-0.1c0,0,0-0.1,0-0.1c0,0,0-0.1-0.1-0.1c0.5-0.2,2.8-1.2,3-1.3c1.5-0.9,2.9-2.1,4.3-3.1&#10;&#9;&#9;&#9;c1.4-1.1,3-2,4.6-2.9c-0.4,0.5-0.8,1-1.2,1.6c-1.4,2.4-1.8,5.3-2.4,8c-0.8,3.6-2.6,6.4-5.8,8.3c-0.1,0.1,0,0.2,0.1,0.1&#10;&#9;&#9;&#9;c3.2-1.5,4.9-3.9,6-6.7c0.5,3,0.6,6.2,0.3,9.2c0,0.1,0.2,0.2,0.2,0c0.9-3.5,1.1-6.9,0.4-10.5c0-0.2-0.2-0.3-0.3-0.4&#10;&#9;&#9;&#9;c0.5-1.4,0.9-2.9,1.4-4.4c1.1-3.4,3.2-5.5,6.3-7.3c2-1.2,4-2.2,5.8-3.6c0.4,2.1,1.1,4.2,2,6.3c2.6,6,5.9,11.3,7,17.8&#10;&#9;&#9;&#9;c0.1,0.6,0.2,1.2,0.2,1.9c-1,1.4-1.9,2.9-2.5,4.5c-0.9,2-1.2,4.1-3.4,5.2c-0.8,0.4-4.4,2.8-2.7,4.1c0.1,0.1,0.2,0.1,0.2,0l0.1-0.1&#10;&#9;&#9;&#9;c0,0,0-0.1,0-0.1c0,0-0.1,0-0.1-0.1c-0.1,0-0.2,0.1-0.1,0.1c-0.8-0.8,1.8-2.6,2.5-2.8c0.4-0.1,0.9-0.2,1.3-0.4&#10;&#9;&#9;&#9;c1-0.5,1.6-1,2.1-1.9c0.8-1.1,1.1-2.6,1.7-3.9c0.3-0.7,0.7-1.4,1.1-2c0.1,5.4-1.2,10.7-3,15.8c-0.2,0.6,0.7,1,1.1,0.5&#10;&#9;&#9;&#9;c3.4-5.9,4.3-12.4,3.6-18.9c0-0.1,0-0.1,0-0.2c-0.3-2.7-0.9-5.4-1.7-8.1c1,1.1,2.1,2.2,3,3.2c2.9,3.2,4.8,6.7,5.5,11&#10;&#9;&#9;&#9;c0,0.2,0.2,0.1,0.3,0c0.9-6.7-5-12.3-9.8-17c-0.5-1.3-1.1-2.7-1.7-3.9c-1.4-2.9-2.9-5.9-3.9-9c-0.9-3-1-6.2-0.7-9.4&#10;&#9;&#9;&#9;c1.8,3.1,5.5,5.3,8,7.6c2.8,2.5,3,5.4,3.7,8.9c0.5,2.3,2.2,4.7,4.3,5.7c0.2,0.1,0.4-0.1,0.2-0.3c-2-2.5-3.1-4.7-3.5-7.9&#10;&#9;&#9;&#9;c-0.1-0.7-0.2-1.4-0.4-2c0.5,0.3,1.1,0.6,1.6,0.8c1.1,0.5,2.4,1.2,3.6,1c0.2,0,0.3-0.3,0.1-0.4c-0.9-0.7-2.2-0.9-3.3-1.3&#10;&#9;&#9;&#9;c-0.8-0.4-1.6-0.8-2.4-1.3c-0.4-1-0.9-1.9-1.6-2.9c-2.8-3.6-8.3-5.3-10.2-9.5c1-6.7,4-13,6.6-19.2c2.5-5.9,4.4-12.1,4.4-18.5&#10;&#9;&#9;&#9;c0-5.7-1.9-11.2-4.1-16.4c2.2,2.8,4.7,5.5,7.1,8.2c0.1,1.4,0.7,2.8,1,4.1c0.4,2.1,0.2,4.2,0.5,6.3c0,0.3,0.4,0.2,0.5,0&#10;&#9;&#9;&#9;c0.5-1.8,0.3-3.9,0-5.8c-0.1-0.9-0.3-1.9-0.5-2.9c3.7,4.4,7,9.1,8.5,14.8c0.6,2.1,0.6,4.2,0.4,6.2c-1.6,2.3-3.7,4.2-5.8,6.1&#10;&#9;&#9;&#9;c-2.9-0.9-5.7-1.5-8.7-0.9c-0.2,0-0.2,0.4,0.1,0.4c2.6,0.1,5.2,0.5,7.5,1.5c-1.3,1.2-2.6,2.4-3.8,3.7c-3.8,4.4-2.8,10.1-2.3,15.5&#10;&#9;&#9;&#9;c0,0.2,0.3,0.2,0.3,0c0.2-2.8,0.2-5.5,0.2-8.3c0-1.2,0.3-2.3,0.8-3.3c0.4,1.5,1.2,2.9,2.3,4.2c2.2,2.7,4.6,4.8,5.5,8.3&#10;&#9;&#9;&#9;c1.3,5.2-0.8,11.9,3,16.3c0.1,0.1,0.3,0,0.3-0.2c-1.6-2.9-1.9-5.8-1.7-9.1c0.2-2.8,0.3-5.4-0.4-8.2c-1.3-5-6.8-7.5-8.2-12.5&#10;&#9;&#9;&#9;c0.9-1.4,2.1-2.5,3.3-3.7c2.4-2.2,5-4.2,7.2-6.6c-1,4.8-3,9.5-2.9,14.5c0,4.1,2.3,7,4.5,10.3c1.2,1.8,1.9,3.9,2.3,6.1&#10;&#9;&#9;&#9;c0.4,1.9,0.1,3.9,0.4,5.9c0,0.3,0.5,0.3,0.6,0.1c1.4-3.1,0.5-7-0.5-10c-1.3-4.1-4.6-7.2-5.1-11.6c-0.2-1.4-0.1-2.8,0.1-4.1&#10;&#9;&#9;&#9;c0.4,1,1,1.9,1.6,2.7c1.9,2.6,4.1,5.4,6.4,7.6c0.3,0.2,0.7-0.1,0.5-0.4c-2.4-3.8-7.4-7.2-8.2-11.8c0.5-2.2,1.2-4.4,1.8-6.6&#10;&#9;&#9;&#9;c0.4-1.3,0.7-2.7,0.9-4c0.6,1.6,1.5,3.2,2.6,4.5c1.3,1.5,3.1,2.4,4.5,3.8c1.7,1.8,2.4,4.2,3.1,6.5c0.1,0.2,0.3,0.1,0.3,0&#10;&#9;&#9;&#9;c0.3-3-1.2-5.8-3.2-8c0.4,0,0.8-0.1,1.2-0.2c0.9-0.1,1.8-0.2,2.7-0.6c0.2-0.1,0.1-0.4-0.1-0.5c-0.9-0.1-1.8,0.2-2.6,0.3&#10;&#9;&#9;&#9;c-0.5,0.1-1.1,0.2-1.6,0.3c-0.1-0.1-0.2-0.2-0.3-0.3c-1.6-1.5-3.2-2.6-4.3-4.5c-0.9-1.5-1.4-3.2-1.9-4.8c0-1.3,0-2.5-0.2-3.8&#10;&#9;&#9;&#9;c-0.1-0.6-0.2-1.3-0.4-1.9c2.7,1.3,5.7,2.2,8.5,3.2c2,0.8,4.1,1.3,5.4,3.2c0.8,1.1,1.2,2.5,1.8,3.8c1.1,2.5,2.6,4.3,5.1,5.4&#10;&#9;&#9;&#9;c3.6,1.5,7.1,2.5,11,2.4c0.3,0,0.4-0.5,0.1-0.5c-3.5-0.9-7.1-1.8-10.4-3.3c-2.8-1.3-3.6-3.7-4.7-6.2c0.6,0.3,1.1,0.6,1.7,1&#10;&#9;&#9;&#9;c0.9,0.6,1.9,1.2,3,1.4c0.4,0.1,0.6-0.3,0.3-0.6c-0.7-0.8-1.7-1.4-2.7-1.9c-1-0.6-2.1-1.2-3.2-1.8c-1.3-2.4-3.6-3.3-6.1-4.3&#10;&#9;&#9;&#9;c-3.3-1.2-6.8-2.9-10.3-3.8c-1.9-6-6.2-11.3-10.3-15.9c-5.5-6.2-11.3-12.2-14.6-20c0-0.1-0.1-0.2-0.2-0.2c-1-2.5-2-5-2.7-7.7&#10;&#9;&#9;&#9;c-0.6-2-1.8-15-0.4-14.8c0.9,0.1,5.1,5.3,6.6,6.7c0.9,0.8,1.8,1.7,2.6,2.6c0.3,4.9-2.5,9.6-1.3,14.5c0.5,1.9,2,3.3,3.4,4.5&#10;&#9;&#9;&#9;c2.3,2,4.3,4.2,4.9,7.3c0,0.2,0.4,0.2,0.4-0.1c-0.1-4.7-3.3-6.9-6.2-10.1c-1.7-1.8-1.7-4.1-1.4-6.5c0.4,0.8,0.9,1.5,1.3,2.2&#10;&#9;&#9;&#9;c0.7,1.1,1.4,2.3,2.4,3.2c0.2,0.2,0.5,0,0.4-0.3c-0.6-1.1-1.4-2.2-2.1-3.3c-0.6-1-1.1-2-1.8-2.9c0.5-2.5,1.3-5,1.2-7.3&#10;&#9;&#9;&#9;c2.7,3.4,4.7,7.4,5.7,11.9c0.8,3.7,1.1,7.4,3.7,10.3c1.8,2,4.8,2.8,7.4,3.2c1,1.3,2.1,2.5,3.2,3.7c-0.6,3.1-0.5,6.9,0,9.9&#10;&#9;&#9;&#9;c0,0.3,0.4,0.2,0.4-0.1c0.2-1.9,0.1-3.7,0.1-5.6c0-1.2,0.1-2.5,0-3.7c0.5,0.5,0.9,1,1.4,1.5c2.2,2.3,4.3,4.3,4.3,7.7&#10;&#9;&#9;&#9;c0,2.1-1.3,3.4-0.3,5.5c0.9,1.8,2.6,3.6,4.4,4.4c0.2,0.1,0.4-0.1,0.2-0.3c-2-2-4.9-4-3.4-7.1c0.4-0.8,0.5-1.6,0.6-2.4&#10;&#9;&#9;&#9;c0.2,0.1,0.4,0.3,0.5,0.4c0.8,0.6,1.8,1.4,2.9,1.6c0.2,0,0.4-0.2,0.2-0.4c-0.7-0.7-1.7-1.1-2.5-1.7c-0.4-0.3-0.7-0.6-1.1-1&#10;&#9;&#9;&#9;c0-0.7-0.1-1.3-0.3-2c-0.5-2.1-2.3-3.7-3.7-5.2c-1.6-1.7-3.2-3.4-4.8-4.9c3.2,0.4,6.4,0.7,9.2,2.1c3.8,1.9,5.4,6.6,7.7,10&#10;&#9;&#9;&#9;c0.8,1.1,1.7,2.2,2.7,3.2c1.2,2.7,3.1,5.5,5.3,7.4c0.2,0.2,0.5-0.1,0.4-0.3c-0.9-1.3-2-2.5-2.9-3.8c-0.4-0.6-0.8-1.2-1.2-1.8&#10;&#9;&#9;&#9;c3.8,3.3,8.7,5.7,13.5,5.8c0.6,0,0.7-0.9,0.1-1c-3.8-1-7.3-2.1-10.6-4.3c-3.7-2.4-6.2-5.9-8.2-9.8c-0.2-0.3-0.3-0.6-0.5-0.9&#10;&#9;&#9;&#9;c1,0.7,2.1,1.3,3.3,1.8c3.9,1.6,8.3,3.1,12.6,3c0.3,0,0.3-0.4,0.1-0.5c-3.7-1-7.3-1.6-10.9-2.9c-2.1-0.7-4-1.6-5.7-3&#10;&#9;&#9;&#9;c-0.2-0.2-0.4-0.4-0.6-0.5c-1.2-1.7-2.7-3.2-4.7-4.3c-2.9-1.5-6.3-1.7-9.5-2.4c-3.4-0.7-6.4-1.8-8.3-4.9c-1-1.6-1.3-3.8-1.6-5.6&#10;&#9;&#9;&#9;c-0.4-2.1-0.8-4-1.5-6c-1.6-4.4-9-18.4-8.2-18.1c7.6,3,8,13.2,10.6,16.6c1.5,2,4,2.9,6.1,4c0.5,2.4,1.1,4.9,1.9,7.2&#10;&#9;&#9;&#9;c0.1,0.2,0.4,0.1,0.4-0.1c-0.3-2.2-0.9-4.4-1.5-6.6c2.1,1.4,3.1,4,4.9,5.8c2.4,2.5,6.1,2.6,9.6,2.5c0.6,1.5,1.5,3,2.3,4.4&#10;&#9;&#9;&#9;c0.5,0.9,1.1,2.3,2.2,2.6c1.6,0.5,3.1-0.2,4.7-0.3c2.3-0.2,4.1,0.6,5.8,2.1c0.1,0.1,0.3,0,0.3-0.2c-0.7-2.3-3.3-3.1-5.5-3.2&#10;&#9;&#9;&#9;c-2.1-0.1-4.7,1.4-6.1-1c-0.9-1.5-1.7-3.1-2.8-4.5c1.4,0,2.8-0.1,4,0c3.1,0.3,6,1.8,8.3,3.7c2.4,2,3.4,4.7,5,7.3&#10;&#9;&#9;&#9;c0.2,0.3,0.7,0.2,0.7-0.2c-0.2-4-3.9-7.6-7-9.7c-4.4-2.9-9-2.4-14-2.9c-3.3-0.3-5.2-1.8-7-4.5c-0.4-0.6-0.8-1.2-1.2-1.7&#10;&#9;&#9;&#9;c3,1.5,6.7,2.4,9.8,3.1c0.2,0,0.3-0.2,0.1-0.3c-1.8-0.7-3.7-1.3-5.5-1.9c-1.7-0.6-3.4-1.3-5.1-1.7c-0.9-1-2-1.9-3.3-2.6&#10;&#9;&#9;&#9;c-2.6-1.4-5.1-2.3-6-5.4c-0.8-2.7-0.5-6.9,0.3-9.6c1.8,1,3.8,4,5.2,5.6c0.6,0.9,1.2,1.7,1.7,2.6c1.4,2.1,2.8,4.9,4.9,6.4&#10;&#9;&#9;&#9;c2.2,1.5,4.6,1.8,7.1,2c3.4,0.2,6.4,0.9,9.4,2.7c4.9,3,6.9,9,12.3,11.5c2.2,1,4.8,1.3,7.3,1.2c0,0.1,0,0.1,0.1,0.2&#10;&#9;&#9;&#9;c2.9,1.4,5.4,2.9,8.1,4.7c0.1,0.1,0.3-0.1,0.2-0.2c-2-2.1-4.8-3.7-7.6-4.7c2.9-0.2,5.8-0.9,8.3-1.8c0.1,0,0.2-0.1,0.3-0.2&#10;&#9;&#9;&#9;c1.2-0.1,2.4-0.2,3.6-0.1c1.7,0.1,3.2,0.7,4.9,1.1c0.2,0,0.3-0.2,0.1-0.3c-2.4-1.5-5.9-2-8.8-1.4c-0.1-0.1-0.2-0.1-0.4-0.1&#10;&#9;&#9;&#9;c-5.6,1-11.4,2.8-16.8-0.1c-2.8-1.5-4.7-4.1-6.7-6.6c2.2,1.1,4.7,1.7,7,2c2.2,0.2,4.3,0.2,6.4,0c2.8-0.3,5.7-1.2,8.5-0.8&#10;&#9;&#9;&#9;c0.1,0,0.1-0.1,0-0.1c-3.4-1.1-6.4-0.7-9.7-0.4c1.7-1.6,3.1-3.5,3.8-5.6c0.1-0.3-0.3-0.4-0.4-0.2c-0.9,1.2-1.7,2.5-2.6,3.7&#10;&#9;&#9;&#9;c-0.6,0.8-1.3,1.5-2,2.2c-0.3,0-0.6,0-0.9,0c-4.4,0.1-8-1.7-12-2.9c-0.7-0.8-1.5-1.5-2.4-2.1c-0.7-0.5-1.4-0.9-2.2-1.3&#10;&#9;&#9;&#9;c2.3-0.1,4.6-0.1,7,0.2c2.9,0.4,6.1,1.8,9,1.5c0.3,0,0.4-0.4,0.1-0.5c-3.2-1-6.4-2-9.7-2.5c0.8-0.4,1.6-0.9,2.4-1.4&#10;&#9;&#9;&#9;c1-0.6,2-1.1,2.8-1.8c0.1-0.1,0-0.4-0.2-0.3c-1.1,0.4-2,1-3,1.5c-1,0.6-2.1,1.2-3.1,1.9c-2.5-0.3-5.1-0.2-7.7,0.4&#10;&#9;&#9;&#9;c-0.7-0.2-1.5-0.4-2.2-0.5c-2.6-0.4-5.3-0.2-7.9-1c-2.9-0.9-4.8-4-6.4-6.5c0.5,0.4,1.1,0.7,1.7,1c2,0.8,4.1,0.5,6.2,0.3&#10;&#9;&#9;&#9;c2.5-0.3,4.6-0.3,7.1,0.3c0.3,0.1,0.5-0.3,0.2-0.5c-3.4-2.6-8.5-0.3-12.4-1.4c-2.4-0.7-4.2-3.7-5.7-5.5c-0.7-0.8-1.4-1.5-2.2-2.1&#10;&#9;&#9;&#9;c0.4-0.2,0.8-0.3,1.2-0.5c0.1-0.1,0.2-0.1,0.3-0.2c0.5,0,1.1-0.1,1.6-0.1c2.5,0.8,5.1,1.3,7.4,1.6c1.2,0.2,2.4,0.3,3.7,0.3&#10;&#9;&#9;&#9;c3.2,1.3,5.9,3.8,9.1,4.9c1.9,0.6,3.8,1,5.7,1.5c2.3,0.6,4,1.8,6.1,2.9c0.3,0.2,0.7-0.2,0.5-0.5c-1.1-1.8-3.1-2.8-5.3-3.5&#10;&#9;&#9;&#9;c0.4,0,0.7-0.1,1.1-0.1c3.7-0.6,6.5-1.8,10.1,0c0.5,0.3,1.1,0.6,1.7,1c0,1,0.5,2,0.8,3c0.5,1.3,1,2.6,1.9,3.7&#10;&#9;&#9;&#9;c0.2,0.2,0.5,0,0.5-0.3c-0.4-1.3-1.1-2.4-1.5-3.6c-0.3-0.7-0.4-1.4-0.6-2.1c3.1,2.1,6.4,4.7,10.2,3.6c0.2-0.1,0.1-0.3,0-0.3&#10;&#9;&#9;&#9;c-5.9-0.2-8.9-5.4-14.1-7.1c-2.2-0.7-4.5-0.2-6.7,0.4c-2.2,0.6-4.3,1-6.5,1.2c-0.7-0.2-1.4-0.3-2-0.5c-2.6-0.7-4.8-1.8-7-3.3&#10;&#9;&#9;&#9;c-0.3-0.2-0.6-0.4-0.8-0.5c4.5,0,9-0.4,13.4-0.5c7.5-0.2,14.4,0.5,21.5,3.2c0.4,0.2,0.8,0.3,1.2,0.5c0,0.1,0.1,0.2,0.2,0.3&#10;&#9;&#9;&#9;c2,1.3,2.5,3.8,4.4,5.2c0.8,0.6,2.1,0.6,3.1,0.6c2,0.1,3.7,1.2,5.5,2.2c0.3,0.1,0.6-0.1,0.4-0.4c-1.4-2.3-4.1-3.1-6.7-3.2&#10;&#9;&#9;&#9;c-2.2-0.1-3-2.1-4.1-3.6c0.2,0.1,0.3,0.1,0.5,0.2c1.6,0.5,3.5,0.4,5.2,0.6c3.4,0.3,6.8,0,10.1-1.1c0.5-0.2,0.3-0.9-0.2-0.7&#10;&#9;&#9;&#9;c-3.8,0.9-7.6,1.4-11.5,0.8c-1.5-0.2-3.3-1.1-4.7-1.6c-1.5-0.5-2.9-1.1-4.4-1.7c-0.1-0.1-0.3-0.1-0.4-0.2c2.1,0.1,4.2,0.1,6-0.5&#10;&#9;&#9;&#9;c0.2-0.1,0.2-0.4,0-0.4c-2.9-0.9-6.4-0.3-9.4-0.2c-4.8-1.3-9.9-1.7-14.9-1.8c-9.3-0.1-28.8-0.8-32.6-5.7c-4.6-5.8-5.6-23-6.9-34&#10;&#9;&#9;&#9;c-2-17-1.1-32.7-1.9-49.7c-0.2-3.4-0.3-6.8-0.6-10.2c-0.2-2.6,0.5-5.9,0.1-8.3c0-0.2-0.1-0.4-0.1-0.6c-0.2-1.5-0.6-3-1-4.6&#10;&#9;&#9;&#9;c0.2-0.1,0.4-0.3,0.7-0.4c2.4-1.4,43.7-12,52.9-15.6c12.7,6.9,29.5,7,29.5,7s-18.4-5-23.3-8.9c27.5-9,40.4-21.9,43.2-25.4&#10;&#9;&#9;&#9;C1237.2,224.9,1245.9,217,1245.5,217.2z" transform="matrix(1, 0, 0, 1, -904.862678527832, 0)"/></svg>