<svg xmlns="http://www.w3.org/2000/svg" viewBox="0 0 750 508.8"><path fill="#603813" d="M445 432.7h-.8.8c.6 0 .6 0 0 0z"/><path fill="#464646" d="M328.4.2s-6.6 23.4-21.5 55c-6.2 13.3-16.2 29.9-27.8 39.7-7.4 12.5-25.6 17.5-39.5 16.5-6.3-.4-33.5 3.8-37.6.8 5.9 4.3 29.5 4.9 37.3 3.1-1.4.4-2.9.5-4.4.9-2.3.6-4.4 1.5-6.5 2.6l2.8-.5c-8.2 2.5-19.3-2.2-27.9-2.2h-.1c-6.2 0-26 1.6-31.3-.8 9.4 4.2 20.9 4.3 31.3 4.3 7.4 0 14.6.5 21.9.7-3.7-.1-9.2 4.1-13.6 4.3-4.1.2-7.9-2-12-2.1 8.8 6.1 15.4 7.1 25.3 2 6.1-3.1 11.3-7.8 17.9-9.8 7-2.2 14.6-1.4 21.6-4.2-8.9 8.2-22.5 21.4-33.9 25.7-11.8 4.5-28.4-3.4-39.8-6.7-12.1-3.5-32.8-15.7-43.8-4.7 7.1-7.1 32.2 4.7 39.5 7.1-6.6.2-13 .9-19.3 3.3-.6.2-1.4.6-2.4 1.2.1-.6-.1-1.2-.9-1.5-3.6-1.5-6.5-2.8-10.5-2.9-4.3-.1-9.1 1.4-13.4 2.2-2.8.6-5.5 1.3-8.3 2-.6.4-1.2.7-2.1.8-6.8 1.4-13.4 3.4-20 5.5.2.4.5.7.9 1 .4-.2.7-.4 1.1-.5 2.7-.9 5.4-1.6 8.2-1.7 5.1-.8 10.5-.9 15.4-2.2 9-2.5 18-4.7 26.8-1-8.7 5-23.7 14.7-27.8 13 8.7 3.5 21.9-6.5 29.1-10.1 18.5-9.3 38.5-2.9 57.5-1.7-2.3 1-4.6 1.9-6.9 2.7-12 5.7-24.5 10.1-37.4 8.2-1.8.3-3.5.6-5.3.9h-.1c-7.6 1.4-70.1 9.6-72.8 1.6 0 .1.1.3.1.4 7.9 1.6 15.5 3 22 3.8 7.6.9 14.4-1.3 21.8-1.7 5.6-.3 11.2 1.5 16.8.5 5.3-.9 9.1-2.5 14.9-2.2 6.8.3 10.2 1.4 16.6-.3 5-1.3 10.3-1.7 15.1-3.6 8-3 16.1-6.2 24.3-8.5 4.9-1.4 10-2.4 14.7-4.2-2.4 1.7-4.9 3.3-7.6 4.5-16.8 7.7-34.3 15.2-52 20.8-10.9 3.4-23.7 6.6-36 7.8-6.1.6-12 .7-17.6.1-15-1.5-30.2-1.1-45.3-2.8l-4.8-.6-1.5.3c20.1 3.9 44.9 7.3 60.7 7.1 29.1-.5 61.3-10.9 89.2-23.9-1.2 4-3.4 7.6-6.3 10.7-.4-.4-1-.7-1.6-.5-10.1 1.8-19.9 6.1-28.5 11.6-4.9 3.2-28.2 9.1-33.8 6.7 8.5 3.7 24.9 1.6 33-2.1 4.1-1.9 7.6-4.9 11.8-6.7 5-2.1 10-4.2 15.3-5.4-.2.2-.4.4-.7.5-4.6 3.5-7.9 7.6-11.1 11.6 3.9-4.9 9.5-6 14.3-9.7 2.1-1.6 4.1-3.6 5.8-5.7 3.3-4.4 3.6-11 7.8-14.7 3.3-2.9 10.9-4.7 15-6.9 4.2-2.3 27.4-16.3 47-27.6-.1.3-.3.6-.5.9-7.1 12-16.7 16.5-28.6 20.8-3.1 1.1-6.1 2.9-8.6 5-3.2 2.7-5.3 5.3-7 9-1.6 3.3-4.4 11-7.7 12.8 4.6-2.5 8.6-6.2 10.8-11 2-4.5 5.1-7.5 9.1-10.2 4.3-2.9 10.2-4.1 15.2-5.4-1.5 3.4-3.5 6.7-6.6 9.4 7.7-6.6 13.3-14.3 20.6-21.4 5.5-5.4 8.7-11.9 14.7-16.4 1.2-.9 16.9-7.7 16.9-8.4-3 34.3-38.3 40.7-61.2 58.7-21.1 16.6-47.7 24-77.6 28.1-20.5 2.8-42.1 2.4-62.7 1.2-25.3-1.5-60.6-14.2-82.7 3.2-11.7 9.2-26.7 22.5-29.3 37.8.6-3.5 5.5-7.8 7.4-10.7 3.5-5.4 6.4-9.2 11.6-13.3 2.1-1.7 10.3-6.5 10.4-9.3-.2 5.4-1.2 10.5-.1 15.9.7 3.2 2.3 6.1 4.1 8.9-12.6 11.8-28.3 27.7-44 24.8 18.8 3.8 35-12.1 46.9-20.8.3.5.7.9 1 1.4-.2.3-.4.7-.5 1-2.3 4.5-5.1 8.8-7.6 13.2-4.7 8.4-8.1 17.2-8.9 26.8-5.1-1.1-10.1-2-15.3-2.6 4.8.7 9.9 1.9 15.3 3.4 0 .3-.1.7-.1 1-.1 1.4-.1 2.8-.1 4.2-.5 0-1 .3-1.4.8-2.8 4.8-6.1 9.3-9 14-3.3 5.2-4.5 10.4-4.9 16.5-.5 7.6-.1 15-1.5 22.6-2 10.1-6.5 13.8-15.6 17.8 15.2 2 18.4-13.1 20-25.4 1.1-8.8-1.4-18.4 2.9-26.6 2.7-5.2 6.3-9.9 9.5-14.9.6 7.9 2.1 15.9 3.2 23.6.2 1.2.4 2.5.5 3.7-4.2 4.6-8.8 12.3-7.8 18.8-1.2-7.4 8.9-10.1 9.4-16.1-.1 3.7-.3 7.4-.2 11.1.1 6.6-1.2 13.3-3.5 19.5 4.9-11.3 13.2-11.7 22.4-2.7 10 9.9 21 24.7 16.9 39.9 3.7-13.9 3-22.4-7.2-34.7-3.4-4.1-7.3-7.7-11-11.5l-2.8-2.8c5-1.4 9.9-3 14.7-4.7 4.5-1.6 8.9-3.7 13.1-5.9-.4 2.6.2 6.4-1.1 9.5 3.1-4.7 5.7-9.9 8.8-14.7 10-7.3 17.6-16.2 25.6-24.9 2.3 11.1 1.2 67-31.5 63.2 23.4 3.1 31.7-16.6 34.6-30.3 3.8-18 .9-35.2 13.1-50.8 2.5 3.1 4.6 6.5 5.5 10.5 2.1 8.9.2 17.6-1.6 26.1 9.1-9.9 7.7-26 .2-37-.6-.8-1.1-1.6-1.7-2.4 1.9-2 4-4 6.5-6 7.6-6 17.6-8.2 25.6-13.6 3.8 8 3.8 16.6 3.1 25.4-19.5-.4-21.2 6.2-25.9 20.3 4.3-12.9 13.5-15.3 25.6-15.8-1.4 15-7.8 41-16.3 52.9-1.4 1.9-3 3.7-4.2 5.2-3.8 4.7-8 9.1-12.4 13.3-4.3 4.2-8.5 8.2-12.4 12.5-2.3.6-4.7 1-7.1 1.5 2.4-.4 4.7-.9 7-1.3-3.2 3.5-6.2 7.3-8.9 11.4-4.9 7.5-8.7 16.5-9.8 25.5-.9 7.3 3.5 13.2 6 19.7 1.6-7.8-3.6-15.6-1.7-24.2.9-4.2 2.9-8.5 4.7-12.3 3.7-8 9.2-15.1 15.4-21.4 5.3-1.3 10.3-2.8 14.9-4.4-2.2 8.9-4 16.1 2.4 23.1-4.9-5.3.5-18.9 1.9-24.7 10.3-3.9 19.5-8.5 29-13.2l.6.6c-.4 1-.9 2-1.1 3-.6 2.1-.8 4.4-1.1 6.5-.3 2.3-.5 4.6-.7 6.8-.1.2-.2.5-.2.8-.5 9-10.2 11.3-15.5 17.1-5.8 6.2-9 15.8-12.4 23.5-3.5 7.8-7.2 16.5-7.9 25-.9 10.4 2.3 11.6 7.4 19.5-4-9.2-5.2-15.3-2.8-25.3 2.2-9.4 6.7-18.4 10.9-27 1.7-3.6 3.3-7.1 5.4-10.5 2.6-4.2 6.5-6.6 10.5-9.3 1.8-1.2 3.3-2.5 4.5-3.9-2.4 2.9.1 17-1.7 21.7-2 5-5.8 9.5-9 13.4 11.8-5.3 15.2-17 14.7-29.1-.3-6.1-1-12.1-.1-18.2.5-3.4.8-6.7 1.5-10.1.1-.4.2-.9.3-1.3.8.9 1.7 1.8 2.5 2.7 3.3 3.8 6.6 7.6 9.5 11.7-.8 4-1.2 8.2-1.5 12.6-.9 16.1-14.1 30.6-24.3 44.6 11.5-15.7 25.1-26.4 29.2-44.4.4-1.9.8-3.8 1.1-5.8.3.6.7 1.2 1 1.8 2.1 4.1 3.2 8.2 4 12.8 1.5 8.9.1 16.5-3.2 24.7 11.9-12.9 7.9-31.4-1-45 1.5-10.8 3.4-21.6 14-30.1 9.3-7.5 29.7-9.1 42-13.9-1.2 24.6-23.2 28.9-42 46.4 8.1-7.8 22.8-10 31.8-16.9 10.9-8.4 14.4-21.1 15.4-32.1.8-9.5-1-18.9-5.2-28-10.2-22.1-15.5-39.1 8.8-53.3-1.5 3.3-1.8 7.8-2.1 10.6-.1 1.4-.2 2.8-.2 4.2-.3.3-.6.7-.6 1.3 0 5-.6 9.2-2.9 13.7-2.7 5.1-6.4 11.9-1.4 16.9-.1-6.6 2.9-12 5.7-17.7.1-.3.3-.6.4-.9.6 3.8 3.5 17.9 1.5 20.9 5.7-8.3 2-19.2 1-28.2-1.5-12.6-.4-22.3 11.8-27.2 8.5-3.4 17.6-5.3 26.8-6.9-1.6 3.5-2.9 7-4 10.5-1.6 5.2-3.5 10.4-5.4 15.5-3.3 1.8-6.6 3.6-9.6 6.2-4.5 3.9-8.4 9.5-10.6 15-2.8 6.8-3.8 13.9-4.5 21.1-1.3 12.3 3.4 24 4.1 36.1.7 11.5-4.8 18-11.9 26.6-2.6 3.2-5.5 6.2-8.5 9.1-6.1 5.9-13.8 9.4-21.3 13.1-6.1 3-11 7.8-14.8 13.4-4.4 6.5-7.8 14.2-11.2 21.3-4 8.4-7.7 15.5-5.3 24.9-1.6-6.5 9.3-25.3 12.1-30.6 3.1-6.1 6.2-12.6 10.6-17.8 1.4 2.8 2 5.9 2.6 9 .6 3.3 1.6 6.6 2.4 9.8-9.4 5.1-17 11.1-17.7 20.1.8-7.1 8.6-12.5 18.5-17.1.1.3.1.5.2.8 2 8.3 6.4 14.2 2.1 22.2-3.4 6.4-11.1 9.8-15 15.9-6.7 10.3-8.5 22-3.9 33.5.6-12.8 1-23.1 8.8-34.5 3.5-5.2 11.6-8.5 14-14.4.3 1.3.7 2.6 1 4 2.3 9.6 4.1 20.5-.3 29.8-3.6 7.5-10.5 13.2-8.5 22.2 3.6-5.3 6.1-11.6 9.8-17.4 2-3.1 3.4-6.4 4.2-9.9 2-8.1-.1-17.7-1.9-25.7-2.1-9.4-5-18.6-7.3-28 13.2-5.8 29-10.5 36.5-16.5 1-.8 1.9-1.6 2.9-2.4 6.1 10.1-8.5 21.2-15.4 29.3-6.7 7.9-10.3 18.9-4.2 25.9-7-10.7 15.5-30.4 21.4-37.7 2.5-3.1 4-5.9 5-8.8-.2 5.4-.5 10.8-1.3 16.2-1.6 10.5-4.3 20.9-7.1 31.1-.6 0-1.2.2-1.5.9-.9 1.7-2.2 3.1-3.7 4.4-6.2-1.1-10.3-3.3-12.8-6.2 1.9 2.9 5.8 5.1 12.8 6.2-3.5 3.1-8.2 5.3-11.6 7.9-4.1 3-7.7 7.4-10.7 11.4-8.7 11.6-18.1 30.8-9.6 44.7 2.3-17.5 2.6-31 14.7-45.5 3.8-4.6 8-8.2 13.1-11.3 2.4-1.5 5.1-3.4 7.4-5.5-3.3 11-9.7 21.6-11.2 33-1.5 11.5 4.9 21.2 8.5 31.7 1-9.4-5.4-18-5.3-27.7 0-6.5 2.8-13.2 5.4-19 4.4-9.6 7-20 9.6-30.2 2.7-10.5 5.2-21 6.5-31.8.6-5.6.6-11.2.8-16.8.1-2.4-.3-4.7-.7-7.1.2-.9.4-1.8.7-2.8 1.7-6.5 6.5-12.1 8.1-18.6.6-2.4 1-4.9 1.3-7.3.9 1.6 1.9 3.1 3 4.5 9.3 12.9 7.7 17.2-1.7 29.4-3.8 5-5.6 11.8-6.8 17.9 1.1-5.3 5.7-10.9 8.8-15.1-1.5 8.1-4.5 16.8-5.1 25.1-5.9 5.6-10.5 11.7-11.7 18.6-.1.4-.1.7-.1 1.1 2.6-5.2 6.8-9.9 11.6-14.2v3.3c0 12.1 7.9 23 7.6 34 .2-9.3-1.8-15.7-3.2-24.9-.8-5.2-.9-10.3-.7-15.5 10.7-8.7 23.6-16.5 31.5-26.5-1.6 3.5-3.3 7-4.3 10.3-3.1 10.9-9 20.4-12.8 31-7.7 21.4 6.8 44.8 9.8 65.7 7.2-12.6-6.4-30-7.5-43.4-.4-4.6-.3-9.3-.1-14 .3-7 3.6-12.6 6.7-18.7 4.4-8.8 6.9-18.4 10.7-27.4 1.8-4.4 4-9.4 4.5-14.4 3.6-7.5 4.8-15.4 1.9-23.2-2-5.5-5.9-10.2-10.4-14.8.5-1.1 1.1-2.3 1.6-3.4.9-1.7 1.6-3.6 2.2-5.5.2.1.4.3.5.4 3.4 2.4 6.8 4.7 10.2 7.2.1.4.2.7.4 1.1 2.8 7.8 5.9 13 5.9 21.6 0-6.5 1.6-12.2-1-18.7 4.4 3 8.6 6.7 12.6 10.2-.8 1-1.6 2-2.4 2.9-11.9 14.7-23.5 28.4-28.9 46.9-3.2 11.1-3.6 22.7-1.4 33.8 0 2.5.6 5 1.8 7.2 1.2 4.1 2.8 8.1 4.6 11.9 4 8.4 9.2 16.2 14.8 23.5 7.5 9.7 15.7 18.4 22.8 28.4-11.3-16.1-24.4-34.2-33.7-51.9-1-1.9-1.9-3.9-2.7-5.8 2.3 1.5 5.2 2.8 8.8 3.8-24.2-7-5-41.5 4.4-50.4 2.8 9.7 9.4 15.6 15.4 24.6 2 3 9.7 16.5 8 19.6 7-12.2-6.5-22-12.3-33-3-5.7-3.3-10.1-2.1-14 .3.3.6.6.8.9 8.1 9.2 17.5 17.1 25.7 26.3v.1c-.6 3.8-1.4 7.5-2.4 11.3-3.3 12.6-6 25.7-15.8 34.8 12.1-5.1 15.1-18 18.1-29.5l2.4-9.3c2.3 6.1 5.8 11.8 11.8 17.3-4.4-3.9-7.1-10.8-9-18.5 6.8 9.3 11.5 20.2 14.6 31.2 1.8 6.4 3.1 12.5 3.5 19.1.4 6.9-1.9 13.1-2.3 19.9-.1 2.3 3.4 2.3 3.5 0 .3-6.1 2.4-11.7 2.3-17.8-.1-6.2-.9-12.4-2.6-18.4-3.2-11.6-7.6-22.7-14.1-32.9-1.9-2.9-3.9-5.6-6.2-8.2.5-2.9.8-5.9.9-8.9.1-4 .2-8.1.1-12.2.8 1.3 1.6 2.5 2.5 3.6 4.2 5.2 8.4 10.5 14 15 10.1 8.2 22.9 12.4 37.4 12.9-1.5 17.4-.4 45.2 20.7 47.4-18.5-2.7-21.5-47.3-17.1-47.4 1.7 0 3.4-.1 5.1-.2-1.7 0-3.4 0-5.1-.1.5-4.4 1.4-8.7 2.7-12.9 1.2.3 2.3.7 3.4 1 1.2 2 2.3 4 3.7 5.8 5.9 7.3 13.7 12.9 20.8 18.9 6.5 5.5 13 11.1 19.1 17.1-.2.3-.4.7-.6 1-4.2 7.1-10.2 17.3-10.7 25.7-.4 6.7 4 13 4 19.8 1-12.8-4.5-21.8 4.6-32.8 2-2.4 3.9-4.9 5.8-7.4.9-.1 1.3-.8 1.4-1.5 3.1 3.2 6.4 6.2 9.4 9.6 5 5.8 7.4 14.8 9.8 22.5 2.3-13-5.6-23.7-14.4-32.3-.9-.9-1.9-1.8-2.8-2.8 4.8-6.4 8.8-12.5 9.7-20.4 1 3.7 2.3 7.3 3.9 10.7 1.5 3.3 3.4 6.5 4.2 10.1 1.6 7 3.8 14.3 6.8 20.9.5-10-2-20.1-6.3-29.1-3.1-6.4-5.5-13.2-6.4-20.3 3.9-5.7 7.7-11.5 11.2-17.4.8-1.3 1.5-2.6 2.3-4 2.7 9 10.8 17.1 18.7 24.3.1-.1.2-.1.3-.2-8.7-9.5-15.5-22.4-14.3-33.3 2.9-6.2 5.4-12.9 6.1-19.5 3.5-8.8 6.9-17.5 5.8-27.9-.1-1-.3-2.7-.5-4.7 2.5 2.1 5.6 3.9 7.7 5.2 3.3 2.1 6.4 4.4 9.2 7 0 8.1-.4 16.2-.9 24.3-.8 12.1-4 24.1-17.2 27.1 19.9 6.1 20.5-23.3 21.2-35.4.2-4.1.3-8.2.3-12.3 3.8 5.7 3.3 13.4 3.3 20 0 2.3 3.5 2.3 3.5 0 0-9.9-.5-18.2-6.9-25.3-.1-6.4-.3-12.9-.3-19.4 2.7 2.9 5.2 5.8 7.2 8.8 0 4.3.2 8.6.6 13 1.1 11.4 5.6 21.9 8.5 32.8 2.7 10.3 7.1 14.6 14.7 21.4-4.1-7.3-9.2-14.2-11.3-22.3-2.9-10.8-6.8-22-8.1-33.1-1.8-15.7-.4-32.2 1-47.9.6-.3 1.3-.5 1.9-.8 1.9 2.2 3.3 5.5 4.3 7.4 5.2 9.6-3.4 11.6-2.9 21.4 1.8-3.4 3.7-6.7 5.9-9.8l-.1-.3c.6.3 1.3.3 1.9 0 .4 1.1.7 2.2 1.1 3.3 2.9 9 5 18.3 8.2 27.3 3.8 10.7 8.5 21.1 15.4 30.1 5.8 7.6 19.8 17.9 22.2 26.8-2.7-10.1-9.3-15.6-15.6-22.9-6.4-7.4-10.2-16.6-14.4-25.4 6.3-7.1 14.8-11.8 19.8-19.9 3.7-6.1 6.6-13.5 7.9-21.2.5 2.4 1.3 4.6 1.9 7 1.3 5.4 1.5 10.8 1 16.3-1.4 14.5-15.5 21.9-16.2 37.2 4.3-7.5 9.3-14.4 13.9-21.7 3.5-5.5 5.4-11.1 6-17.6.3-3.6 0-7.4-.6-10.9-1.3-7.4-4.7-14.2-6-21.4-1.2-7.3-1.2-13.1-6.4-19.4 8.4 10.3 26.4 19.2 30.9 32 2.3 6.4 1.9 13.7 2.6 20.4 1.5 14.1 12.8 13.9 21.7 21.9-7.9-9.8-16.8-9.3-18.4-23.9-.6-5.5-.7-10.8-1.9-16.2-.9-4-2.7-8.6-5.5-12 10.7 6 32.8 18.8 24.3 29.3 11-12.8-6.5-24-19-30.9-15.8-8.6-28.9-18.7-39.7-30.8-3-3.3-5.6-6.7-8.3-10.1 5.6.7 12.5 3.2 17.3 5.8 6 3.2 10.5 9.9 15.7 14.3 17 14.3 37.7 15.5 49.7 35.1-8.2-15.2-23.4-19.8-35.2-30.5 13.4-1.8 28.9-3.4 41.1 3.8 8.6 5.1 8.9 12.4 11.1 21.7-1.6-6.7 1.7-13.5-2.5-18.7-4.1-5.2-16.2-9.3-22.4-10.9-16.3-4.1-31 5.2-44.9-8.2-4.5-4.3-7.9-8.6-13.6-11.3-5.1-2.3-11.7-4.5-17.2-5-.7-.1-1.2.2-1.5.7-6-7.5-12.5-14.6-22.6-20.1 18.1-1.5 28.9-6.5 40.4 9 2.6 3.5 6.2 6.2 9.6 8.9 3.5 2.8 7.1 5.5 10.6 8.2 5.1 3.8 7.5 7.4 7.7 13.8-.1-3.6 4.4-4.2 1.2-10.4-2.2-4.3-8.4-7.4-12.2-10.3-2.4-1.8-4.8-3.6-7.1-5.5 7.2.4 13.9 1.9 20.5 5.4 7.4 4.1 10.7 12.8 17.1 18-1-5.1-3.4-10.1-6.8-14-2.9-3.3-6.3-5.8-10.1-7.9-7.6-4.2-16.2-5.1-24.7-5.2-1.8-1.8-3.5-3.7-5-5.9-1.6-2.3-2.7-5.3-4.6-7.2 17.1-1.5 30.7-1.8 45.4 8.9 16.1 11.7 21.1 26.9 45.9 31.1-32.8-6.7-27-33.3-52.5-42.7-7.8-2.9-16.6-4.1-25.5-4.4 5.9.2 18.7-11.1 25.1-13 11.3-3.4 15.8-1.9 26.3 1.8 14.8 5.2 27.2 14.2 39.4 22.1l-12.1-9.1c-10.7-13.4-25.2-18.4-45-21.1 5.3-2.5 11.4-6.6 17.4-7.9h.1c24.3-5.3 44.7 1.9 68.2 5.2-27.2-5.3-48.1-15.5-76.5-5.8-20.5 7-37.4 18.3-55.9 27.6-.2.1-.3.2-.5.3-.5 0-1.1 0-1.6.1 5.1-3.8 9.4-8.6 11.7-14.6 1.8-4.9.7-9.5 5.3-12.6 6.2-4.1 15.2-1.8 22.2-2.2 6.1-.4 10.7-2.6 16.6-3.6-2.7.4-42 1.8-41.8 2.9-.3-2 .1-3.7 1-5.6 3.9-8.4 15-6.5 22.2-7.4-8.6-5.7-22.5-3.2-26.1 7.5-1 2.9-1.3 5.9-1.4 8.9 0 0-.1.1-.2.1-.3.3-.2.7.1.9 0 .7 0 1.3-.1 2-.3.3-.2.6 0 .8 0 .7 0 1.5-.1 2.2-.7 15.7-16.4 21.1-29.1 21.6-10.7.4-22.2.9-33.8.9-2-4-4.4-7.9-7.3-11.5-6.2-7.9-14.3-14.4-20.8-22.1-6.4-7.6-12-16-16.9-24.7 2.7.3 6.7 1.4 12.4 3.4h.1c8.7 3 19 4 25.4 11.4.9 1.1.2 3.1.5 4.4.4 1.8 1.3 3.7 1.5 5.5.3 3.1.1 6.3.1 9.4 0 6.5-.1 14.9 7.5 16.9-2.5-4.4-3.7-7.8-3.9-13.1-.1-3.2-.1-6.5-.1-9.7 0-2.4-.1-4.4-.9-6.7-.3-1.1-.5-2.1-.5-3.1.3 4.3 5.6 15.6 8.2 19 4.1 5.3 11.2 5.5 16.6 9.1-1.7-6.7-7.9-5.5-12.1-9.4-4.7-4.3-5.4-12.3-8.2-17.8-1.4-2.7-3.1-5.2-5.1-7.3 16.7 4.9 43.3 14.7 44.7 30.2-1.2-39.1-68.4-29.5-89.6-55-5.5-6.6-12.5-23.3-24.6-24.7 9.4 1.1 22.5.6 31.2 4.1 8.8 3.6 6.7 9.2 12.1 17 4.4 6.3 7.8 13.8 13.9 18.4-5.2-4-11.5-18.9-14.4-25.7 1.6 1.3 3.2 2.5 4.6 3.5 6.2 4.7 13.5 7.1 20.9 9 .4.1.7.2 1.1.3-.4.6-.5 1.4.2 2.1 13.5 12.6 35.5 15.3 44.8 31.7.5-9.7-8.4-14.1-15.5-17.7-8.3-4.2-18-8.5-24.2-15.7-.1-.1-.2-.2-.3-.4 6.6 1.4 13.8 4.9 20.3 7.3 4.1 1.5 8.1 3.4 12 5.4 8.3 4.3 11.7 9.4 13.9 18.3 2.8-13.1-2.3-16.3-13.8-22.2-6.8-3.5-14-6.1-21.2-8.2-8-2.4-16.3-3.9-24.2-6.5-3.9-1.3-7.5-3.2-10.9-5.4-2.8-1.8-8.5-5.7-9.9-9.4 9.3 1.8 18.5 3.9 27.3 6.6 45.2 13.7 79.4 36.4 133.8 28.9-27.6 3.8-69.2-11.5-94.9-20.9 9.4 3.4 18.6-6.7 21.9-14.3-12.2 4.7-13.6 13.8-28.9 9.8-10.1-2.6-18.2-10.6-29.3-9.2 21.2-2.8 37.1-15.7 58.9-10.1-9.8-9.2-21.1-6.5-32.9-1.3-9.7 4.3-20.6 8-31.3 8.3-.5 0-1 .2-1.2.5-4.3-1.7-8.2-3.3-11.5-4.4-15.8-5.5-31.9-10.8-49.1-13.8-1.2-.2-2.4-.4-3.6-.7 7-.8 29.3-9.7 34.9-1.4-8.8-13-30.8-5.2-43.1-5.8-10.4-.5-21.9-1.4-31.6-5.3-11.4-4.5-21.3-12.2-29.9-22.2 4.6 2.1 9.3 3.8 14.3 4.9 4.4.9 8.8 1.4 13.3 1.7.1.3.2.5.5.8 5.7 5.4 11.3 8.6 19 10 9.2 1.7 18.7 1.6 27.9 3.1 9.8 1.6 20.7 3.7 29.3 8.9 8.2 4.9 13 12.6 19.1 19.4-2.5-2.8-6.3-10.6-8.1-14.1-1.3-2.5-3.9-4.5-6.1-6.2-7.4-5.4-15.7-7.5-24.5-9.6-.3-.1-.5-.1-.8-.2 4.7-.3 9.4-.8 14.2-1.7 4.8-.9 9.5-1.9 14.4-2.1 10-.3 20.3 2.5 27.5 9.7-11.8-11.8-18.5-15.3-36.5-12.3-8.2 1.4-16.9 4.4-24.7 5.4-7.4 1-14.5-2.3-21.9-2.9-9.5-.7-16.9-2.3-24.1-8 10.8.4 20.2.8 30.7 3-4.8-1-9.2-5-14.5-6.1-8.1-1.6-17.3-.5-25.6-1.2-6.3-.6-12.1-1.9-18-4.2-3-1.2-6-2.6-8.9-4-.1-.1-.8-.4-1.6-.9C378.3 51 367.7 0 367.7 0m195.6 262.9c.4 1.2.7 2.5 1.1 3.7-1.7-1.6-3.6-3.1-5.5-4.4 1.5.3 3 .5 4.4.7zM434 144.7c12.1 3.2 24.7 5.5 37.4 7.4 8.3 3.8 15.9 8.3 22 13.8 8.7 7.7 11.2 15.7 12.1 25.4 1.1 12.5 6.4 36.4 27.1 40.6-13.5-2.9-15-15.6-17.3-23.7-2.3-8.1-4.8-13.7-2.1-15.4 4.6 8.3 9.8 16.1 15.6 23.6 6.8 8.6 15 15.7 22.2 23.9 2.8 3.2 5.1 6.6 7.1 10.3-35.2-.3-70.9-5.5-88.1-29.8-1.6-2.3-3-4.5-4.3-6.7 1.3 1.1 2.5 2.1 3.9 3.1 5.2 3.7 10.9 6.2 17 8 10.1 3 20.3-.9 27.9 7.3-3.5-11.6-12.9-7.7-22.2-9.5-3.2-.6-6.3-1.6-9.3-2.7.2-.3.4-.6.4-1.1v-.4c11.6-5 16.7-3.8 26.1 4.7-6.4-5.8-10.7-10.1-17.2-10.3-3.2-.1-6.9.7-11.6 2.9-.5.2-.9 1-.9 1.5v1.4c-7.2-3.3-12.6-8.9-18.8-13.6-4.9-9.5-9.2-18.9-18.7-28.5l-.9-.9c4.8.3 9.7.7 14.5 1.1 1.4.1 2.9.3 4.3.5 0 .9.5 1.9 1.7 1.9-.4 0 2.2 4.7 3 5.6 2.4 2.9 5.3 5.4 8.4 7.6 9.7 6.7 21.4 10.9 31.3 17.2-5.4-10.1-17.1-13-26.4-18.3-5.5-3.1-10.2-7.6-13.1-13.1.8 1.5 14.9 5.9 17.4 7.6 5.3 3.6 9.4 8.5 14.9 11.8-8.2-12.9-19.8-21.1-35-23.5-6.3-1-12.7-1.1-19-1.7-2-.2-4-.3-5.9-.4-29.4-28.7-51.5-40.1-54.1-84.4v-.1c11 27.7 20.7 48.9 50.6 56.9zm-12.4 75.9c3.5 5 5.1 10.5 6.4 16-.3.2-.5.5-.6.9-2.3 7-3.8 13.4-4.3 20-.9 2.6-1.9 5.3-2.9 7.9-3.8-8.4-8.6-16-13.6-23.8 8-6 20.2-13.5 15-21zm23.7 61.3c-1.2-1.1-2.4-2.1-3.7-3.1-3.6-2.5-7.1-5.1-10-8.4-2.1-2.4-3.2-5.4-5.1-7.9 0-.1-.1-.1-.1-.2 0-1-.1-2-.1-3 1.5-4.4 2.9-8.9 3.9-13.4 1.4 5.8 3.2 11.4 7.1 16.7 2.4 3.2 5.1 6.2 8.1 9.1-.2 3.5-.2 6.8-.1 10.2zm26.7 25.8c-1.3-1.5-2.7-3-4-4.4 5.9 2.4 11.6 5 17.1 8.3 8 4.8 14.6 11.6 20.7 18.6 5.7 6.5 10 13.9 11.6 22.5.1.3.1.7.2 1-4.4-5.1-9.7-9-15.2-12.8-6.8-4.5-13.6-9.1-20.5-13.4-4.1-2.6-8.4-5.3-11.8-8.8-6.7-6.9-15.6-12.6-18.8-21.8-.6-1.8-1.1-3.5-1.4-5.4.9.9 1.7 1.8 2.6 2.7 2.3 2.5 5.3 4.1 7.9 6.3 3 2.4 5.5 5.5 8 8.3 7.4 8.3 17.5 10.9 25.9 18.3-7.4-6.4-16-12.2-22.3-19.4zm-14.8 9.4c1.4 2.4 2.8 4.9 4.1 7.3-9.4-3.9-19-7.7-27.3-12.7-.7-.5-1.5-.9-2.2-1.4-.2-4.1-.7-8.3-1.5-12.4-.4-2-.8-7.8-1.6-9.2 4.2 7.2 11.1 13.8 12.5 22.5-.9-5.9-.7-11.3-4.5-16.2-4.3-5.5-7.2-10.3-8.6-17.3-.6-2.9-1-5.8-1.3-8.7 2.4 3.4 4.5 6.7 8.3 9.5 3.9 2.9 7.3 5.8 10.6 9 .1 1.4.3 2.8.5 4.2 1.5 9.1 6.3 17.5 11 25.4zm-78.7.7c-1 2.2-2.6 4.4-4.2 6.4-.8-3.6-.4-7.3-1-10.9-.5-3.1-1.5-6.5-3.3-9.3.8.4 1.5.7 2.3 1.1 1.6 3.6 3.3 7.1 5.1 10.5.3.8.7 1.5 1.1 2.2zm-1.1-9.7c.3.2.5.4.8.5.8 1.2 1.2 2.5 1.3 3.8-.7-1.4-1.4-2.9-2.1-4.3zm-7.3 12.9c0 2.1.5 4.4 1.1 6.6-.9.9-1.7 1.7-2.4 2.5-1.4 1.4-2.7 2.8-4 4.2-.7-2.1-1.5-4.2-2.5-6.3-5.4-11-13.1-21.2-22.1-30.9-2-2.1-3.8-4-5.6-5.8 3.7 1.3 7.6 2.6 11.4 3.9 6.4 2.2 15 3.5 19.7 8.7 3.9 4.6 4.4 11.4 4.4 17.1zm-10.9 27.9c-.4-.4-.8-.8-1.3-1.2.3-.3.6-.6.8-1 .2.7.3 1.4.5 2.2zm-6.4-57.7c-.4-.2-.9-.3-1.3-.4 5.6-1.2 9.9-4.3 12.9-8.3 1.2 5 2.8 9.9 4.6 14.7-5.3-2.2-10.8-4.1-16.2-6zm3.7-45.3c2.3-.1 4.6-.1 6.8-.1-1.1 5.7-1.7 11.4-1.6 17.3.1 4.6.6 9.2 1.4 13.7-15.2 17.2-25.7 6-31.1-11.1-2-6.3-2.6-12.9-1.5-19.4 1-6.2 4.7-10 8.5-14.7 1.5-1.8 2.5-3.8 3.3-5.8 3.6 5.5 9 9.8 13.9 14.1-1.7-8.7-12.2-13.8-12.4-22.9-.1-3.7.5-7.1 1.5-10.5.1-.1.3-.2.4-.4.1.2.1.4.3.6 3.8 5.2 8.6 9.5 13.5 13.7 2.5 2.1 4.6 4.4 6.8 6.7.5.6 1 1.2 1.4 1.8-4.7 15-5.2 11.9-18.8 15.9-8.2 2.4-13.7 6.6-14.4 15.1.9-9.5 8.2-13.6 22-14zm9.9-24c-5.3-6.1-12.4-10.4-17.3-17-.3-.4-.6-.6-1-.7.8-.6 1.5-1.2 2.3-1.9 4.8-3.8 9.2-8.2 13.8-12.3 3.9 3.4 8.6 6.1 13 8.7.1.1.3.2.4.2-.7 2.3-1.5 4.5-2.2 6.8-5.3-3.7-11.8-6.3-20.4-5.8 8.7-.4 15.1 2.6 20 7-2 6-4.1 11.9-6 17.9-.9-1-1.8-1.9-2.6-2.9zm14.4-32.8c-2.5 2.8-8.3 3-13.6-1.2l-.3-.3c1-.9 2-1.7 3.1-2.6 2.8-2.2 5.6-4.4 8.6-6.2 4 4.4 4.1 8.1 2.2 10.3zm5.5 27c-2.4-2.8-5-5.6-7.9-8.1.8-2.4 1.5-4.7 2.3-7.1 1.2 5.3 3.1 10.3 5.6 15.2zM370 234.8c1.4 1.5 1.9 3.1 2.6 5 .2-2.2-1.4-10.6-1-11.6 1.2-3.4 2.4-6.7 3.5-10.1l2.7-8.4c2.5 2.9 4.6 6.3 6.3 9.6 3 5.9 6.6 11.8 13.4 15 .4.6.9 1.3 1.3 1.9l-1.5.6c-7.9 3.1-17.8 3-26.5 3H368c.7-.4 1.3-4 2-5zm32.2 10.5c.5-.5 1.1-1 1.7-1.6 5.2 7.5 10.1 15.1 13.4 23.2.4 1 .8 1.9 1.2 2.9-.6 1.6-1.3 3.1-1.9 4.7-2.1 5.1-4.2 10-6 14.9-3.2-4.2-6-8.5-8.6-12.6-7.4-11.4-9.6-21.3.2-31.5zm7.8 59.1c.2.4.4.8.7 1.2 1.7 3.2 3.4 6.3 5 9.5.7 5.3 1.2 10.7.6 16-1.6-3.5-3.1-7.1-4.5-10.7-2-5.4-2.4-10.7-1.8-16zm2.8-12.3c2-6.1 4.8-12.1 7.4-17.9 3.8 10.7 6.6 21.9 7.8 33.2-5.9-4.4-10.9-9.7-15.2-15.3zm9.3-22.3c.3-.8.7-1.6 1-2.3.1 1.5.3 3.1.5 4.7.1.9.2 1.8.4 2.8-.1-.4-.3-.8-.4-1.2-.5-1.4-1-2.7-1.5-4zm-2.9 65.3c.8-3.1 1-6.4.9-9.8 2 6 3 12 2.1 18.3-1.1-2.4-2.3-4.8-3.4-7.2.1-.3.2-.8.4-1.3zm2.8-24.3c-.6-1.3-1.3-2.6-1.9-3.8 1.4 2.7 4.4 5.3 8.3 7.8 0 3.7-.4 7.4-.9 11.1-1.2-5.2-3.1-10.2-5.5-15.1zM406.7 230c-3.3.6-6.2-.2-8.9-2-4.9-7.5-9.7-15.4-12.5-23.8l2.1 1.5c6.7 4.8 12 12.5 17.8 18.4-3-7.1-6.3-11.4-11.1-17.3-2.2-2.7-5.4-4.6-8.2-6.5-.7-.5-1.3-.9-2-1.4-.4-1.7-.6-3.5-.8-5.3.3-.8.5-1.5.8-2.3.6-1.7 1.3-3.5 2.1-5.3 3.1 2.7 6.4 5.4 10.2 8.1 6.3 4.8 30.2 32.2 10.5 35.9zm-15.4-56.1c1-2.6 1.9-5.2 2.5-7.8 2.1 1.8 4.3 3.4 6.7 4.9 1.9 3.1 4 6 5.7 8.9 2.4 4 5 7.7 7.6 11.5-7.4-5.9-15.5-11.4-22.5-17.5zm-4.6-15.6c1.2 1.8 2.6 3.4 4.1 4.9-.4 2.3-1.2 4.6-2 6.8-.5-.5-1.2-.7-1.8-.4-2.5-2.6-4.8-5.4-6.6-8.3-12.1-19.1-3.9-39.5-10.4-57.4 6.4 17 6.3 39.3 16.7 54.4zm-27.2-42.1c-.5 26.9 3.5 44.2 16.6 59.9-3.1 1.9-5.9 4.2-8.7 6.5-1.1.9-2.1 1.7-3.2 2.6-3.9-4.2-6-9.3-7.6-15.1-1.6-5.8-3.2-12.4-3.9-18.8 3.1-10.7 5.4-22.2 6.8-35.1zm-7.1 51c.1.6.3 1.3.4 1.9 1.5 6.8 3.9 12.8 8.4 18.1l.3.3c-4.7 4.2-9.3 8.5-14.1 12.5l2.4-5.7c2.3-5.5 3-11.8 3.3-17.8.3-3.2-.1-6.2-.7-9.3zm-2.8 11.5c-.5 9.4-4.6 17-7.5 25.7-4.9 4-9.6 8.1-13.5 13 6.7-17.9 13.9-34.1 19.8-51.7.7 4.2 1.4 8.5 1.2 13zm-70.8-9.2c.1 2.6 0 5.1-.6 7.6-1.1 4.6-6.2 8.5-9.5 11.7-11.4 11.2-25.7 18.7-37.1 29.9-10.8 10.6-15 26.4-9.4 40.5 2.4 6.1-22.3 9.5-26 10-.4-1.2-.7-2.4-.9-3.6-1.2-8.8 4.1-17.3 8.7-24.5 3.4-5.4 3.6-12.9 7.7-17.7 4.5-5.3 12.6-9.3 18-14 9.6-8.3 18.7-17.2 28.5-25.3 6.7-5.4 13.6-10.1 20.6-14.6zm-85.3 100.1c-4.3.1-9.1-.1-14.7-.6 0-7.2 6.2-10.7 11.6-14.3 1-.6 2.1-1.3 3.3-1.9-1.8 5.6-.8 11.1-.2 16.8zm-5.8-17.6c-1.6 1.3-16.5 16.3-9 17-.9-.1-1.9-.2-2.8-.2-1.6-.1-3.2-.3-4.6-.4 1.5.1-.2-18.7-.4-20.4-1-8.3.9-7.6 8.5-10.2 4.2-1.5 26-6.9 27.2-11.3-3.2 11.8-9.9 18.1-18.9 25.5zM154 191.4c9.5-.1 19.3-.3 29.2-1.5 3.6-.4 7.5-1.1 10.8-1.2-5.6 10.3-11.6 14.5-22.4 18.7-5.6 2.2-11.2 6.8-16.8 9.6 12.3-6.2 23-9 34.3-17.5-1.2.9-1.9 2.6-2.2 4.4l1.3-2.1c-1.4 3.2-2 6.7-.6 9.8 1-1.7 1.5-3.6 1.9-5.5 1.7-7.4 4.8-13.1 8.6-19.5-1.5 7.2 6 20.1 1.4 25.7 9.5-11.6-7.7-18.7 5.9-26.1 8.6-4.7 24-5.3 33.7-7.1-7.2 1.4-21.4 22-27 26.5-10.2 8.2-22.1 15.7-37.5 18.2-8.3 1.3-21.1.9-33.8-1.3-1.8-.1-3.6-.4-5.3-1-6.1-1.3-12.1-3-17.4-5 .1-.2.1-.3.2-.5.6.4 1.4.4 2.1-.2 6.1-5.4 14.6-7.8 21.4-12.4.1 2.5 0 5-.5 7.4-.6 2.8-3.3 5.7-5.3 7.5 1.8-1.6 5-.8 7.4-4.2 2.9-4.1.1-9.1 2.2-13.2 2.3-4 7.6-3.9 8.4-9.5zm-3.8.2c-1.5 5.6-11.4 9.9-16.1 12.4-5.4 3-13.3 9.5-18.7 9.7-6.4.2-14.7-7.3-16.5-12.9 2 6.3 7.5 11.8 14.9 16.2-1.5 2.1-3.8 3.8-5.4 5.5-5.5 6.1-10.7 4.5-17.8 7.3-4.4 1.7-8.5 3.7-12.7 6-3.7 2-7.3 4.3-10.6 6.9h-1.4c-1.6-4.9-4.2-9.2-7.3-13.5-2.1-3-6.7-5.7-8.3-8.5-2.4-4.4 2-5.8 5.4-8 3-1.9 5.7-4.3 8.8-5.9 3.5-1.8 7.5-3.4 10.9-5 4.1-1.9 7.8-5.2 12.2-6.6 8.4-2.7 17.9-4.6 26.5-6.3 12.4-2.3 24.1 1.9 36.1 2.7zm-39.3 47.7c.8 1.6 1.6 3.3 2.6 4.9-5.9-.1-11.8-.3-17.6-.5 1.6-5.2 5.4-9.4 9.2-13.1 1-1 2.3-2.1 3.6-3.2-.2 4.2.2 7.6 2.2 11.9zm-20.1 33.9v.2c-1.3 0-2.7.1-4.2 0-11.8-.2-23-2.5-34.1-5 1.1-3.2 2.5-6.3 4.4-9.4 2-3.3 4.5-6.2 7.3-8.9.3 3.2-.3 8.5.2 13v1.4c0 .6.2 1 .5 1.2.8 3 2.5 5.2 5.8 5.7-5.6-.8-2.7-20.7-3.4-24.1 1.6-1.3 3.3-2.6 5.1-3.8 6.5.6 13 1.6 19.3 2.5-1 4.5-1.3 9.2-1.4 13.8-.2 4.7-.6 8.8.5 13.4zm-42.5-58.4c-.4-.5-.7-1.1-1-1.7-7-11.8-3.6-25.4 9.1-28.8 7.5-2 16.3-2.2 24-1.4 5.7.6 18.1 6.5 23.3 4.9-17.2 5.4-31.1 10.5-45.9 19.3-2.8 1.8-6 4.5-9.5 7.7zm-6.6 29.4c2.2-4.8 5-9.3 7.6-13.9.9-1.4 1.6-3 2.4-4.5 3.6 4.8 7.2 9.6 9.9 15 .3.7.6 1.4.9 2-2.1 0-4.2 0-6.2.1h-.1c2.1-.1 4.3 0 6.4 0 .4 1 .7 2.1 1 3.2-2.8 2.5-5.4 5.2-7.7 8.2-3.1 4-5.3 8.5-7 13.3-4.2-1-8.4-2-12.6-2.9.5-6.9 2.2-13.7 5.4-20.5zm-4.9 36.7c-.7-5.2-.9-10.2-.6-15.1 3.9 1.2 8 2.5 12.1 3.8-1.1 3.5-1.9 7.1-2.4 10.7-.8 5-1.2 9.9-3.6 14.4-.7 1.4-1.7 2.6-2.7 3.8-.9-5.8-2-11.7-2.8-17.6zm4 45.6c.9-3 .6-6.5.5-9.8l1.6 1.6c2 1.9 3.9 4 5.8 6.1-2.6.8-5.2 1.5-7.9 2.1zm49.8-33.6c-1 3.8-2.4 7.4-4.3 10.9-10.2 8.1-21.7 15-34.3 19.5-1.4-1.4-2.8-2.8-4.1-4.3-1.9-2.1-6.3-5.8-6-8.9.1-.9-.5-1.5-1.2-1.6-.2-1.8-.4-3.7-.6-5.5 1.5-1.6 3-3.2 4.2-5 2.4-3.5 3.4-7.4 4.1-11.5.9-5.5 1.8-10.6 3.3-15.7 13.5 4.3 27.3 8.4 40 8.5.5 4.5.2 8.9-1.1 13.6zm-17.2-50c2.7-1.8 5.5-3.4 8.2-4.9 4-2.2 8.1-4.2 12.6-5 1.3-.2 3.3-.5 4.9-1.1-.5.6-1.1 1.2-1.6 1.8-2.5 3-4.1 6.4-5.2 10-6.3-.4-12.6-.6-18.9-.8zm19.1 55.8c.8-2.2 1.4-4.5 2-6.7 1.2-4.4 1-8.6.6-12.8 9.8-.5 18.7-3.7 26.1-11.4-7.5 9.8-17.2 20.9-28.7 30.9zm1.8-25.5c-.5-3.8-1-7.6-.7-11.5.4-5.2.6-10.1 1.5-15.2.4.1.8.1 1.1.2 6.8.9 13.6 1.7 20.2 2 1.9 2.7 4 5.3 6 7.8.5.5.9 1.1 1.4 1.6-7.6 6.8-13.8 13.7-29.5 15.1zm32.4-17.5c-1.9-2.2-3.8-4.4-5.4-6.9 8 .1 16-.7 23.8-2.9-8.4 2.4-13.8 6-18.4 9.8zm6-11.9c-4.9.3-9.7.4-14.6.4-1.5-2.2-3-4.3-4.3-6.7-2.4-4.4-1.9-8.3-1.4-13v-.5c1.7-1.6 3.4-3.4 4.5-5.2 21.7 11.3 56.7 14.7 76.5 5.1-21.1 10.4-33.6 18.2-60.7 19.9zm36.8 37.8c.4-2.8.9-5.8 1.3-8.9 5.1-.1 10.7 0 16.5-.3 2.2-.1 4.3-.2 6.5-.4.2 1.9.2 3.8.1 5.7.9-1.9 1.4-3.9 1.9-5.9 7.5-.6 14.8-1.6 21.8-3.9-12.1 13-40 16.9-51.7 29.3 1.5-5 2.7-10.2 3.6-15.6zm-23.1 55.5c-.7 2.1-2.3 7-3.8 12.6-4.8 2-9.7 3.9-14.9 5.4l1.6-1.6c5.9-5.8 11.9-11.2 17.4-17.4 0 .3-.2.6-.3 1zm.7 10.6c1.8-7.3 4.3-14.2 7.2-21.1 1.3-2 2.3-4.2 2.8-6.4 1.2-2.7 2.3-5.4 3.4-8 .5 1.8 1 3.6 1.8 5.4 1.5 3.2 3.1 6.3 5.1 9.2 1.7 2.6 3.8 4.9 5.9 7.1-8.5 4.7-17.1 9.6-26.2 13.8zm44.7 1.6c-.1-.1-.1-.2-.2-.3-3.6-4.6-7.5-8.8-11.4-13.1.2-.7.4-1.4.5-2.2 8.3-4.1 17.1-8.2 27.2-12-8.8 9.1-13.5 17.9-16.1 27.6zm56-46c-5.6 7.1-24.8 7.4-34.2 10.7-11.9 4.1-22.4 9.9-32.8 15.7-1.4.8-2.8 1.6-4.3 2.4l-3-3.3c-3-3.4-5.4-7.3-7.4-11.4-1.6-3.3-2.2-6.9-3.6-10.2.7-2 1.5-3.9 2.1-5.9 10.3-6.6 44.4-19.5 49.2-22.7 7.9-5.2 13.4-11.4 18.2-17.9-.5 14.4-7.4 27.1-17 37.7-6.5 7.2-22.7 23.8-32.6 27.2 12.7-3.9 29.5-17.9 37.7-27.7 8.2-9.8 13.9-20.9 15.2-33.3 1.9 4.6 4.6 9.1 7 13.8 3.3 6.2 10.4 18.8 5.5 24.9zm35.5-94.9c-2.3 3.2-5.6 4.4-13.3 7.6-15.2 6.3-26.7 14.9-34.4 26.2-4.7 6.8-8.5 12.3-12.6 16.5.7-8.2-1.6-19.2 2.5-26 3.6-5.9 10.2-13.2 15.7-17.4 12.4-9.4 26.3-18.8 36.4-30.4 7.8-8.9 3.1-16.4 14-23.3 8.2-5.2 16.4-10.2 24-16.3 16.3-13.2 26.9-30.1 29.7-51.1-.1 13.6-2 33.1-9.6 44.8-6.1 9.3-16.5 11.5-26.4 14.9-4.9 1.7-9 6-12.6 9.6-7 7-5.7 13.2-9.4 21.1 2.4-5 5.9-10.1 8.9-14.9 3.7-5.8 10.1-12.1 17.1-13.1-4.4 4.7-7.7 10.8-10.2 16.8 7.1-9 15.1-17.2 25-23.2 1.6-1 3.6-2 5.5-3.2-3.2 8.6-6.5 19.4-11.7 27-5.3 7.7-8.2 5.9-17.3 8.1-6.5 1.6-12.6 4.7-18.1 8.3-5.1 3.3-10.1 6.8-14.9 10.5-8.2 6.3-19.8 11.1-27.1 18 4.7-4.5 18.3-5.9 24.8-11.4 5-4.3 10.1-8.2 15.6-11.9 2.4-1.6 4.7-3.1 7.1-4.4-1.5 2.3-3.2 4.6-4.2 7.3-1.9 5-3 7.8-4.5 9.9zm6.4.3c.2-.8.3-1.5.4-2.3.4-3.5.6-6.8 2.5-9.9 1.6-2.6 3.4-5.1 4.7-7.8 6-2.7 12.3-4.4 19.4-4.6-.9 1.8-1.8 3.5-2.8 5.1-6.2 11.6-13.7 15.6-24.2 19.5zM279 355.4c-4 10.9-14 20.7-25.9 28.1-7.1 4.4-16 8-24.1 12-1.4-6.6-2.5-14.1-5.8-19.8 4.8-4.4 10.9-6.8 16.6-9.8 6.2-3.2 11.2-7.2 16.1-12.2 4.9-4.9 9.1-10.5 13.1-16.2.3-.4.5-.8.7-1.2-.3 1.1-.5 2.2-.8 3.3-2 7-5.1 14.1-8.9 20.4-5.8 9.4-12.5 18.2-19.1 27.1 10.4-4.3 17.6-17.9 23.2-27 4-6.5 6.7-14.3 8.9-21.6 2.1-7.4 2.2-14.8 1.2-22.4-.4-3.2-.7-6.3-1-9.5-.1-.7-.3-1.2-.6-1.8v-.4c-.2-2-.6-3.7-1.2-5.6-1.3-3.6-1.1-7.1-1.1-10.9 0-6.9.9-13.7 2.6-20.3 1.8-6.8 5.6-12.7 10.4-17.8 1.9-2 4.2-3.6 6.5-5-5.9 16-11.7 32-11.4 48.5.2 22.2 8.7 39.9.6 62.1zm10.9-14.5c-.2-.6-.4-1.3-.5-2-1.2-6.2.7-15.1 1.5-21.4-.6 5 13.5 15.4 22.8 24.4l-.9 1.8c-3 6.1-6.6 11.9-10 17.7-.9-2.1-1.9-4-3-5.9-2.9-4.9-8-9.2-9.9-14.6zm11.7 29.1c.9 5.7-.1 11.3-2.9 16.6-.9 1.8-3.9 6.9-6.1 8.8-.1 0-.1 0-.2.1 1.9-9 5.2-17.5 9.2-25.5zm19.7-18.1c3.9 12.9-2.4 30.3-14.5 40.4-5.2 4.3-10.4 8.5-15.7 12.6.4-5.4 5.7-9.6 8.8-13.7 3.8-4.9 5.6-11.1 5.6-17.2 0-2.9-.5-5.8-1.4-8.7 2.8-5 6-9.6 8.8-14.6 1.2-2 2.2-4.1 3.2-6.2 2.7 2.7 4.6 5.3 5.2 7.4zm-3.5-18.8c-3.9-3.8-8.1-7.5-11.7-11.3-5.3-5.7-9.2-11.7-11-18.2 2.5 2.9 5.9 5.3 8.4 7.5 5.6 4.8 11.5 9.2 17.5 13.5-.9 2.8-2 5.7-3.2 8.5zm4.2-12.2c-1.6-1.1-3.1-2.1-4.7-3.2-4.5-3.2-8.8-7-13-10.6-9.3-7.9-14.7-15.1-5.8-26.4 1.4-1.7 11.6 7.2 22.9 18.2 0 .2 0 .4.1.6 2.6 7.2 2.3 14.4.5 21.4zm-.4-41.8c-2.3-11.5-3.2-23.2-1.2-35 2.5-14.4 10.3-24.5 20.2-33.5-.4 2.6-.5 5.4-.3 8-.5 8.7-6.7 12.3-10.6 19.2-2.9 5.2-3.4 11.8-3.2 17.6.3 6.6 2.5 13.2 5.2 19.1 2.2 4.8 4.1 10.6 9.2 12.7-5.1.1-10.4-1.2-15.3-4.6-1.5-1.1-2.9-2.3-4-3.5zm3.8 44.1c1-4.1 1.6-8.3 1.6-12.6 1.9 5.9 4 11.8 6 17.7-2.6-1.7-5.1-3.4-7.6-5.1zm16 11.2c-1.2-.9-2.4-1.8-3.5-2.6-.6-1.9-1.3-3.8-1.9-5.7-2.1-6.4-4.3-12.7-6.4-19.1 12 12.2 23.2 24.6 24.6 27.5 1.5 2.9 2.6 5.6 3.5 8.3-.7.9-1.5 1.8-2.2 2.7-4.8-4-9.6-7.7-14.1-11.1zm-4.9 64.6c-4.7 6-10.6 14.1-13.8 22.2-.4-11.3 1.9-22.8 6.7-33.7 2-4.5 4.5-8.7 7.2-12.7.7 5 4 10 7.5 14.4-2.4 3.1-5 6.3-7.6 9.8zm9.9-12.9c-3.3-4.2-6.7-9.3-6.5-14.1 0-.6-.2-1-.5-1.3 2.1-2.9 4.4-5.7 6.6-8.5 3.1-3.8 6.2-7.7 9.3-11.5 1.5 1.4 3 2.8 4.4 4.2 0 11.1-5.3 20.5-13.3 31.2zm15.5 17.3c-3.5-3.5-6.9-7.1-10.1-10.8 3.4-6.1 9.8-11.6 14-20.2 3.1 11.9 6.1 23.9 8.2 35.9.5 2.8.9 5.6 1.4 8.4-4.4-4.5-9.1-8.9-13.5-13.3zm10-30c-.5-1.7-.9-3.5-1.2-5.3 3.4 5.8 5.2 12.2 6.2 18.8-2.1-4.5-3.8-9.1-5-13.5zm5.1 20.9l.6.9c.2 2.7.2 5.4.3 8.1-.3-3.5-.6-6.5-.9-9zm63.7 16.1c-.1.5-.1 1.1 0 1.6-.8 2.1-1.5 4.2-2.1 6.4-4.7-1.3-9.3-2.8-13.8-4.4 4.8 1.7 9.3 3.3 13.7 4.6-.7 2.2-1.3 4.4-1.8 6.7s-.9 4.7-1.1 7c-26.5-2.5-43.9-18.8-54.3-36.6-.6-9.2-2.2-18.2-6.1-26.6-1.6-3.3-3.6-6.4-5.9-9.4-.9-7.2-1.6-14.5-3.4-21.5 2-2.2 4.1-4.4 6.4-6.2 1.7 4.3 2.8 10.2 1.3 14.9 2.7-8.5 4.3-9.4 1.7-18.4 2-2.2 3.8-4.5 5.2-6.9 1.4 2.4 2.8 4.8 4.3 7.1-4.1 15.6-19.4 32.9 1.5 43.3-13.9-7.2-4-22.9 2.3-36.7 1.3 6.7 7.4 11.9 8.6 18.1 1.3 6.8-3.4 11.7-4.2 18.2-.8 6.4.2 12.3 1.9 18.4 1.4 4.7 3.5 9 6.5 12.9 5.5 7 14.4 14.1 20.9 20.5-4.9-10.6-9.4-13.6-17.2-21.7-4.6-4.8-6.6-11.4-8-17.6-1.7-7.6-.5-14.6 2.3-21.7.5-1.3.9-3.1.8-4.6.2 4.1 3.9 7 3.3 11.9-.5 4.2-2.1 7.3-1.1 11.9-.8-3.7 3.1-6.8 4.1-9.8 1.5-4.6-.5-9.5-2.3-13.7-2.4-5.7-6.3-10.2-9.1-15.3 3.5 2.6 8.8-.5 12.8 1.6-7.2-3.7-11.2-3.7-16.2-10.6-.2-1-.3-2-.3-3.1 0-.5-.2-.9-.5-1.2 1.4-4 2.1-7.6 1.2-10.6 6.8 3.8 19.3 11.9 16.9 19.4 5-15.5-16.5-30.3-33-37.8-.9-.4-1.8-.8-2.8-1.2-.2-.6-.5-1.1-.7-1.7-2.5-6.4-4.4-13-5.7-19.6 2.5-5.7 2.6-12.1.4-17.2 1.5 3.9.9 8.1-1.3 12-.7-5.1-1-10.3-.8-15.4.8 1 1.5 2.2 2.1 3.4-.5-1.2-1.2-2.4-2.1-3.5.1-3.7.5-7.5 1.2-11.2 3.7 0 7.3 0 10.9-.1-4.8 6.6-6.7 16.4-6.7 23.8 0 5.2 1.8 8.2 4.7 12.4 7.2 10.5 13.3 16 23.3 23.9-10.9-8.6-15.9-18.3-23.2-30.3-2.7-4.5-1.2-12.5.2-17.1 1.2-3.8 3.6-9.7 6.7-13 .9-.1 1.8-.1 2.6-.2 2.2-.2 4.3-.5 6.3-.8-8.2 7.8-6.9 17.4-1.8 26.5 5.5 9.9 12.1 19.4 17.9 29.2-1.6 8.1-1.5 16.3 2.4 25.2 1.6 3.8 3.4 7.7 5.1 11.5-1.1 3.4-3.1 6.8-4.6 10.1-3.8 8.1-2.2 8.7.8 17.1-2.8-8.1.8-11.7 3.7-18.6.7-1.5 1.4-3 2-4.4 1.3 2.8 2.6 5.5 3.9 8.3 0 .1-.1.2-.1.3-2.9 8.6-12 33.1-21.4 38.6 9.4-5.5 16.5-13.9 21.4-22.7-.8 4.2-1.7 8.4-1.9 12.8-.7 15 11.9 18.2 18.2 27.6-6.8-10.2-16-19.5-14.2-32.8.7-5.1 2-9.9 2.7-14.9.7 1.2 1.4 2.5 2.1 3.8 3.2 6.6 9.2 8.9 12.5 16.2.5-7.5-7.3-13.9-10.5-20.2-.9-1.7-1.8-3.4-2.8-5.1.4-2 .8-4 1.1-6 .5-2.2.8-4.3.9-6.5 0-.2 0-.3.1-.5.9-7.5 2.4-14.9 2.9-22.4v-.6c0-.8 8 6.9 8.5 7.7 2.4 3.8 4 8.1 5.7 12.3 3.8 9.1 1.5 14.2 1.2 24-.1 4.6 1.9 14.2-1.7 17.9 4.5-4.6 4.3-17.1 4.9-23.2.5-4.8.5-10.3-.2-15.1-.9-5.5-3.3-10.1-6.2-14.9-.7-1.2-1.4-2.6-2.3-3.8 7.7 3.5 16.2 7 23.8 10.4 5.4 9.8 4.8 14.6 1.3 25.3-2.6 7.8-8.8 14.7-12.6 21.9-2.1 4-3.8 8.1-5.5 12.3-1.2-1.2-2.5-2.5-3.8-3.7-5.1-4.8-11-7.6-17.3-12 6.4 4.6 12.9 11.9 19.9 18.9-1 2.5-1.9 4.9-3 7.3-1 2.2-1.9 4.5-2.8 6.8-.2-.1-.6.4-.7 1.1zm-58.3-92.7c.5-1.3.8-2.7.8-4.1 2.1 3.1 2.7 6.5 2.5 9.9-.6-1.1-1.1-2-1.4-2.5-.6-1.1-1.3-2.2-1.9-3.3zm95.5 35.3c.8 4.6 1 9.3.9 13.5-.2 15.4-10 27.2-2.8 41.7-.3-10.1 1.4-17.6 4.1-27.3 1.8-6.7 2.4-13.5 2.1-20.4v-.1c2.1 3.7 4 7.4 5.8 11.3 2.1 4.5 3.6 9.2 5 14.1-1.5 2.2-3.3 4.4-5.4 6.7 2.1-1.7 4.1-3.3 5.9-5 1.2 4.5 2.3 9.1 3.5 13.6.6 2.4 1.1 4.8 1.5 7.1-6.9 2-14.6 2.3-22.6.4-11.8-2.8-17.9-7.9-24.2-14 2.1-5.1 3.9-10.2 6.5-15.1 3.4-6.5 7.9-12.3 11.2-18.9 1.5-3 4.4-9 4.7-13.9 1.2 2.1 2.5 4.2 3.8 6.3zm-2.1-15.8c2.8 1.5 5.2 3 7.1 4.5 16.2 12.9 20.2 26.2 12.4 40.3-2.6-11.2-8.3-21.5-14.5-31.5-.9-4.8-2.5-9.4-5-13.3zm-33.9 82.1c.3-.8.5-1.7.8-2.5.8 1 1.5 2.1 2.2 3.2-1-.2-2-.5-3-.7zm2.5-7.3c1.8-4.8 3.8-9.5 5.9-14 .1-.1.1-.2.2-.4 12.8 12.2 27.8 22.4 48.6 14.4.1.8.1 1.6.2 2.4-14.1 9.6-32 10-49.7 6.6-1.7-2.2-4.5-6.1-5.2-9zm45.6 46.7c-3.6-3.6-7.3-7.1-11.2-10.4-6.6-5.7-13.5-11.2-20.1-16.9-3.3-2.8-6.1-5.9-8.5-9.4 18.2 4.4 33.4 4.5 49.2-3.1 0 5.3-.5 10.7-1.5 16.2-.7 4.2-1.7 8.4-2.9 12.6-2.2 3.5-3.9 7.2-5 11zm3.2 3c1.8-3.5 3.1-7.2 4.3-11 1.3-2.1 2.7-4.2 4-6.3-.9 6.4-4.3 12.1-8.3 17.3zm10.5-27.4c-1 1.4-2.1 2.9-3.1 4.4 1.6-7.1 2.5-14.5 2.3-21.8 2-1.1 4.1-2.4 6.2-3.8-1.2 2.1-2.4 4.3-3.3 6.6-1.8 4.8-2.3 9.6-2.1 14.6zm-1.2-23.8l3.6-1.8c-1.1 1.1-2.3 2.2-3.4 3.1 0-.3 0-.6-.1-.9-.1-.1-.1-.2-.1-.4zm17.5-2.3c-2.9 6-6.3 11.7-10 17.2-.9 1.3-1.8 2.6-2.7 4 .9-7.8 5.2-14.1 8.6-21.4 1.5-1.2 3-2.5 4.6-3.9-.3 1.4-.5 2.8-.5 4.1zm-1.6-12.2c-4.3 4.8-10 8.7-16.5 11.1-1.4-7.5-3.9-14.8-5.8-22.1 10.9-11.4 12.7-22.7 1.6-37.4-7.3-9.7-19-15.7-31.6-21.1-2.9-5.1-5.9-10.3-8.7-15.6.1.1.3.1.4.1 0 .4.2.8.6 1.2 5.3 4.5 9.5 9.9 15.1 14 6.6 4.8 13.7 9.2 20.6 13.6 7.2 4.7 14.4 9.3 20.3 15.6 1.2 1.3 2.4 2.6 3.5 4 .4 13.7.7 21.1-4.9 33.5 5-11 7.9-17 8.2-29.4 2.8 3.8 5.2 7.8 6.6 11.9.5 1.4.7 2.8.8 4.3-2 5.7-5.5 11.1-10.2 16.3zm12.1-23.5c-1.9-5.2-5.8-9.7-9.3-14.1-.1-2.2-.2-4.4-.5-6.7-1.2-8.5-6-16.1-11.3-22.7-12.6-15.7-28.3-24.6-46.9-31.6-.3-.1-.6-.1-.8-.1-1.3-1.1-2.7-2.2-4.1-3.2-3.3-2.4-6-5.5-8.7-8.5-.3-3.5-.3-7.1-.2-10.7 14.2 12.3 33.4 22.3 50.5 31.8 23.3 13 27.8 34 31.2 54.6.7 3.8.7 7.5.1 11.2zm15.1-17.6c-2.7-1.7-8.7-4.9-9.6-8.6 0-.2-.1-.4-.1-.5v-.4c0-.3-.1-.6-.2-.8-1.6-9-4.5-19.2-9.4-21.1 9.3 3.6 19.3 10.3 27.3 17.9-.2 5.7-.1 11.4.2 17.2 0 .8.1 1.5.1 2.3-2.6-2.3-5.4-4.2-8.3-6zm18.5-2.7c-2-3.5-4.4-6.9-7.1-10.2.2-6.4 1.3-12.7 2.9-18.9.3-1 .5-2 .8-2.9 1.8-.5 3.5-1.1 5.2-1.6-.8 11.1-1.8 22.3-1.8 33.6zm2-35.3c-1.6.9-3.3 1.7-5.1 2.4.8-2.6 1.8-5.1 2.9-7.5.9-2.1 1.5-4.6 3-6.3-.2 3.8-.5 7.6-.8 11.4zm1.3-19.8c0 1.3-.1 2.6-.2 3.9-6.2 3.4-8.5 13.2-10.3 19.8-2.7.9-5.5 1.7-8.3 2.2 2.7-.5 5.5-1.1 8.2-1.8l-.3.9c-1.5 5.3-2.3 10.7-2.7 16.1-19.4-21.7-51.2-40.5-76.5-55.4-15.6-9.2-24.7-19-29.8-31.6 11.8 12.2 26.9 19.8 40.3 29.4 1.7 1.2 3.5 2.4 5.3 3.5 5.7 3.5 9.3 7.4 13.3 12.8-6-8.2-4.9-11.6-14.3-17.6-4-2.6-7.7-5.6-11.5-8.4 2.1.1 4.2.2 6.3.1 9.5-.2 13.2-.2 16.6 10 .2-16.7-9.9-13-22.4-13.7-5.3-.3-10-2-14.3-4.4 5.4-.9 19.9-5.5 24.7-.5-7.6-8.1-17.4-4.2-26.9-2.7-.7.1-1.1.5-1.2 1-6.7-4.7-12.4-11.2-18.2-17l-.1-.1-.6-2.4c-3.2-14-7.7-27.3-18.7-39.2-.6-.7-1.3-1.3-1.9-2-3-5.2-6.5-10.2-9.9-15.1-2.3-3.2-4.3-6.4-6.4-9.7 6.2 3.7 12.4 7.5 17.3 12.9 16.8 18.5 21.3 40.4 45.2 56.2 8.2 5.4 17.8 9.8 28.2 12.6 3.8 3.2 8.2 5.7 12.4 8.6-.2.4-.2.9.1 1.4 3.8 8.1 2.3 16 3 24.6 1 11.7 11.9 15.5 22.2 17.1-14-6.9-19.2-9-18.8-26.1.1-4.9-.3-9.1-1.7-13.4.7.6 1.3 1.2 2 1.9-.5.5-.7 1.3-.4 2.1.9 1.9 2.5 3.1 4.4 4.1 1.2 3.2 1.4 6.5 1.7 10.1.6 7 4.8 9.4 7 15.9-2.7-7.9-3.1-13.5-3.9-21.7-.1-.9-.3-1.7-.5-2.6 2.1.7 4.1 1.3 5.8 2.1 12.4 6.4 17.5 15.5 17.7 29.2 8.1-15.4-5.5-27.2-18.3-33.5-1.9-.9-4.5-1.3-6.7-2.2-.7-1.3-1.4-2.6-2.3-3.8-3.7-5.3-9.5-8.5-14.9-12 .4.1.8.2 1.3.3 11.9 2.1 24.4 1.7 36.7 2.1.3.2.6.3 1.1.3 5.3-.3 10.2 2.7 14.5 6.4-.3.3-.5.7-.5 1.3-.1 5.4-1.6 11.8-.6 17.1.9 4.6 4.5 6.7 5.6 9.7-1.6-4.5-2.1-9-2-13.8.1-3.8.4-7.6.5-11.5.9.8 1.7 1.6 2.5 2.4 1 8.1 1.4 16.3 1.2 24.1zm3.4-12c-.1-2.4-.4-4.8-.7-7.1 2.3 3.2 3.6 6.7 2.9 11.1-.5 3.4-1.7 6.5-2.1 9.9h-.1c.2-4.7.2-9.3 0-13.9zm10.1 41c-1.4-3.3-3.3-7.9-5.8-11.2 5.6-2.6 10.6-5.6 14.5-9.1-.4 5.4-1.8 10.3-4.9 15.3-1.1 1.7-2.6 3.3-3.8 5zm14.8-48.3c4.2 8 9.6 14.9 14.2 22-1.1.2-2 1.4-1.2 2.6 4.2 6.9 1.1 16.8-2.3 23.2-4.7 8.8-17.3 16.9-12.2 28.1 1.2-9.1 6.1-10.8 10.5-18.3 2.3-3.9 4.9-7.7 6.7-11.9 2.1-5 3.5-11.4 2.5-17.1 3.2 6.1 5.4 12.7 5.2 20.3-.3 17.4-10.4 32.5-21.6 47.5-2.9-6.3-5.4-12.7-7.3-19.1-2.5-8.4-4.5-17-7.7-25.1 1-1.6 2.4-3 3.5-4.4 1.8-2.4 3.2-5.1 4.5-7.8 2.4-5.2 2.8-10.2 2.8-15.7 5.6-6.9 7.3-15.1 2.4-24.3zM573 312.7c-.9-.8-1.8-1.4-2.9-1.7.3-3.7.5-6.5 1.8-9.5 2.8-6.3 5.4-10 4.8-17.4-.3-4.2-3.2-7.8-5.9-10.9-.6-.7-1.2-1.3-1.8-2-.5-2.6-1.1-5.1-1.9-7.6.3.1.5.1.8.2 36 8.1 26.9 33.9 5.1 48.9z"/></svg>