<svg viewBox="0 0 389.8736267089844 556.9210205078125" xmlns="http://www.w3.org/2000/svg" width="389.874" height="556.921"><path fill="none" pointer-events="none" d="M0 0h389.874v556.921H0z"/><path d="M261.637 230.2a56 56 0 0 1-56 56 56 56 0 0 1-56-56 56 56 0 0 1 56-56 56 56 0 0 1 56 56z" fill="#69BD45"/><path fill="#FFF" d="M205.637 289.1c-32.4 0-58.8-26.4-58.8-58.8s26.4-58.8 58.8-58.8 58.8 26.4 58.8 58.8-26.4 58.8-58.8 58.8zm0-112.1c-29.3 0-53.2 23.9-53.2 53.2s23.9 53.2 53.2 53.2c29.3 0 53.2-23.9 53.2-53.2s-23.9-53.2-53.2-53.2z"/><path d="M167.237 272a36.6 36.6 0 0 1-36.6 36.6 36.6 36.6 0 0 1-36.6-36.6 36.6 36.6 0 0 1 36.6-36.6 36.6 36.6 0 0 1 36.6 36.6z" fill="#96C93D"/><path fill="#FFF" d="M130.637 311.5c-21.8 0-39.5-17.7-39.5-39.5s17.7-39.5 39.5-39.5 39.5 17.7 39.5 39.5-17.8 39.5-39.5 39.5zm0-73.3c-18.7 0-33.8 15.2-33.8 33.8 0 18.7 15.2 33.8 33.8 33.8 18.7 0 33.8-15.2 33.8-33.8 0-18.6-15.2-33.8-33.8-33.8z"/><path d="M351.437 244.3a49 49 0 0 1-49 49 49 49 0 0 1-49-49 49 49 0 0 1 49-49 49 49 0 0 1 49 49z" fill="#96C93D"/><path fill="#FFF" d="M302.437 296.1c-28.6 0-51.8-23.2-51.8-51.8s23.2-51.8 51.8-51.8c28.6 0 51.8 23.2 51.8 51.8s-23.2 51.8-51.8 51.8zm0-98c-25.5 0-46.2 20.7-46.2 46.2s20.7 46.2 46.2 46.2c25.5 0 46.2-20.7 46.2-46.2s-20.7-46.2-46.2-46.2z"/><path d="M302.437 140.8a76.4 76.4 0 0 1-76.4 76.4 76.4 76.4 0 0 1-76.4-76.4 76.4 76.4 0 0 1 76.4-76.4 76.4 76.4 0 0 1 76.4 76.4z" fill="#69BD45"/><path fill="#FFF" d="M226.037 220c-43.7 0-79.2-35.5-79.2-79.2s35.5-79.2 79.2-79.2 79.2 35.5 79.2 79.2-35.5 79.2-79.2 79.2zm0-152.8c-40.6 0-73.6 33-73.6 73.6 0 40.6 33 73.6 73.6 73.6 40.6 0 73.6-33 73.6-73.6 0-40.6-33-73.6-73.6-73.6z"/><path d="M334.437 173.4a49 49 0 0 1-49 49 49 49 0 0 1-49-49 49 49 0 0 1 49-49 49 49 0 0 1 49 49z" fill="#96C93D"/><path fill="#FFF" d="M285.437 225.2c-28.6 0-51.8-23.2-51.8-51.8s23.2-51.8 51.8-51.8c28.6 0 51.8 23.2 51.8 51.8s-23.2 51.8-51.8 51.8zm0-98.1c-25.5 0-46.2 20.7-46.2 46.2 0 25.5 20.7 46.2 46.2 46.2 25.5 0 46.2-20.7 46.2-46.2 0-25.4-20.7-46.2-46.2-46.2z"/><path d="M186.637 153.6a56 56 0 0 1-56 56 56 56 0 0 1-56-56 56 56 0 0 1 56-56 56 56 0 0 1 56 56z" fill="#96C93D"/><path fill="#FFF" d="M130.637 212.4c-32.4 0-58.8-26.4-58.8-58.8s26.4-58.8 58.8-58.8 58.8 26.4 58.8 58.8-26.4 58.8-58.8 58.8zm0-112c-29.3 0-53.2 23.9-53.2 53.2s23.9 53.2 53.2 53.2c29.3 0 53.2-23.9 53.2-53.2s-23.9-53.2-53.2-53.2z"/><path d="M157.437 208a20.8 20.8 0 0 1-20.8 20.8 20.8 20.8 0 0 1-20.8-20.8 20.8 20.8 0 0 1 20.8-20.8 20.8 20.8 0 0 1 20.8 20.8z" fill="#96C93D"/><path fill="#FFF" d="M136.637 230.9c-12.6 0-22.8-10.2-22.8-22.8 0-12.6 10.2-22.8 22.8-22.8 12.6 0 22.8 10.2 22.8 22.8 0 12.5-10.2 22.8-22.8 22.8zm0-41.7c-10.4 0-18.9 8.5-18.9 18.9 0 10.4 8.5 18.9 18.9 18.9 10.4 0 18.9-8.5 18.9-18.9 0-10.5-8.5-18.9-18.9-18.9z"/><path d="M156.337 146a16.3 16.3 0 0 1-16.3 16.3 16.3 16.3 0 0 1-16.3-16.3 16.3 16.3 0 0 1 16.3-16.3 16.3 16.3 0 0 1 16.3 16.3z" fill="#96C93D"/><path fill="#FFF" d="M140.037 164.3c-10.1 0-18.3-8.2-18.3-18.3 0-10.1 8.2-18.3 18.3-18.3 10.1 0 18.3 8.2 18.3 18.3-.1 10.1-8.3 18.3-18.3 18.3zm0-32.6c-7.9 0-14.3 6.4-14.3 14.3s6.4 14.3 14.3 14.3 14.3-6.4 14.3-14.3-6.4-14.3-14.3-14.3z"/><path d="M248.037 129.4a16.3 16.3 0 0 1-16.3 16.3 16.3 16.3 0 0 1-16.3-16.3 16.3 16.3 0 0 1 16.3-16.3 16.3 16.3 0 0 1 16.3 16.3z" fill="#96C93D"/><path fill="#FFF" d="M231.737 147.6c-10.1 0-18.3-8.2-18.3-18.3s8.2-18.3 18.3-18.3c10.1 0 18.3 8.2 18.3 18.3s-8.2 18.3-18.3 18.3zm0-32.6c-7.9 0-14.3 6.4-14.3 14.3s6.4 14.3 14.3 14.3 14.3-6.4 14.3-14.3-6.4-14.3-14.3-14.3z"/><path d="M318.737 267.7a16.3 16.3 0 0 1-16.3 16.3 16.3 16.3 0 0 1-16.3-16.3 16.3 16.3 0 0 1 16.3-16.3 16.3 16.3 0 0 1 16.3 16.3z" fill="#96C93D"/><path fill="#FFF" d="M302.437 286c-10.1 0-18.3-8.2-18.3-18.3 0-10.1 8.2-18.3 18.3-18.3s18.3 8.2 18.3 18.3c0 10.1-8.2 18.3-18.3 18.3zm0-32.6c-7.9 0-14.3 6.4-14.3 14.3s6.4 14.3 14.3 14.3 14.3-6.4 14.3-14.3-6.4-14.3-14.3-14.3z"/><path fill="#274F2A" d="M306.837 547.9l-.3.3s-.2-.1-.5-.3m-27.7 7.7l-.3.3s-.2-.1-.5-.3"/><path d="M136.637 220.9a56 56 0 0 1-56 56 56 56 0 0 1-56-56 56 56 0 0 1 56-56 56 56 0 0 1 56 56z" fill="#69BD45"/><path fill="#FFF" d="M80.637 279.7c-32.4 0-58.8-26.4-58.8-58.8s26.4-58.8 58.8-58.8 58.8 26.4 58.8 58.8-26.4 58.8-58.8 58.8zm0-112.1c-29.3 0-53.2 23.9-53.2 53.2 0 29.3 23.9 53.2 53.2 53.2 29.3 0 53.2-23.9 53.2-53.2 0-29.3-23.9-53.2-53.2-53.2z"/><path fill="#5B3517" d="M340.637 217.2c-14.3 5.3-16.8 4.4-17.7 4.7 1.3-2.4 2-11.8 2-11.8s-6.3 16.6-24.3 26.9c1.9-4.9 2-9 2.6-14.2 0-.4-.6-.4-.7-.1-2 5.7-3.1 9.1-7.3 16.4-.3.6-20.8 8.3-23.8 9.3-11.6 3.6-23.2 7.1-34.8 10.8-6.1 1.9-14.4 3.3-20.5 7-.3-.9-.5-1.9-.8-2.8-1.7-6.8-4.2-13.7-4.4-20.8 0-2.1 3.1-5.4 4.3-7.1 2.3-3.2 5.3-5.8 8.5-8.1.9-.6 1.8-1.2 2.8-1.8 3.7-.2 7.3-.3 11-.1 4.4.2 18.1.4 17.5.1-3.7-2.2-12.1-2.9-16.3-3.2-2-.2-3.9-.2-5.9-.2 3.7-1.8 7.5-3.5 11.2-5.1 8.2-3.6 17.7-7.6 22.4-15.7 16.9-3.5 21.1-10.3 25.3-18.6 0 0-7.1 5.8-10.3 7.5-9.3 5-13 4.1-13 4 .5-2.5 4.9-16.1 3.7-22.1 0-.2-3.5 15.6-9.2 23.1-9.1 12.1-13.7 11.3-17.3 12.8 2.4-14-3.1-24.3-3.1-23.7.1 7.8 1.1 15-1.4 22.8-.3 1-.7 2-1.1 3-.3.7-4.8 2-5.7 2.4-8.3 3.6-16.5 8.3-23 14.8-.9.9-1.7 2-2.7 2.9-.7.6-1.6 1-2.1 1.8.3-.6-4.3-15.3 6.2-27.2 5.8-6.6 10-15.5 10.9-24.5.8-8.5-.8-16.7-3.7-24.5.6-5.7 11-20.5 10.9-22.7 0-.4-11.9 14.2-12.5 16.5-.1.5-.3 1.1-.3 1.7-8.1-17.4-32.8-46.6-31.8-45 5.2 8 25.4 38.6 27.3 48.1 1.2 6.4 1.5 12.6.7 18.8-.9-2.6-1.9-5-3.1-7.4-6-12.5-17.7-18.5-16.7-17.5 8.1 8.1 14.6 16 16.4 37.7-3.3 7.6-9 14.2-12.7 21.6-.9 1.9-1.9 4.2-2.7 6.6-7.7-9.5-28.8-23.3-34.3-29.2-12.5-13.3-16.8-32.9-17.9-34.7-.1-.2 2.2 21.5 2.4 22.1-7.7-2.3-15.6-4.3-23.4-6.2-1.9-3.9-4-7.6-7-10.8-.3-.3-.8.1-.6.5 1.7 3 3.1 6.2 3.8 9.5-.1 0-.3-.1-.4-.1-5.4-1.2-10.7-2.7-16.2-3.3-5.5-.6-8.8-.5-14.7-.2.1.7 10.3 1.8 15.5 3.2 3 .8 5.9 1.7 8.9 2.7-4.3 1.8-8.9 2.7-13.4 3.9-5.4 1.4-9.8 3.8-14.3 6.9-.2.1 0 .5.2.3 10.3-5 22.4-3.6 32.4-9.2.1-.1.2-.1.3-.2.5.2 22.9 7.8 31.7 10.1.8 1.5 1.7 2.9 2.6 4.3 2.8 4.2 6.3 7.9 9.9 11.4-3.7-.7-7.4-1.5-11.1-2.1-4-.7-20.7-3.9-25.1-5-.4-.1 7.2 3.5 10.9 5.1 3.9 1.7 7.6 3.3 11.6 4.6 4.2 1.3 8.6 2.3 13 3.2 2.8.5 5.9 1.3 9 1.6.4.4.8.7 1.3 1.1 2 1.7 10.7 9.1 17.3 21.1 4.4 8.1 4.2 17.7 4.6 26.8-1.4-1.5-3-2.9-4.8-4-.3-.2-.6-.3-1-.3-7-4.8-14.9-8.1-23-10.8-.5-.3-1.2-.6-1.9-.7-3-5-7.6-9.2-12.2-12.4-3.8-2.6-7.7-4.7-11.8-6.7-2.1-1-4.1-2.2-6-3.4-1.7-1.1-3.2-2.4-5.3-2.7-.2 0-.3.2-.3.4 1.1 2.8 4.8 4.7 7.1 6.5 3.6 2.6 7.1 5.5 10.6 8.2 3 2.3 5.7 4.7 8.1 7.3-.9-1-4.9-1.5-6.3-1.9-2.4-.7-17.7-2.8-22.6-4.2-9.3-2.6-30.5-9.8-31.1-10 0-.1-.2-6.7-1.2-10.7-.8-3.2-2.5-6.8-6.7-10.5-.3-.2-.6 0-.4.3 4.2 5.1 5.2 13 4.5 19.6-6.6-3.3-15.2-11.9-14.7-10.6 1.9 4.4 11.8 13 15.8 15.3 3.9 2.3 7.9 4.2 12.1 6 1.8.8 3.7 1.6 5.5 2.3 1.2.4 5.1 2.5 6.3 2.1-4.4 1.5-8.8 2.6-13.4 3.1-6.9.8-13.9.5-20.8.2-1.5-.1-2.9-.2-4.4-.3-2.2-1.4-4.7-2.5-6.9-4.1-3-2.1-10.2-5.8-9.7-5.4 2.5 2.2 5.2 4.1 7.9 6.1 1.3 1 2.5 2 3.7 3.1-4.3-.3-8.7-.7-13-1-3.8-.3-7.5-.3-11.2-.1-3.3.2-6.9 0-10 .9-.2.1-.2.4.1.4 3.7.5 7.5 0 11.2.4 3.7.4 7.5.8 11.2 1.3.9.1 1.7.2 2.5.3-7.6 4.8-14.2 12-16.2 14.8-.1.2.1.4.3.3 2.4-1.2 4.5-2.9 6.6-4.6v2.3c0 1.4-.2 3 .6 4.3.3.5 2-7 1.7-8.4.3-.3.7-.5 1-.7 3.3-2.4 7.7-4.2 10.4-7.1l.2-.2c5 .8 10.1 1.5 15.1 2.2 24 3.5 42.2-4.7 42.5-5.2.8.2 1.7.5 2.5.7 4.7 1.4 9.5 2.8 14.2 4.2-1.6.5-3.3 1.1-4.9 1.7-4.1 1.6-23 14.4-22.8 14.8.1.1.1.2.2.3.2.3 17.2-8.3 22-9.4 6.4-1.5 13-1.8 19.5-1.2 4.9.4 9.8.9 14.4 2.7 4.7 1.8 9.3 4.3 13.4 7.1 2.8 1.9 5.4 4.2 7.8 6.7.3.9.6 1.8.8 2.7.5 2 .3 4.3.6 6.4.3 2.6.3 5.2.5 7.8 2 26.8 1.1 53.9-.8 80.7-.2 3.3-.6 6.5-1.8 9.6-1.3 3.5-3.7 4.8-5.5 7.6-.7 1-1.4 1.9-2.2 2.8 0 .1-.1.1-.1.2 0 .5-.1.9-.4 1.4-.6 1.1-1.2 2-2.1 2.7-.3 1.6-1.1 3-2.8 3.5-2.7.9-5.7.9-8.5 1.1-.4 0-.9.1-1.3.1-1.1-.1-2.3-.1-3.4-.2-2.6-.2-5.2-.6-7.8-1-4.4-.7-8.5-1.8-12.9-.5-.1 0-.1.1 0 .1 4.7-.6 9.6 1.2 14.2 2.1l1.8.3c-.7.1-1.5.2-2.2.3-3.8.7-7.5 1.8-11.1 2.9-2.6.8-5.3 1.4-8 2-3-1-6-2-9.1-3-.5-1.2-1.4-2.3-2.1-3.3-.9-1.2-1.8-2.4-2.9-3.4-.2-.2-.4.1-.3.3 1 1.3 2.1 2.5 3 3.8.5.7.9 1.6 1.4 2.3l-2.7-.9c-1-.3-2-.6-3-1-1.3-.4-2.2-1.4-3.3-2.2-1.3-1-2.7-1.2-4.3-.7-.3.1-.2.5.1.4 3-.8 3.7 1.6 5.7 2.9 1.6 1 3.4 1.6 5.2 2.2 2.9 1 5.8 2 8.8 3-3.9.4-7.7.3-11.7-.8-3.6-1-7-2.5-10.7-2.9-3.9-.4-7.6.5-11.2 1.9-.3.1-.2.5.1.4 4-1.3 8.3-1 12.4-.1 2 .5 3.9 1.2 5.8 1.9-2.8 1.7-6 2.6-9.1 3-.1 0-.1.2 0 .2 3.6-.4 6.8-1.4 10.1-2.8 1.7.6 3.4 1.3 5.2 1.7 5.8 1.3 11.7.2 17.4-1.2-3 2.4-5.9 4.7-9.6 6.2-.4.1-.2.7.2.6 3.7-.8 6.6-2.7 9.5-5 1.2-1 2.4-2 3.7-2.8.5-.1 1.1-.3 1.6-.4 4.1-1.1 8.1-2.3 12.3-2.8-.9 2.4-2.4 4.3-4.6 5.9-.1.1-.2.2-.4.2-2.3-.1-4.6-.3-6.8-.1-.1 0-.2.2 0 .2 1.8.4 3.8.5 5.7.6-2 1.2-4.2 2.1-6.2 3.4-.2.1-.1.5.2.5 5.9-1.9 11.7-5 13.7-11 3.8-.4 7.6-.4 11.3-.9 1-.1 1.9-.3 2.9-.5-2.2 1.8-4.2 3.9-6 6.1-3.5 4.5-6.4 9.8-11.4 12.7 1.5-3.1 2.3-6.8 1.7-10.1-.1-.3-.5-.2-.6.1-.2 1.8-.2 3.6-.6 5.5-.3 1.8-1 3.5-1.7 5.1-.4.2-.9.4-1.3.5-.5.2-.9.3-1.4.4-1.7-.2-3.5-.2-5.2-.4-2.7-.3-5.4-.9-8.1-1.3-3.7-.6-8.2-.8-11.6 1.2-.1 0 0 .1.1.1 4.7-1.2 9-.5 13.6.5 1.1.2 2.3.5 3.4.7-.4 0-.9.1-1.3.1-3.2.2-6.2.8-9.1 2-5 2.1-9.7 6.8-11 12.2-.1.5.6.8.8.3 2.5-5 5.9-9.2 11-11.2-1.3 2-1 4.8-.3 7.3.8 2.8 1.7 5.3 1.6 8.3-.1 3-1.6 5.5-2.4 8.4-.1.2.2.3.4.2 2.4-3.3 4-7.8 3.3-11.9 0-.2-.1-.5-.2-.7 1.2.7 2.3 1.4 3.4 2.2 1.5 1.1 2.8 2.3 4.2 3.4.2.2.4-.2.3-.3-2-2.5-5.2-4.7-8.1-6.2-1.1-3.6-3.6-7.9-1-11l1.2-.3c4.6-1.1 9.4-.6 14.1-1.2-1.8 3.9-6 6.5-7.4 10.7-.1.2.2.2.3.1 1.2-2.9 3.7-4.9 5.9-7.1.9 1.9 2 3.8 3.3 5.4.1.2.4 0 .4-.2-.8-2-1.9-4-3.2-5.7.9-1 1.8-2.1 2.4-3.4 1.3-.3 2.6-.6 3.9-1.2 5.2-2.2 8.5-7.6 11.7-11.9.1-.2.3-.4.5-.6 0 .2 0 .4-.1.6-.3 1.8-.7 3.6-.8 5.4 0 .3.5.5.6.2.8-1.7 1.2-3.6 1.4-5.5.1-.8.3-1.7.4-2.6 2.9-3.3 6.3-6.1 10.2-8.3.5.2.9.3 1.4.4-1 1.8-2.3 3.5-3.7 5.1-1.5 1.8-4.6 5-4.4 7.6 0 .2.2.3.3.3h.1c.1 0 .2-.1.2-.2v-.1c0-.3-.3-.3-.4-.1.2-.6 1-1.4 1.4-2 .6-1 1.4-2 2.2-2.9 1.3-1.5 2.7-3 4-4.5.6-.7 1.1-1.4 1.6-2.2 0-.3.1-.7.3-1 .2-.3.5-.6.7-.9.8-1.9 7-8.2 8.5-4.2 1.2 3.1 2.5 6.3.6 9.4.1-.1.5-.1.7-.1-.4 1-1.2 1.9-1.7 2.9-.3-.1-.6-.2-.9-.1-2.8.6-5.6 2.9-8 4.4-2.8 1.8-5.5 3.8-8.1 5.9-5.5 4.3-10 9.7-15.1 14.5-.3.3 0 .9.4.8 2.6-1.1 4.7-3.1 6.9-4.9 2.7-2.2 5.3-4.5 8.1-6.7l3.6-2.7c0 .1-.1.1-.1.2-.9 1.6-1.7 3.2-2.6 4.8-.5 1-2.4 3-1 3.8.1 0 .2.1.3 0 .1-.1.2-.1.3-.2.2-.2 0-.5-.2-.4-.2-.5 0-.9.4-1.3.3-.5.6-1 1-1.5.7-1 1.3-2 2-3 .9-1.3 2.1-2.8 2.8-4.4.8-.5 1.6-1.1 2.4-1.6 1.8-1.2 4.1-2.2 6-3.5l-.6 1.5c-1 2.8-1.6 5.8-1.9 8.9-.3 3 .1 6.1 0 9.1-2.8 1.8-6.2 2.2-9.4 2.7-1.4.2-3.6.3-3.7 2.1 0 .2.4.3.4.1.6-2.1 6.1-1.4 7.8-1.6 1.7-.2 3.2-.7 4.7-1.4-.6 3.5-3 5.7-6 7.3-2.6.2-5.2 1-7.9 1.4-2.3.4-4.6.5-6.9.5-1.2-2-2.6-3.9-4.1-5.7-.2-.2-.5.1-.3.3 1.2 1.8 2.5 3.8 4 5.4-.7 0-1.4 0-2.2-.1-3.7-.2-7.8.2-9 4.3 0 .1.1.2.2.1 1.6-2.4 3.5-3.5 6.4-3.3 2.3.1 4.5.6 6.8.5 1.7 0 3.5-.1 5.3-.4-.5.2-1.1.4-1.6.7-4.1 1.8-10 6.4-8.3 11.7 0 .1.2.1.2 0 .6-3.6 1.9-5.9 4.9-7.9 2.7-1.8 6-2.8 9-3.8 5-1.7 9.5-4.1 11.4-9.3 1.1-2.8.8-6 .8-8.9-.1-3.1.2-6.1 1-9.1 1-4.1 2.9-7.8 5.5-11.1 0 .5-.1.9-.1 1.3-.1 1.6 0 3.2.1 4.8-3.2 2.8-2.1 8.4-4.2 12-.1.2.2.3.3.2 1.9-2.9 1.7-7.8 4.1-10.4.2 1.5.5 2.9.7 4.4.6 3.5 1.3 6.9 1.4 10.4.2 3.9-.8 7.3-2.5 10.8-.2.4.3.8.6.5 3.6-4 3.7-10.1 3.2-15.3 1 1.1 2.6 2 3.6 2.6 3.4 2 2.5 7 3.3 10.3.1.3.6.3.7 0 .7-2.9.2-6.6-1-9.4-.7-1.5-2.3-2.1-3.5-2.9-1.2-.8-2.1-2.3-3.3-2.9-.4-3-1.2-6.3-1.6-9.5.1-.1.2-.1.3-.1 1-.4.5-1.8-.5-1.5-.2-2.6-.2-5.1.4-7.5.7 7.2 3.9 14.6 6.6 20.5 2.3 4.9 4.7 9.9 6.3 15.1-3.7.8-6.6 3.3-9 6.1-.2.2-.3.4-.5.6-4.7 2.9-10.2 3.7-15.6 4.3-2.2.3-4.3.5-6.3 1.4-2.2 1.1-3.2 3.7-4.9 5.3-.1.1 0 .2.1.1 2.1-1.5 3.3-3.7 5.9-4.7 2.5-1 5.6-.7 8.2-1 3.5-.4 7-1.1 10.2-2.4-2 2.4-4 4.7-6.9 6.3-3.9 2.1-8.2 3.1-11.9 5.6-2.9 2-5.4 5.2-6.3 8.6-.1.3.4.5.5.2 1.8-4 4.4-6.9 8.4-8.8 3.5-1.7 7.5-2.6 11-4.3 1.7-.8 3.2-2 4.5-3.3-.8 3-2.1 5.6-3.9 8.2-2 3-4.1 5.7-4.9 9.2 0 .1.1.1.1 0 1.1-3.2 3.6-5.6 5.6-8.2.2 1.9.7 3.9 1.6 5.6.1.2.4.1.4-.1-.5-2-1-4.1-1.4-6.1.1-.1.1-.2.2-.3 2.3-3.1 3.8-6.6 4.4-10.4v-.1c3.4-3.8 6.5-8.1 11.5-9.1.1.5.2 1 .3 1.6 1.4 7.2-.6 14.3-3.2 21-.3.8-.6 1.6-1 2.5-.9 1-2 2-3 2.9-2.2 2.1-4.6 3.9-7.2 5.6-.2-.1-.4-.1-.6 0-3.4 1.4-6.8 2.7-10.2 3.8-.8-.2-1.6-.4-2.5-.6-1.5-.3-3.4-.5-4.3-1.9-.1-.2-.4-.1-.4.1.4 1.1 1.3 1.5 2.3 1.8 1.1.3 2.3.7 3.4.9-1.4.4-2.9.9-4.3 1.2-2.9.8-7 2.6-6.1 6.4 0 .2.4.2.3 0-.3-4.9 7.6-5.3 11-6.3 1.4-.4 2.9-.9 4.3-1.4-2.5 1.6-4.7 3.5-5.5 6.5 0 .2.2.3.3.1 1.4-3.1 4-4.5 6.8-6s5.5-2.9 8.1-4.7c2-1.5 4-3.1 5.8-4.8-1.6 4.1-3.2 8.2-4.1 12.6-.7 3.4-.9 6.7-.5 9.9-1.7 1.6-3.7 2.7-5.7 3.8h-.1c-3.4 1.1-6.5 2.8-9.4 5-1.8 1.4-3.3 3-5.2 4.3-.8.5-2.2.6-2.5 1.6 0 .1 0 .2.1.2.2.2.2.1.4.1l.1-.1v-.1s0-.1-.1-.1c.5-.2 2.8-1.2 3-1.3 1.5-.9 2.9-2.1 4.3-3.1 1.4-1.1 3-2 4.6-2.9-.4.5-.8 1-1.2 1.6-1.4 2.4-1.8 5.3-2.4 8-.8 3.6-2.6 6.4-5.8 8.3-.1.1 0 .2.1.1 3.2-1.5 4.9-3.9 6-6.7.5 3 .6 6.2.3 9.2 0 .1.2.2.2 0 .9-3.5 1.1-6.9.4-10.5 0-.2-.2-.3-.3-.4.5-1.4.9-2.9 1.4-4.4 1.1-3.4 3.2-5.5 6.3-7.3 2-1.2 4-2.2 5.8-3.6.4 2.1 1.1 4.2 2 6.3 2.6 6 5.9 11.3 7 17.8.1.6.2 1.2.2 1.9-1 1.4-1.9 2.9-2.5 4.5-.9 2-1.2 4.1-3.4 5.2-.8.4-4.4 2.8-2.7 4.1.1.1.2.1.2 0l.1-.1v-.1s-.1 0-.1-.1c-.1 0-.2.1-.1.1-.8-.8 1.8-2.6 2.5-2.8.4-.1.9-.2 1.3-.4 1-.5 1.6-1 2.1-1.9.8-1.1 1.1-2.6 1.7-3.9.3-.7.7-1.4 1.1-2 .1 5.4-1.2 10.7-3 15.8-.2.6.7 1 1.1.5 3.4-5.9 4.3-12.4 3.6-18.9v-.2c-.3-2.7-.9-5.4-1.7-8.1 1 1.1 2.1 2.2 3 3.2 2.9 3.2 4.8 6.7 5.5 11 0 .2.2.1.3 0 .9-6.7-5-12.3-9.8-17-.5-1.3-1.1-2.7-1.7-3.9-1.4-2.9-2.9-5.9-3.9-9-.9-3-1-6.2-.7-9.4 1.8 3.1 5.5 5.3 8 7.6 2.8 2.5 3 5.4 3.7 8.9.5 2.3 2.2 4.7 4.3 5.7.2.1.4-.1.2-.3-2-2.5-3.1-4.7-3.5-7.9-.1-.7-.2-1.4-.4-2 .5.3 1.1.6 1.6.8 1.1.5 2.4 1.2 3.6 1 .2 0 .3-.3.1-.4-.9-.7-2.2-.9-3.3-1.3-.8-.4-1.6-.8-2.4-1.3-.4-1-.9-1.9-1.6-2.9-2.8-3.6-8.3-5.3-10.2-9.5 1-6.7 4-13 6.6-19.2 2.5-5.9 4.4-12.1 4.4-18.5 0-5.7-1.9-11.2-4.1-16.4 2.2 2.8 4.7 5.5 7.1 8.2.1 1.4.7 2.8 1 4.1.4 2.1.2 4.2.5 6.3 0 .3.4.2.5 0 .5-1.8.3-3.9 0-5.8-.1-.9-.3-1.9-.5-2.9 3.7 4.4 7 9.1 8.5 14.8.6 2.1.6 4.2.4 6.2-1.6 2.3-3.7 4.2-5.8 6.1-2.9-.9-5.7-1.5-8.7-.9-.2 0-.2.4.1.4 2.6.1 5.2.5 7.5 1.5-1.3 1.2-2.6 2.4-3.8 3.7-3.8 4.4-2.8 10.1-2.3 15.5 0 .2.3.2.3 0 .2-2.8.2-5.5.2-8.3 0-1.2.3-2.3.8-3.3.4 1.5 1.2 2.9 2.3 4.2 2.2 2.7 4.6 4.8 5.5 8.3 1.3 5.2-.8 11.9 3 16.3.1.1.3 0 .3-.2-1.6-2.9-1.9-5.8-1.7-9.1.2-2.8.3-5.4-.4-8.2-1.3-5-6.8-7.5-8.2-12.5.9-1.4 2.1-2.5 3.3-3.7 2.4-2.2 5-4.2 7.2-6.6-1 4.8-3 9.5-2.9 14.5 0 4.1 2.3 7 4.5 10.3 1.2 1.8 1.9 3.9 2.3 6.1.4 1.9.1 3.9.4 5.9 0 .3.5.3.6.1 1.4-3.1.5-7-.5-10-1.3-4.1-4.6-7.2-5.1-11.6-.2-1.4-.1-2.8.1-4.1.4 1 1 1.9 1.6 2.7 1.9 2.6 4.1 5.4 6.4 7.6.3.2.7-.1.5-.4-2.4-3.8-7.4-7.2-8.2-11.8.5-2.2 1.2-4.4 1.8-6.6.4-1.3.7-2.7.9-4 .6 1.6 1.5 3.2 2.6 4.5 1.3 1.5 3.1 2.4 4.5 3.8 1.7 1.8 2.4 4.2 3.1 6.5.1.2.3.1.3 0 .3-3-1.2-5.8-3.2-8 .4 0 .8-.1 1.2-.2.9-.1 1.8-.2 2.7-.6.2-.1.1-.4-.1-.5-.9-.1-1.8.2-2.6.3-.5.1-1.1.2-1.6.3l-.3-.3c-1.6-1.5-3.2-2.6-4.3-4.5-.9-1.5-1.4-3.2-1.9-4.8 0-1.3 0-2.5-.2-3.8-.1-.6-.2-1.3-.4-1.9 2.7 1.3 5.7 2.2 8.5 3.2 2 .8 4.1 1.3 5.4 3.2.8 1.1 1.2 2.5 1.8 3.8 1.1 2.5 2.6 4.3 5.1 5.4 3.6 1.5 7.1 2.5 11 2.4.3 0 .4-.5.1-.5-3.5-.9-7.1-1.8-10.4-3.3-2.8-1.3-3.6-3.7-4.7-6.2.6.3 1.1.6 1.7 1 .9.6 1.9 1.2 3 1.4.4.1.6-.3.3-.6-.7-.8-1.7-1.4-2.7-1.9-1-.6-2.1-1.2-3.2-1.8-1.3-2.4-3.6-3.3-6.1-4.3-3.3-1.2-6.8-2.9-10.3-3.8-1.9-6-6.2-11.3-10.3-15.9-5.5-6.2-11.3-12.2-14.6-20 0-.1-.1-.2-.2-.2-1-2.5-2-5-2.7-7.7-.6-2-1.8-15-.4-14.8.9.1 5.1 5.3 6.6 6.7.9.8 1.8 1.7 2.6 2.6.3 4.9-2.5 9.6-1.3 14.5.5 1.9 2 3.3 3.4 4.5 2.3 2 4.3 4.2 4.9 7.3 0 .2.4.2.4-.1-.1-4.7-3.3-6.9-6.2-10.1-1.7-1.8-1.7-4.1-1.4-6.5.4.8.9 1.5 1.3 2.2.7 1.1 1.4 2.3 2.4 3.2.2.2.5 0 .4-.3-.6-1.1-1.4-2.2-2.1-3.3-.6-1-1.1-2-1.8-2.9.5-2.5 1.3-5 1.2-7.3 2.7 3.4 4.7 7.4 5.7 11.9.8 3.7 1.1 7.4 3.7 10.3 1.8 2 4.8 2.8 7.4 3.2 1 1.3 2.1 2.5 3.2 3.7-.6 3.1-.5 6.9 0 9.9 0 .3.4.2.4-.1.2-1.9.1-3.7.1-5.6 0-1.2.1-2.5 0-3.7.5.5.9 1 1.4 1.5 2.2 2.3 4.3 4.3 4.3 7.7 0 2.1-1.3 3.4-.3 5.5.9 1.8 2.6 3.6 4.4 4.4.2.1.4-.1.2-.3-2-2-4.9-4-3.4-7.1.4-.8.5-1.6.6-2.4.2.1.4.3.5.4.8.6 1.8 1.4 2.9 1.6.2 0 .4-.2.2-.4-.7-.7-1.7-1.1-2.5-1.7-.4-.3-.7-.6-1.1-1 0-.7-.1-1.3-.3-2-.5-2.1-2.3-3.7-3.7-5.2-1.6-1.7-3.2-3.4-4.8-4.9 3.2.4 6.4.7 9.2 2.1 3.8 1.9 5.4 6.6 7.7 10 .8 1.1 1.7 2.2 2.7 3.2 1.2 2.7 3.1 5.5 5.3 7.4.2.2.5-.1.4-.3-.9-1.3-2-2.5-2.9-3.8l-1.2-1.8c3.8 3.3 8.7 5.7 13.5 5.8.6 0 .7-.9.1-1-3.8-1-7.3-2.1-10.6-4.3-3.7-2.4-6.2-5.9-8.2-9.8-.2-.3-.3-.6-.5-.9 1 .7 2.1 1.3 3.3 1.8 3.9 1.6 8.3 3.1 12.6 3 .3 0 .3-.4.1-.5-3.7-1-7.3-1.6-10.9-2.9-2.1-.7-4-1.6-5.7-3-.2-.2-.4-.4-.6-.5-1.2-1.7-2.7-3.2-4.7-4.3-2.9-1.5-6.3-1.7-9.5-2.4-3.4-.7-6.4-1.8-8.3-4.9-1-1.6-1.3-3.8-1.6-5.6-.4-2.1-.8-4-1.5-6-1.6-4.4-9-18.4-8.2-18.1 7.6 3 8 13.2 10.6 16.6 1.5 2 4 2.9 6.1 4 .5 2.4 1.1 4.9 1.9 7.2.1.2.4.1.4-.1-.3-2.2-.9-4.4-1.5-6.6 2.1 1.4 3.1 4 4.9 5.8 2.4 2.5 6.1 2.6 9.6 2.5.6 1.5 1.5 3 2.3 4.4.5.9 1.1 2.3 2.2 2.6 1.6.5 3.1-.2 4.7-.3 2.3-.2 4.1.6 5.8 2.1.1.1.3 0 .3-.2-.7-2.3-3.3-3.1-5.5-3.2-2.1-.1-4.7 1.4-6.1-1-.9-1.5-1.7-3.1-2.8-4.5 1.4 0 2.8-.1 4 0 3.1.3 6 1.8 8.3 3.7 2.4 2 3.4 4.7 5 7.3.2.3.7.2.7-.2-.2-4-3.9-7.6-7-9.7-4.4-2.9-9-2.4-14-2.9-3.3-.3-5.2-1.8-7-4.5-.4-.6-.8-1.2-1.2-1.7 3 1.5 6.7 2.4 9.8 3.1.2 0 .3-.2.1-.3-1.8-.7-3.7-1.3-5.5-1.9-1.7-.6-3.4-1.3-5.1-1.7-.9-1-2-1.9-3.3-2.6-2.6-1.4-5.1-2.3-6-5.4-.8-2.7-.5-6.9.3-9.6 1.8 1 3.8 4 5.2 5.6.6.9 1.2 1.7 1.7 2.6 1.4 2.1 2.8 4.9 4.9 6.4 2.2 1.5 4.6 1.8 7.1 2 3.4.2 6.4.9 9.4 2.7 4.9 3 6.9 9 12.3 11.5 2.2 1 4.8 1.3 7.3 1.2 0 .1 0 .1.1.2 2.9 1.4 5.4 2.9 8.1 4.7.1.1.3-.1.2-.2-2-2.1-4.8-3.7-7.6-4.7 2.9-.2 5.8-.9 8.3-1.8.1 0 .2-.1.3-.2 1.2-.1 2.4-.2 3.6-.1 1.7.1 3.2.7 4.9 1.1.2 0 .3-.2.1-.3-2.4-1.5-5.9-2-8.8-1.4-.1-.1-.2-.1-.4-.1-5.6 1-11.4 2.8-16.8-.1-2.8-1.5-4.7-4.1-6.7-6.6 2.2 1.1 4.7 1.7 7 2 2.2.2 4.3.2 6.4 0 2.8-.3 5.7-1.2 8.5-.8.1 0 .1-.1 0-.1-3.4-1.1-6.4-.7-9.7-.4 1.7-1.6 3.1-3.5 3.8-5.6.1-.3-.3-.4-.4-.2-.9 1.2-1.7 2.5-2.6 3.7-.6.8-1.3 1.5-2 2.2h-.9c-4.4.1-8-1.7-12-2.9-.7-.8-1.5-1.5-2.4-2.1-.7-.5-1.4-.9-2.2-1.3 2.3-.1 4.6-.1 7 .2 2.9.4 6.1 1.8 9 1.5.3 0 .4-.4.1-.5-3.2-1-6.4-2-9.7-2.5.8-.4 1.6-.9 2.4-1.4 1-.6 2-1.1 2.8-1.8.1-.1 0-.4-.2-.3-1.1.4-2 1-3 1.5-1 .6-2.1 1.2-3.1 1.9-2.5-.3-5.1-.2-7.7.4-.7-.2-1.5-.4-2.2-.5-2.6-.4-5.3-.2-7.9-1-2.9-.9-4.8-4-6.4-6.5.5.4 1.1.7 1.7 1 2 .8 4.1.5 6.2.3 2.5-.3 4.6-.3 7.1.3.3.1.5-.3.2-.5-3.4-2.6-8.5-.3-12.4-1.4-2.4-.7-4.2-3.7-5.7-5.5-.7-.8-1.4-1.5-2.2-2.1.4-.2.8-.3 1.2-.5.1-.1.2-.1.3-.2.5 0 1.1-.1 1.6-.1 2.5.8 5.1 1.3 7.4 1.6 1.2.2 2.4.3 3.7.3 3.2 1.3 5.9 3.8 9.1 4.9 1.9.6 3.8 1 5.7 1.5 2.3.6 4 1.8 6.1 2.9.3.2.7-.2.5-.5-1.1-1.8-3.1-2.8-5.3-3.5.4 0 .7-.1 1.1-.1 3.7-.6 6.5-1.8 10.1 0 .5.3 1.1.6 1.7 1 0 1 .5 2 .8 3 .5 1.3 1 2.6 1.9 3.7.2.2.5 0 .5-.3-.4-1.3-1.1-2.4-1.5-3.6-.3-.7-.4-1.4-.6-2.1 3.1 2.1 6.4 4.7 10.2 3.6.2-.1.1-.3 0-.3-5.9-.2-8.9-5.4-14.1-7.1-2.2-.7-4.5-.2-6.7.4-2.2.6-4.3 1-6.5 1.2-.7-.2-1.4-.3-2-.5-2.6-.7-4.8-1.8-7-3.3-.3-.2-.6-.4-.8-.5 4.5 0 9-.4 13.4-.5 7.5-.2 14.4.5 21.5 3.2.4.2.8.3 1.2.5 0 .1.1.2.2.3 2 1.3 2.5 3.8 4.4 5.2.8.6 2.1.6 3.1.6 2 .1 3.7 1.2 5.5 2.2.3.1.6-.1.4-.4-1.4-2.3-4.1-3.1-6.7-3.2-2.2-.1-3-2.1-4.1-3.6.2.1.3.1.5.2 1.6.5 3.5.4 5.2.6 3.4.3 6.8 0 10.1-1.1.5-.2.3-.9-.2-.7-3.8.9-7.6 1.4-11.5.8-1.5-.2-3.3-1.1-4.7-1.6-1.5-.5-2.9-1.1-4.4-1.7-.1-.1-.3-.1-.4-.2 2.1.1 4.2.1 6-.5.2-.1.2-.4 0-.4-2.9-.9-6.4-.3-9.4-.2-4.8-1.3-9.9-1.7-14.9-1.8-9.3-.1-28.8-.8-32.6-5.7-4.6-5.8-5.6-23-6.9-34-2-17-1.1-32.7-1.9-49.7-.2-3.4-.3-6.8-.6-10.2-.2-2.6.5-5.9.1-8.3 0-.2-.1-.4-.1-.6-.2-1.5-.6-3-1-4.6.2-.1.4-.3.7-.4 2.4-1.4 43.7-12 52.9-15.6 12.7 6.9 29.5 7 29.5 7s-18.4-5-23.3-8.9c27.5-9 40.4-21.9 43.2-25.4 11.7-2.8 20.4-10.7 20-10.5z"/></svg>